SplineFontDB: 3.2
FontName: SanitechtroRegular
FullName: Sanitechtro Regular
FamilyName: Sanitechtro
Weight: Book
Copyright: (c) 2009, 2010, 2011, 2012, 2013 Grand Chaos Productions. Some Rights Reserved.
Version: 1.0 - 6/18/2013
ItalicAngle: 0
UnderlinePosition: -292
UnderlineWidth: 150
Ascent: 1638
Descent: 410
InvalidEm: 0
sfntRevision: 0x00010000
LayerCount: 2
Layer: 0 1 "Arri+AOgA-re" 1
Layer: 1 1 "Avant" 0
XUID: [1021 987 -1416125949 15004510]
StyleMap: 0x0040
FSType: 8
OS2Version: 3
OS2_WeightWidthSlopeOnly: 0
OS2_UseTypoMetrics: 0
CreationTime: 1371426084
ModificationTime: 1751740313
PfmFamily: 17
TTFWeight: 400
TTFWidth: 3
LineGap: 0
VLineGap: 0
Panose: 2 11 6 6 1 1 1 1 1 1
OS2TypoAscent: 1400
OS2TypoAOffset: 0
OS2TypoDescent: -500
OS2TypoDOffset: 0
OS2TypoLinegap: 205
OS2WinAscent: 1900
OS2WinAOffset: 0
OS2WinDescent: 500
OS2WinDOffset: 0
HheadAscent: 1900
HheadAOffset: 0
HheadDescent: -500
HheadDOffset: 0
OS2SubXSize: 1434
OS2SubYSize: 1331
OS2SubXOff: 0
OS2SubYOff: 283
OS2SupXSize: 1434
OS2SupYSize: 1331
OS2SupXOff: 0
OS2SupYOff: 977
OS2StrikeYSize: 102
OS2StrikeYPos: 530
OS2CapHeight: 1400
OS2XHeight: 900
OS2FamilyClass: 2048
OS2Vendor: 'HL  '
OS2CodePages: 20000113.40000000
OS2UnicodeRanges: 8000003f.5000000a.00000000.00000000
DEI: 91125
TtTable: prep
PUSHW_1
 10
CALL
PUSHW_1
 0
CALL
EndTTInstrs
TtTable: fpgm
PUSHW_1
 0
FDEF
MPPEM
PUSHW_1
 6
LT
IF
PUSHB_2
 1
 1
INSTCTRL
EIF
PUSHW_1
 511
SCANCTRL
PUSHW_1
 68
SCVTCI
PUSHW_2
 6
 3
SDS
SDB
ENDF
PUSHW_1
 1
FDEF
DUP
DUP
RCVT
ROUND[Black]
WCVTP
PUSHB_1
 1
ADD
ENDF
PUSHW_1
 2
FDEF
PUSHW_1
 1
LOOPCALL
POP
ENDF
PUSHW_1
 3
FDEF
DUP
GC[cur]
PUSHB_1
 3
CINDEX
GC[cur]
GT
IF
SWAP
EIF
DUP
ROLL
DUP
ROLL
MD[grid]
ABS
ROLL
DUP
GC[cur]
DUP
ROUND[Grey]
SUB
ABS
PUSHB_1
 4
CINDEX
GC[cur]
DUP
ROUND[Grey]
SUB
ABS
GT
IF
SWAP
NEG
ROLL
EIF
MDAP[rnd]
DUP
PUSHB_1
 0
GTEQ
IF
ROUND[Black]
DUP
PUSHB_1
 0
EQ
IF
POP
PUSHB_1
 64
EIF
ELSE
ROUND[Black]
DUP
PUSHB_1
 0
EQ
IF
POP
PUSHB_1
 64
NEG
EIF
EIF
MSIRP[no-rp0]
ENDF
PUSHW_1
 4
FDEF
DUP

StartChar: .notdef
Encoding: 65536 -1 0
Width: 1200
Flags: W
LayerCount: 2
Fore
SplineSet
1100 1400 m 1,0,-1
 1100 0 l 1,1,-1
 100 0 l 1,2,-1
 100 1400 l 1,3,-1
 1100 1400 l 1,0,-1
850 150 m 1,4,-1
 600 540 l 1,5,-1
 350 150 l 1,6,-1
 850 150 l 1,4,-1
950 310 m 1,7,-1
 950 1090 l 1,8,-1
 700 700 l 1,9,-1
 950 310 l 1,7,-1
350 1250 m 1,10,-1
 600 860 l 1,11,-1
 850 1250 l 1,12,-1
 350 1250 l 1,10,-1
500 700 m 1,13,-1
 250 1090 l 1,14,-1
 250 310 l 1,15,-1
 500 700 l 1,13,-1
EndSplineSet
EndChar

StartChar: exclam
Encoding: 33 33 4
Width: 400
GlyphClass: 2
Flags: W
LayerCount: 2
Fore
SplineSet
300 200 m 1,0,-1
 300 0 l 1,1,-1
 100 0 l 1,2,-1
 100 200 l 1,3,-1
 300 200 l 1,0,-1
300 1400 m 1,4,-1
 300 400 l 1,5,-1
 100 400 l 1,6,-1
 100 1400 l 1,7,-1
 300 1400 l 1,4,-1
EndSplineSet
EndChar

StartChar: quotedbl
Encoding: 34 34 5
Width: 700
GlyphClass: 2
Flags: W
LayerCount: 2
Fore
SplineSet
300 1400 m 1,0,-1
 300 1200 l 1,1,-1
 255 1000 l 1,2,-1
 146 1000 l 1,3,-1
 100 1200 l 1,4,-1
 100 1400 l 1,5,-1
 300 1400 l 1,0,-1
600 1400 m 1,6,-1
 600 1200 l 1,7,-1
 555 1000 l 1,8,-1
 446 1000 l 1,9,-1
 400 1200 l 1,10,-1
 400 1400 l 1,11,-1
 600 1400 l 1,6,-1
EndSplineSet
EndChar

StartChar: numbersign
Encoding: 35 35 6
Width: 1250
GlyphClass: 2
Flags: W
LayerCount: 2
Fore
SplineSet
399 1100 m 1,0,-1
 460 1400 l 1,1,-1
 625 1400 l 1,2,-1
 564 1100 l 1,3,-1
 849 1100 l 1,4,-1
 910 1400 l 1,5,-1
 1075 1400 l 1,6,-1
 1014 1100 l 1,7,-1
 1150 1100 l 1,8,-1
 1150 950 l 1,9,-1
 983 950 l 1,10,-1
 881 450 l 1,11,-1
 1050 450 l 1,12,-1
 1050 300 l 1,13,-1
 851 300 l 1,14,-1
 790 0 l 1,15,-1
 625 0 l 1,16,-1
 686 300 l 1,17,-1
 401 300 l 1,18,-1
 340 0 l 1,19,-1
 175 0 l 1,20,-1
 236 300 l 1,21,-1
 100 300 l 1,22,-1
 100 450 l 1,23,-1
 266 450 l 1,24,-1
 368 950 l 1,25,-1
 200 950 l 1,26,-1
 200 1100 l 1,27,-1
 399 1100 l 1,0,-1
431 450 m 1,28,-1
 716 450 l 1,29,-1
 818 950 l 1,30,-1
 533 950 l 1,31,-1
 431 450 l 1,28,-1
EndSplineSet
EndChar

StartChar: dollar
Encoding: 36 36 7
Width: 850
GlyphClass: 2
Flags: W
LayerCount: 2
Fore
SplineSet
525 250 m 2,0,1
 525 6 525 6 287 0 c 1,2,-1
 300 0 l 1,3,-1
 300 -200 l 1,4,-1
 200 -200 l 1,5,-1
 200 0 l 1,6,-1
 100 0 l 1,7,-1
 100 150 l 1,8,-1
 225 150 l 2,9,10
 325 150 325 150 325 250 c 2,11,-1
 325 1150 l 2,12,13
 325 1400 325 1400 575 1400 c 2,14,-1
 600 1400 l 1,15,-1
 600 1600 l 1,16,-1
 700 1600 l 1,17,-1
 700 1400 l 1,18,-1
 750 1400 l 1,19,-1
 750 1250 l 1,20,-1
 625 1250 l 2,21,22
 525 1250 525 1250 525 1150 c 2,23,-1
 525 250 l 2,0,1
EndSplineSet
EndChar

StartChar: percent
Encoding: 37 37 8
Width: 1660
GlyphClass: 2
Flags: W
LayerCount: 2
Fore
SplineSet
1335 750 m 2,0,1
 1560 750 1560 750 1560 525 c 2,2,-1
 1560 225 l 2,3,4
 1560 0 1560 0 1335 0 c 2,5,-1
 1205 0 l 2,6,7
 981 0 981 0 981 225 c 2,8,-1
 981 525 l 2,9,10
 981 750 981 750 1205 750 c 2,11,-1
 1335 750 l 2,0,1
454 1400 m 2,12,13
 679 1400 679 1400 679 1175 c 2,14,-1
 679 875 l 2,15,16
 679 650 679 650 454 650 c 2,17,-1
 324 650 l 2,18,19
 100 650 100 650 100 875 c 2,20,-1
 100 1175 l 2,21,22
 100 1400 100 1400 324 1400 c 2,23,-1
 454 1400 l 2,12,13
635 0 m 1,24,-1
 475 0 l 1,25,-1
 1035 1400 l 1,26,-1
 1195 1400 l 1,27,-1
 635 0 l 1,24,-1
1385 525 m 2,28,29
 1385 625 1385 625 1285 625 c 2,30,-1
 1255 625 l 2,31,32
 1155 625 1155 625 1155 525 c 2,33,-1
 1155 225 l 2,34,35
 1155 130 1155 130 1245 125 c 1,36,-1
 1285 125 l 2,37,38
 1385 125 1385 125 1385 225 c 2,39,-1
 1385 525 l 2,28,29
504 1175 m 2,40,41
 504 1275 504 1275 404 1275 c 2,42,-1
 374 1275 l 2,43,44
 274 1275 274 1275 274 1175 c 2,45,-1
 274 875 l 2,46,47
 274 775 274 775 374 775 c 2,48,-1
 404 775 l 2,49,50
 504 775 504 775 504 875 c 2,51,-1
 504 1175 l 2,40,41
EndSplineSet
EndChar

StartChar: ampersand
Encoding: 38 38 9
Width: 1000
GlyphClass: 2
Flags: W
LayerCount: 2
Fore
SplineSet
700 1250 m 1,0,-1
 420 1250 l 2,1,2
 320 1250 320 1250 320 1150 c 2,3,-1
 320 1000 l 2,4,5
 320 900 320 900 420 900 c 2,6,-1
 900 900 l 1,7,-1
 900 750 l 1,8,-1
 800 750 l 1,9,-1
 800 0 l 1,10,-1
 700 0 l 1,11,-1
 650 100 l 1,12,-1
 600 0 l 1,13,-1
 350 0 l 2,14,15
 100 0 100 0 100 250 c 2,16,-1
 100 650 l 2,17,18
 100 785 100 785 215 829 c 1,19,20
 120 876 120 876 120 1000 c 2,21,-1
 120 1150 l 2,22,23
 120 1400 120 1400 370 1400 c 2,24,-1
 700 1400 l 1,25,-1
 700 1250 l 1,0,-1
600 150 m 1,26,-1
 600 750 l 1,27,-1
 400 750 l 2,28,29
 300 750 300 750 300 650 c 2,30,-1
 300 250 l 2,31,32
 300 150 300 150 400 150 c 2,33,-1
 600 150 l 1,26,-1
EndSplineSet
EndChar

StartChar: quotesingle
Encoding: 39 39 10
Width: 400
GlyphClass: 2
Flags: W
LayerCount: 2
Fore
SplineSet
300 1400 m 1,0,-1
 300 1200 l 1,1,-1
 255 1000 l 1,2,-1
 146 1000 l 1,3,-1
 100 1200 l 1,4,-1
 100 1400 l 1,5,-1
 300 1400 l 1,0,-1
EndSplineSet
EndChar

StartChar: parenleft
Encoding: 40 40 11
Width: 600
GlyphClass: 2
Flags: W
LayerCount: 2
Fore
SplineSet
300 0 m 1,0,1
 100 300 100 300 100 700 c 256,2,3
 100 1100 100 1100 300 1400 c 1,4,-1
 500 1400 l 1,5,6
 290 1100 290 1100 290 700 c 256,7,8
 290 300 290 300 500 0 c 1,9,-1
 300 0 l 1,0,1
EndSplineSet
EndChar

StartChar: parenright
Encoding: 41 41 12
Width: 600
GlyphClass: 2
Flags: W
LayerCount: 2
Fore
SplineSet
300 1400 m 1,0,1
 500 1100 500 1100 500 700 c 256,2,3
 500 300 500 300 300 0 c 1,4,-1
 100 0 l 1,5,6
 310 300 310 300 310 700 c 256,7,8
 310 1100 310 1100 100 1400 c 1,9,-1
 300 1400 l 1,0,1
EndSplineSet
EndChar

StartChar: asterisk
Encoding: 42 42 13
Width: 650
GlyphClass: 2
Flags: W
LayerCount: 2
Fore
SplineSet
225 1199 m 1,0,-1
 137 1333 l 1,1,-1
 228 1378 l 1,2,-1
 319 1240 l 1,3,-1
 410 1378 l 1,4,-1
 501 1333 l 1,5,-1
 412 1199 l 1,6,-1
 550 1199 l 1,7,-1
 550 1099 l 1,8,-1
 412 1099 l 1,9,-1
 501 965 l 1,10,-1
 410 920 l 1,11,-1
 319 1057 l 1,12,-1
 228 920 l 1,13,-1
 137 965 l 1,14,-1
 225 1099 l 1,15,-1
 100 1099 l 1,16,-1
 100 1199 l 1,17,-1
 225 1199 l 1,0,-1
EndSplineSet
EndChar

StartChar: plus
Encoding: 43 43 14
Width: 1000
GlyphClass: 2
Flags: W
LayerCount: 2
Fore
SplineSet
425 705 m 1,0,-1
 425 1030 l 1,1,-1
 575 1030 l 1,2,-1
 575 705 l 1,3,-1
 900 705 l 1,4,-1
 900 555 l 1,5,-1
 575 555 l 1,6,-1
 575 230 l 1,7,-1
 425 230 l 1,8,-1
 425 555 l 1,9,-1
 100 555 l 1,10,-1
 100 705 l 1,11,-1
 425 705 l 1,0,-1
EndSplineSet
EndChar

StartChar: comma
Encoding: 44 44 15
Width: 400
GlyphClass: 2
Flags: W
LayerCount: 2
Fore
SplineSet
300 200 m 1,0,-1
 300 0 l 1,1,-1
 225 -200 l 1,2,-1
 100 -200 l 1,3,-1
 175 0 l 1,4,-1
 100 0 l 1,5,-1
 100 200 l 1,6,-1
 300 200 l 1,0,-1
EndSplineSet
EndChar

StartChar: hyphen
Encoding: 45 45 16
Width: 700
GlyphClass: 2
Flags: W
LayerCount: 2
Fore
SplineSet
600 700 m 1,0,-1
 600 550 l 1,1,-1
 100 550 l 1,2,-1
 100 700 l 1,3,-1
 600 700 l 1,0,-1
EndSplineSet
EndChar

StartChar: period
Encoding: 46 46 17
Width: 400
GlyphClass: 2
Flags: W
LayerCount: 2
Fore
SplineSet
300 200 m 1,0,-1
 300 0 l 1,1,-1
 100 0 l 1,2,-1
 100 200 l 1,3,-1
 300 200 l 1,0,-1
EndSplineSet
EndChar

StartChar: slash
Encoding: 47 47 18
Width: 920
GlyphClass: 2
Flags: W
LayerCount: 2
Fore
SplineSet
820 1400 m 1,0,-1
 260 0 l 1,1,-1
 100 0 l 1,2,-1
 660 1400 l 1,3,-1
 820 1400 l 1,0,-1
EndSplineSet
EndChar

StartChar: zero
Encoding: 48 48 19
Width: 900
GlyphClass: 2
Flags: W
LayerCount: 2
Fore
SplineSet
100 1150 m 2,0,1
 100 1400 100 1400 350 1400 c 2,2,-1
 550 1400 l 2,3,4
 800 1400 800 1400 800 1150 c 2,5,-1
 800 250 l 2,6,7
 800 0 800 0 550 0 c 2,8,-1
 350 0 l 2,9,10
 100 0 100 0 100 250 c 2,11,-1
 100 1150 l 2,0,1
600 1150 m 2,12,13
 600 1247 600 1247 505 1250 c 2,14,-1
 395 1250 l 2,15,16
 300 1247 300 1247 300 1150 c 2,17,-1
 300 250 l 2,18,19
 300 150 300 150 400 150 c 2,20,-1
 500 150 l 2,21,22
 600 150 600 150 600 250 c 2,23,-1
 600 1150 l 2,12,13
EndSplineSet
EndChar

StartChar: one
Encoding: 49 49 20
Width: 700
GlyphClass: 2
Flags: W
LayerCount: 2
Fore
SplineSet
450 1400 m 1,0,-1
 450 150 l 1,1,-1
 600 150 l 1,2,-1
 600 0 l 1,3,-1
 100 0 l 1,4,-1
 100 150 l 1,5,-1
 250 150 l 1,6,-1
 250 1225 l 1,7,-1
 100 1125 l 1,8,-1
 100 1300 l 1,9,-1
 250 1400 l 1,10,-1
 450 1400 l 1,0,-1
EndSplineSet
EndChar

StartChar: two
Encoding: 50 50 21
Width: 900
GlyphClass: 2
Flags: W
LayerCount: 2
Fore
SplineSet
500 900 m 2,0,1
 600 900 600 900 600 1000 c 2,2,-1
 600 1150 l 2,3,4
 600 1250 600 1250 500 1250 c 2,5,-1
 150 1250 l 1,6,-1
 150 1400 l 1,7,-1
 550 1400 l 2,8,9
 800 1400 800 1400 800 1150 c 2,10,-1
 800 1000 l 2,11,12
 800 750 800 750 550 750 c 2,13,-1
 400 750 l 2,14,15
 300 750 300 750 300 650 c 2,16,-1
 300 150 l 1,17,-1
 800 150 l 1,18,-1
 800 0 l 1,19,-1
 100 0 l 1,20,-1
 100 650 l 2,21,22
 100 900 100 900 350 900 c 2,23,-1
 500 900 l 2,0,1
EndSplineSet
EndChar

StartChar: three
Encoding: 51 51 22
Width: 900
GlyphClass: 2
Flags: W
LayerCount: 2
Fore
SplineSet
100 150 m 1,0,-1
 500 150 l 2,1,2
 600 150 600 150 600 250 c 2,3,-1
 600 650 l 2,4,5
 600 750 600 750 500 750 c 2,6,-1
 250 750 l 1,7,-1
 249 850 l 1,8,-1
 250 850 l 1,9,-1
 250 900 l 1,10,-1
 480 900 l 2,11,12
 580 900 580 900 580 1000 c 2,13,-1
 580 1150 l 2,14,15
 580 1250 580 1250 480 1250 c 2,16,-1
 150 1250 l 1,17,-1
 150 1400 l 1,18,-1
 530 1400 l 2,19,20
 780 1400 780 1400 780 1150 c 2,21,-1
 780 1000 l 2,22,23
 780 876 780 876 684 829 c 1,24,25
 800 785 800 785 800 650 c 2,26,-1
 800 250 l 2,27,28
 800 0 800 0 550 0 c 2,29,-1
 100 0 l 1,30,-1
 100 150 l 1,0,-1
EndSplineSet
EndChar

StartChar: four
Encoding: 52 52 23
Width: 900
GlyphClass: 2
Flags: W
LayerCount: 2
Fore
SplineSet
300 1400 m 1,0,-1
 300 900 l 1,1,-1
 600 900 l 1,2,-1
 600 1400 l 1,3,-1
 800 1400 l 1,4,-1
 800 0 l 1,5,-1
 600 0 l 1,6,-1
 600 750 l 1,7,-1
 100 750 l 1,8,-1
 100 1400 l 1,9,-1
 300 1400 l 1,0,-1
EndSplineSet
EndChar

StartChar: five
Encoding: 53 53 24
Width: 900
GlyphClass: 2
Flags: W
LayerCount: 2
Fore
SplineSet
600 650 m 2,0,1
 600 750 600 750 500 750 c 2,2,-1
 150 750 l 1,3,-1
 150 1400 l 1,4,-1
 800 1400 l 1,5,-1
 800 1250 l 1,6,-1
 350 1250 l 1,7,-1
 350 900 l 1,8,-1
 550 900 l 2,9,10
 800 900 800 900 800 650 c 2,11,-1
 800 250 l 2,12,13
 800 0 800 0 550 0 c 2,14,-1
 100 0 l 1,15,-1
 100 150 l 1,16,-1
 500 150 l 2,17,18
 600 150 600 150 600 250 c 2,19,-1
 600 650 l 2,0,1
EndSplineSet
EndChar

StartChar: six
Encoding: 54 54 25
Width: 900
GlyphClass: 2
Flags: W
LayerCount: 2
Fore
SplineSet
300 900 m 1,0,-1
 550 900 l 2,1,2
 800 900 800 900 800 650 c 2,3,-1
 800 250 l 2,4,5
 800 0 800 0 550 0 c 2,6,-1
 350 0 l 2,7,8
 100 0 100 0 100 250 c 2,9,-1
 100 1150 l 2,10,11
 100 1400 100 1400 350 1400 c 2,12,-1
 700 1400 l 1,13,-1
 700 1250 l 1,14,-1
 400 1250 l 2,15,16
 300 1250 300 1250 300 1150 c 2,17,-1
 300 900 l 1,0,-1
300 250 m 2,18,19
 300 150 300 150 400 150 c 2,20,-1
 500 150 l 2,21,22
 600 150 600 150 600 250 c 2,23,-1
 600 650 l 2,24,25
 600 750 600 750 500 750 c 2,26,-1
 300 750 l 1,27,-1
 300 250 l 2,18,19
EndSplineSet
EndChar

StartChar: seven
Encoding: 55 55 26
Width: 800
GlyphClass: 2
Flags: W
LayerCount: 2
Fore
SplineSet
700 1400 m 1,0,-1
 700 1250 l 1,1,-1
 500 0 l 1,2,-1
 300 0 l 1,3,-1
 500 1250 l 1,4,-1
 100 1250 l 1,5,-1
 100 1400 l 1,6,-1
 700 1400 l 1,0,-1
EndSplineSet
EndChar

StartChar: eight
Encoding: 56 56 27
Width: 900
GlyphClass: 2
Flags: W
LayerCount: 2
Fore
SplineSet
780 1000 m 2,0,1
 780 876 780 876 684 829 c 1,2,3
 800 785 800 785 800 650 c 2,4,-1
 800 250 l 2,5,6
 800 0 800 0 550 0 c 2,7,-1
 350 0 l 2,8,9
 100 0 100 0 100 250 c 2,10,-1
 100 650 l 2,11,12
 100 785 100 785 215 829 c 1,13,14
 120 876 120 876 120 1000 c 2,15,-1
 120 1150 l 2,16,17
 120 1390 120 1390 350 1399 c 1,18,-1
 350 1400 l 1,19,-1
 550 1400 l 1,20,-1
 550 1399 l 1,21,22
 780 1390 780 1390 780 1150 c 2,23,-1
 780 1000 l 2,0,1
600 650 m 2,24,25
 600 750 600 750 500 750 c 2,26,-1
 400 750 l 2,27,28
 300 750 300 750 300 650 c 2,29,-1
 300 250 l 2,30,31
 300 150 300 150 400 150 c 2,32,-1
 500 150 l 2,33,34
 600 150 600 150 600 250 c 2,35,-1
 600 650 l 2,24,25
580 1150 m 2,36,37
 580 1247 580 1247 485 1250 c 2,38,-1
 415 1250 l 2,39,40
 320 1247 320 1247 320 1150 c 2,41,-1
 320 1000 l 2,42,43
 320 900 320 900 420 900 c 2,44,-1
 480 900 l 2,45,46
 580 900 580 900 580 1000 c 2,47,-1
 580 1150 l 2,36,37
EndSplineSet
EndChar

StartChar: nine
Encoding: 57 57 28
Width: 900
GlyphClass: 2
Flags: W
LayerCount: 2
Fore
SplineSet
600 500 m 1,0,-1
 350 500 l 2,1,2
 100 500 100 500 100 750 c 2,3,-1
 100 1150 l 2,4,5
 100 1400 100 1400 350 1400 c 2,6,-1
 550 1400 l 2,7,8
 800 1400 800 1400 800 1150 c 2,9,-1
 800 250 l 2,10,11
 800 0 800 0 550 0 c 2,12,-1
 200 0 l 1,13,-1
 200 150 l 1,14,-1
 500 150 l 2,15,16
 600 150 600 150 600 250 c 2,17,-1
 600 500 l 1,0,-1
600 1150 m 2,18,19
 600 1250 600 1250 500 1250 c 2,20,-1
 400 1250 l 2,21,22
 300 1250 300 1250 300 1150 c 2,23,-1
 300 750 l 2,24,25
 300 650 300 650 400 650 c 2,26,-1
 600 650 l 1,27,-1
 600 1150 l 2,18,19
EndSplineSet
EndChar

StartChar: less
Encoding: 60 60 31
Width: 901
GlyphClass: 2
Flags: W
LayerCount: 2
Fore
SplineSet
801 860 m 1,0,-1
 300 660 l 1,1,-1
 801 460 l 1,2,-1
 801 300 l 1,3,-1
 100 580 l 1,4,-1
 100 740 l 1,5,-1
 801 1020 l 1,6,-1
 801 860 l 1,0,-1
EndSplineSet
EndChar

StartChar: equal
Encoding: 61 61 32
Width: 1000
GlyphClass: 2
Flags: W
LayerCount: 2
Fore
SplineSet
900 550 m 1,0,-1
 900 400 l 1,1,-1
 100 400 l 1,2,-1
 100 550 l 1,3,-1
 900 550 l 1,0,-1
900 900 m 1,4,-1
 900 750 l 1,5,-1
 100 750 l 1,6,-1
 100 900 l 1,7,-1
 900 900 l 1,4,-1
EndSplineSet
EndChar

StartChar: greater
Encoding: 62 62 33
Width: 901
GlyphClass: 2
Flags: W
LayerCount: 2
Fore
SplineSet
100 1020 m 1,0,-1
 801 740 l 1,1,-1
 801 580 l 1,2,-1
 100 300 l 1,3,-1
 100 460 l 1,4,-1
 600 660 l 1,5,-1
 100 860 l 1,6,-1
 100 1020 l 1,0,-1
EndSplineSet
EndChar

StartChar: question
Encoding: 63 63 34
Width: 850
GlyphClass: 2
Flags: W
LayerCount: 2
Fore
SplineSet
450 700 m 2,0,1
 550 700 550 700 550 800 c 2,2,-1
 550 1150 l 2,3,4
 550 1250 550 1250 450 1250 c 2,5,-1
 100 1250 l 1,6,-1
 100 1400 l 1,7,-1
 500 1400 l 2,8,9
 750 1400 750 1400 750 1150 c 2,10,-1
 750 800 l 2,11,12
 750 550 750 550 500 550 c 2,13,-1
 450 550 l 2,14,15
 350 550 350 550 350 450 c 2,16,-1
 350 400 l 1,17,-1
 150 400 l 1,18,-1
 150 450 l 2,19,20
 150 700 150 700 400 700 c 2,21,-1
 450 700 l 2,0,1
350 0 m 1,22,-1
 150 0 l 1,23,-1
 150 200 l 1,24,-1
 350 200 l 1,25,-1
 350 0 l 1,22,-1
EndSplineSet
EndChar

StartChar: at
Encoding: 64 64 35
Width: 1450
GlyphClass: 2
Flags: W
LayerCount: 2
Fore
SplineSet
1150 897 m 2,0,1
 1150 997 1150 997 1050 997 c 2,2,-1
 400 997 l 2,3,4
 300 997 300 997 300 897 c 2,5,-1
 300 -3 l 2,6,7
 300 -103 300 -103 400 -103 c 2,8,-1
 1150 -103 l 1,9,-1
 1150 -253 l 1,10,-1
 350 -253 l 2,11,12
 100 -253 100 -253 100 -3 c 2,13,-1
 100 897 l 2,14,15
 100 1147 100 1147 350 1147 c 2,16,-1
 1100 1147 l 2,17,18
 1350 1147 1350 1147 1350 897 c 2,19,-1
 1350 247 l 2,20,21
 1350 -3 1350 -3 1100 -3 c 2,22,-1
 900 -3 l 1,23,-1
 880 57 l 1,24,-1
 850 -3 l 1,25,-1
 650 -3 l 2,26,27
 400 -3 400 -3 400 247 c 2,28,-1
 400 347 l 2,29,30
 400 597 400 597 650 597 c 2,31,-1
 850 597 l 1,32,-1
 850 647 l 2,33,34
 850 747 850 747 750 747 c 2,35,-1
 500 747 l 1,36,-1
 500 897 l 1,37,-1
 800 897 l 2,38,39
 1050 897 1050 897 1050 647 c 2,40,-1
 1050 147 l 1,41,42
 1150 147 1150 147 1150 247 c 2,43,-1
 1150 897 l 2,0,1
700 447 m 2,44,45
 600 447 600 447 600 347 c 2,46,-1
 600 247 l 2,47,48
 600 147 600 147 700 147 c 2,49,-1
 850 147 l 1,50,-1
 850 447 l 1,51,-1
 700 447 l 2,44,45
EndSplineSet
EndChar

StartChar: A
Encoding: 65 65 36
Width: 890
GlyphClass: 2
Flags: W
LayerCount: 2
Fore
SplineSet
610 1400 m 1,0,-1
 840 0 l 1,1,-1
 650 0 l 1,2,-1
 584 400 l 1,3,-1
 305 400 l 1,4,-1
 240 0 l 1,5,-1
 50 0 l 1,6,-1
 280 1400 l 1,7,-1
 610 1400 l 1,0,-1
330 550 m 1,8,-1
 559 550 l 1,9,-1
 445 1247 l 1,10,-1
 330 550 l 1,8,-1
EndSplineSet
EndChar

StartChar: B
Encoding: 66 66 37
Width: 900
GlyphClass: 2
Flags: W
LayerCount: 2
Fore
SplineSet
100 0 m 1,0,-1
 100 1400 l 1,1,-1
 530 1400 l 2,2,3
 780 1400 780 1400 780 1150 c 2,4,-1
 780 1000 l 2,5,6
 780 876 780 876 684 829 c 1,7,8
 800 785 800 785 800 650 c 2,9,-1
 800 250 l 2,10,11
 800 0 800 0 550 0 c 2,12,-1
 100 0 l 1,0,-1
500 150 m 2,13,14
 600 150 600 150 600 250 c 2,15,-1
 600 650 l 2,16,17
 600 750 600 750 500 750 c 2,18,-1
 300 750 l 1,19,-1
 300 150 l 1,20,-1
 500 150 l 2,13,14
300 1250 m 1,21,-1
 300 900 l 1,22,-1
 480 900 l 2,23,24
 580 900 580 900 580 1000 c 2,25,-1
 580 1150 l 2,26,27
 580 1250 580 1250 480 1250 c 2,28,-1
 300 1250 l 1,21,-1
EndSplineSet
EndChar

StartChar: C
Encoding: 67 67 38
Width: 800
GlyphClass: 2
Flags: W
LayerCount: 2
Fore
SplineSet
300 250 m 2,0,1
 300 150 300 150 400 150 c 2,2,-1
 700 150 l 1,3,-1
 700 0 l 1,4,-1
 350 0 l 2,5,6
 100 0 100 0 100 250 c 2,7,-1
 100 1150 l 2,8,9
 100 1400 100 1400 350 1400 c 2,10,-1
 650 1400 l 1,11,-1
 650 1250 l 1,12,-1
 400 1250 l 2,13,14
 300 1250 300 1250 300 1150 c 2,15,-1
 300 250 l 2,0,1
EndSplineSet
EndChar

StartChar: D
Encoding: 68 68 39
Width: 900
GlyphClass: 2
Flags: W
LayerCount: 2
Fore
SplineSet
550 1400 m 2,0,1
 800 1400 800 1400 800 1150 c 2,2,-1
 800 250 l 2,3,4
 800 0 800 0 550 0 c 2,5,-1
 100 0 l 1,6,-1
 100 1400 l 1,7,-1
 550 1400 l 2,0,1
300 1250 m 1,8,-1
 300 150 l 1,9,-1
 500 150 l 2,10,11
 600 150 600 150 600 250 c 2,12,-1
 600 1150 l 2,13,14
 600 1250 600 1250 500 1250 c 2,15,-1
 300 1250 l 1,8,-1
EndSplineSet
EndChar

StartChar: E
Encoding: 69 69 40
Width: 800
GlyphClass: 2
Flags: W
LayerCount: 2
Fore
SplineSet
300 900 m 1,0,-1
 550 900 l 1,1,-1
 550 750 l 1,2,-1
 300 750 l 1,3,-1
 300 250 l 2,4,5
 300 150 300 150 400 150 c 2,6,-1
 700 150 l 1,7,-1
 700 0 l 1,8,-1
 350 0 l 2,9,10
 100 0 100 0 100 250 c 2,11,-1
 100 1150 l 2,12,13
 100 1400 100 1400 350 1400 c 2,14,-1
 650 1400 l 1,15,-1
 650 1250 l 1,16,-1
 400 1250 l 2,17,18
 300 1250 300 1250 300 1150 c 2,19,-1
 300 900 l 1,0,-1
EndSplineSet
EndChar

StartChar: F
Encoding: 70 70 41
Width: 750
GlyphClass: 2
Flags: W
LayerCount: 2
Fore
SplineSet
300 900 m 1,0,-1
 550 900 l 1,1,-1
 550 750 l 1,2,-1
 300 750 l 1,3,-1
 300 0 l 1,4,-1
 100 0 l 1,5,-1
 100 1150 l 2,6,7
 100 1400 100 1400 350 1400 c 2,8,-1
 650 1400 l 1,9,-1
 650 1250 l 1,10,-1
 400 1250 l 2,11,12
 300 1250 300 1250 300 1150 c 2,13,-1
 300 900 l 1,0,-1
EndSplineSet
EndChar

StartChar: G
Encoding: 71 71 42
Width: 900
GlyphClass: 2
Flags: W
LayerCount: 2
Fore
SplineSet
800 900 m 1,0,-1
 800 0 l 1,1,-1
 700 0 l 1,2,-1
 650 100 l 1,3,-1
 600 0 l 1,4,-1
 350 0 l 2,5,6
 100 0 100 0 100 250 c 2,7,-1
 100 1150 l 2,8,9
 100 1400 100 1400 350 1400 c 2,10,-1
 700 1400 l 1,11,-1
 700 1250 l 1,12,-1
 400 1250 l 2,13,14
 300 1250 300 1250 300 1150 c 2,15,-1
 300 250 l 2,16,17
 300 150 300 150 400 150 c 2,18,-1
 600 150 l 1,19,-1
 600 750 l 1,20,-1
 450 750 l 1,21,-1
 450 900 l 1,22,-1
 800 900 l 1,0,-1
EndSplineSet
EndChar

StartChar: H
Encoding: 72 72 43
Width: 900
GlyphClass: 2
Flags: W
LayerCount: 2
Fore
SplineSet
300 1400 m 1,0,-1
 300 900 l 1,1,-1
 600 900 l 1,2,-1
 600 1400 l 1,3,-1
 800 1400 l 1,4,-1
 800 0 l 1,5,-1
 600 0 l 1,6,-1
 600 750 l 1,7,-1
 300 750 l 1,8,-1
 300 0 l 1,9,-1
 100 0 l 1,10,-1
 100 1400 l 1,11,-1
 300 1400 l 1,0,-1
EndSplineSet
EndChar

StartChar: I
Encoding: 73 73 44
Width: 700
GlyphClass: 2
Flags: W
LayerCount: 2
Fore
SplineSet
600 1400 m 1,0,-1
 600 1250 l 1,1,-1
 450 1250 l 1,2,-1
 450 150 l 1,3,-1
 600 150 l 1,4,-1
 600 0 l 1,5,-1
 100 0 l 1,6,-1
 100 150 l 1,7,-1
 250 150 l 1,8,-1
 250 1250 l 1,9,-1
 100 1250 l 1,10,-1
 100 1400 l 1,11,-1
 600 1400 l 1,0,-1
EndSplineSet
EndChar

StartChar: J
Encoding: 74 74 45
Width: 700
GlyphClass: 2
Flags: W
LayerCount: 2
Fore
SplineSet
400 1250 m 1,0,-1
 200 1250 l 1,1,-1
 200 1400 l 1,2,-1
 600 1400 l 1,3,-1
 600 250 l 2,4,5
 600 0 600 0 350 0 c 2,6,-1
 100 0 l 1,7,-1
 100 150 l 1,8,-1
 300 150 l 2,9,10
 400 150 400 150 400 250 c 2,11,-1
 400 1250 l 1,0,-1
EndSplineSet
EndChar

StartChar: K
Encoding: 75 75 46
Width: 900
GlyphClass: 2
Flags: W
LayerCount: 2
Fore
SplineSet
300 1400 m 1,0,-1
 300 900 l 1,1,-1
 400 900 l 1,2,-1
 600 1400 l 1,3,-1
 800 1400 l 1,4,-1
 597 897 l 1,5,6
 800 875 800 875 800 650 c 2,7,-1
 800 0 l 1,8,-1
 600 0 l 1,9,-1
 600 650 l 2,10,11
 600 750 600 750 500 750 c 2,12,-1
 300 750 l 1,13,-1
 300 0 l 1,14,-1
 100 0 l 1,15,-1
 100 1400 l 1,16,-1
 300 1400 l 1,0,-1
EndSplineSet
EndChar

StartChar: L
Encoding: 76 76 47
Width: 800
GlyphClass: 2
Flags: W
LayerCount: 2
Fore
SplineSet
300 250 m 2,0,1
 300 150 300 150 400 150 c 2,2,-1
 700 150 l 1,3,-1
 700 0 l 1,4,-1
 350 0 l 2,5,6
 100 0 100 0 100 250 c 2,7,-1
 100 1400 l 1,8,-1
 300 1400 l 1,9,-1
 300 250 l 2,0,1
EndSplineSet
EndChar

StartChar: M
Encoding: 77 77 48
Width: 1200
GlyphClass: 2
Flags: W
LayerCount: 2
Fore
SplineSet
1100 0 m 1,0,-1
 900 0 l 1,1,-1
 900 1010 l 1,2,-1
 720 200 l 1,3,-1
 480 200 l 1,4,-1
 300 1010 l 1,5,-1
 300 0 l 1,6,-1
 100 0 l 1,7,-1
 100 1400 l 1,8,-1
 400 1400 l 1,9,-1
 600 500 l 1,10,-1
 800 1400 l 1,11,-1
 1100 1400 l 1,12,-1
 1100 0 l 1,0,-1
EndSplineSet
EndChar

StartChar: N
Encoding: 78 78 49
Width: 900
GlyphClass: 2
Flags: W
LayerCount: 2
Fore
SplineSet
600 512 m 1,0,-1
 600 1400 l 1,1,-1
 800 1400 l 1,2,-1
 800 0 l 1,3,-1
 570 0 l 1,4,-1
 300 922 l 1,5,-1
 300 0 l 1,6,-1
 100 0 l 1,7,-1
 100 1400 l 1,8,-1
 340 1400 l 1,9,-1
 600 512 l 1,0,-1
EndSplineSet
EndChar

StartChar: O
Encoding: 79 79 50
Width: 900
GlyphClass: 2
Flags: W
LayerCount: 2
Fore
SplineSet
100 1150 m 2,0,1
 100 1400 100 1400 350 1400 c 2,2,-1
 550 1400 l 2,3,4
 800 1400 800 1400 800 1150 c 2,5,-1
 800 250 l 2,6,7
 800 0 800 0 550 0 c 2,8,-1
 350 0 l 2,9,10
 100 0 100 0 100 250 c 2,11,-1
 100 1150 l 2,0,1
600 1150 m 2,12,13
 600 1247 600 1247 505 1250 c 2,14,-1
 395 1250 l 2,15,16
 300 1247 300 1247 300 1150 c 2,17,-1
 300 250 l 2,18,19
 300 150 300 150 400 150 c 2,20,-1
 500 150 l 2,21,22
 600 150 600 150 600 250 c 2,23,-1
 600 1150 l 2,12,13
EndSplineSet
EndChar

StartChar: P
Encoding: 80 80 51
Width: 900
GlyphClass: 2
Flags: W
LayerCount: 2
Fore
SplineSet
550 1400 m 2,0,1
 800 1400 800 1400 800 1150 c 2,2,-1
 800 650 l 2,3,4
 800 400 800 400 549 400 c 2,5,-1
 299 400 l 1,6,-1
 300 0 l 1,7,-1
 100 0 l 1,8,-1
 100 1400 l 1,9,-1
 550 1400 l 2,0,1
300 1250 m 1,10,-1
 300 550 l 1,11,-1
 500 550 l 2,12,13
 600 550 600 550 600 650 c 2,14,-1
 600 1150 l 2,15,16
 600 1250 600 1250 500 1250 c 2,17,-1
 300 1250 l 1,10,-1
EndSplineSet
EndChar

StartChar: Q
Encoding: 81 81 52
Width: 900
GlyphClass: 2
Flags: W
LayerCount: 2
Fore
SplineSet
430 0 m 1,0,-1
 350 0 l 2,1,2
 100 0 100 0 100 250 c 2,3,-1
 100 1150 l 2,4,5
 100 1400 100 1400 350 1400 c 2,6,-1
 550 1400 l 2,7,8
 800 1400 800 1400 800 1150 c 2,9,-1
 800 250 l 2,10,11
 800 42 800 42 628 7 c 1,12,-1
 675 -150 l 1,13,-1
 800 -150 l 1,14,-1
 800 -300 l 1,15,-1
 521 -300 l 1,16,-1
 430 0 l 1,0,-1
600 1150 m 2,17,18
 600 1250 600 1250 500 1250 c 2,19,-1
 395 1250 l 2,20,21
 300 1247 300 1247 300 1150 c 2,22,-1
 300 250 l 2,23,24
 300 150 300 150 400 150 c 2,25,-1
 509 150 l 1,26,27
 600 155 600 155 600 250 c 2,28,-1
 600 1150 l 2,17,18
EndSplineSet
EndChar

StartChar: R
Encoding: 82 82 53
Width: 900
GlyphClass: 2
Flags: W
LayerCount: 2
Fore
SplineSet
550 1400 m 2,0,1
 800 1400 800 1400 800 1150 c 2,2,-1
 800 650 l 2,3,4
 800 472 800 472 673 421 c 1,5,-1
 800 0 l 1,6,-1
 600 0 l 1,7,-1
 480 400 l 1,8,-1
 299 400 l 1,9,-1
 300 0 l 1,10,-1
 100 0 l 1,11,-1
 100 1400 l 1,12,-1
 550 1400 l 2,0,1
300 1250 m 1,13,-1
 300 550 l 1,14,-1
 500 550 l 2,15,16
 600 550 600 550 600 650 c 2,17,-1
 600 1150 l 2,18,19
 600 1250 600 1250 500 1250 c 2,20,-1
 300 1250 l 1,13,-1
EndSplineSet
EndChar

StartChar: S
Encoding: 83 83 54
Width: 850
GlyphClass: 2
Flags: W
LayerCount: 2
Fore
SplineSet
525 250 m 2,0,1
 525 0 525 0 275 0 c 2,2,-1
 100 0 l 1,3,-1
 100 150 l 1,4,-1
 225 150 l 2,5,6
 325 150 325 150 325 250 c 2,7,-1
 325 1150 l 2,8,9
 325 1400 325 1400 575 1400 c 2,10,-1
 750 1400 l 1,11,-1
 750 1250 l 1,12,-1
 625 1250 l 2,13,14
 525 1250 525 1250 525 1150 c 2,15,-1
 525 250 l 2,0,1
EndSplineSet
EndChar

StartChar: T
Encoding: 84 84 55
Width: 900
GlyphClass: 2
Flags: W
LayerCount: 2
Fore
SplineSet
800 1400 m 1,0,-1
 800 1250 l 1,1,-1
 550 1250 l 1,2,-1
 550 0 l 1,3,-1
 350 0 l 1,4,-1
 350 1250 l 1,5,-1
 100 1250 l 1,6,-1
 100 1400 l 1,7,-1
 800 1400 l 1,0,-1
EndSplineSet
EndChar

StartChar: U
Encoding: 85 85 56
Width: 900
GlyphClass: 2
Flags: W
LayerCount: 2
Fore
SplineSet
600 1400 m 1,0,-1
 800 1400 l 1,1,-1
 800 250 l 2,2,3
 800 0 800 0 550 0 c 2,4,-1
 350 0 l 2,5,6
 100 0 100 0 100 250 c 2,7,-1
 100 1400 l 1,8,-1
 300 1400 l 1,9,-1
 300 250 l 2,10,11
 300 155 300 155 390 150 c 1,12,-1
 500 150 l 2,13,14
 600 150 600 150 600 250 c 2,15,-1
 600 1400 l 1,0,-1
EndSplineSet
EndChar

StartChar: V
Encoding: 86 86 57
Width: 890
GlyphClass: 2
Flags: W
LayerCount: 2
Fore
SplineSet
280 0 m 1,0,-1
 50 1400 l 1,1,-1
 240 1400 l 1,2,-1
 445 153 l 1,3,-1
 650 1400 l 1,4,-1
 840 1400 l 1,5,-1
 610 0 l 1,6,-1
 280 0 l 1,0,-1
EndSplineSet
EndChar

StartChar: W
Encoding: 87 87 58
Width: 1440
GlyphClass: 2
Flags: W
LayerCount: 2
Fore
SplineSet
270 0 m 1,0,-1
 50 1400 l 1,1,-1
 240 1400 l 1,2,-1
 410 318 l 1,3,-1
 580 1400 l 1,4,-1
 860 1400 l 1,5,-1
 1030 318 l 1,6,-1
 1200 1400 l 1,7,-1
 1390 1400 l 1,8,-1
 1170 0 l 1,9,-1
 890 0 l 1,10,-1
 720 1082 l 1,11,-1
 550 0 l 1,12,-1
 270 0 l 1,0,-1
EndSplineSet
EndChar

StartChar: X
Encoding: 88 88 59
Width: 850
GlyphClass: 2
Flags: W
LayerCount: 2
Fore
SplineSet
800 1400 m 1,0,-1
 525 700 l 1,1,-1
 800 0 l 1,2,-1
 600 0 l 1,3,-1
 425 445 l 1,4,-1
 250 0 l 1,5,-1
 50 0 l 1,6,-1
 325 700 l 1,7,-1
 50 1400 l 1,8,-1
 250 1400 l 1,9,-1
 425 954 l 1,10,-1
 600 1400 l 1,11,-1
 800 1400 l 1,0,-1
EndSplineSet
EndChar

StartChar: Y
Encoding: 89 89 60
Width: 900
GlyphClass: 2
Flags: W
LayerCount: 2
Fore
SplineSet
600 1400 m 1,0,-1
 800 1400 l 1,1,-1
 800 650 l 2,2,3
 800 400 800 400 550 400 c 1,4,-1
 550 0 l 1,5,-1
 350 0 l 1,6,-1
 350 400 l 1,7,8
 100 400 100 400 100 650 c 2,9,-1
 100 1400 l 1,10,-1
 300 1400 l 1,11,-1
 300 650 l 2,12,13
 300 550 300 550 400 550 c 2,14,-1
 509 550 l 1,15,16
 600 555 600 555 600 650 c 2,17,-1
 600 1400 l 1,0,-1
EndSplineSet
EndChar

StartChar: Z
Encoding: 90 90 61
Width: 900
GlyphClass: 2
Flags: W
LayerCount: 2
Fore
SplineSet
800 1400 m 1,0,-1
 800 1269 l 1,1,-1
 315 150 l 1,2,-1
 800 150 l 1,3,-1
 800 0 l 1,4,-1
 100 0 l 1,5,-1
 100 127 l 1,6,-1
 585 1250 l 1,7,-1
 150 1250 l 1,8,-1
 150 1400 l 1,9,-1
 800 1400 l 1,0,-1
EndSplineSet
EndChar

StartChar: bracketleft
Encoding: 91 91 62
Width: 550
GlyphClass: 2
Flags: W
LayerCount: 2
Fore
SplineSet
300 150 m 1,0,-1
 450 150 l 1,1,-1
 450 0 l 1,2,-1
 100 0 l 1,3,-1
 100 1400 l 1,4,-1
 450 1400 l 1,5,-1
 450 1250 l 1,6,-1
 300 1250 l 1,7,-1
 300 150 l 1,0,-1
EndSplineSet
EndChar

StartChar: backslash
Encoding: 92 92 63
Width: 920
GlyphClass: 2
Flags: W
LayerCount: 2
Fore
SplineSet
260 1400 m 1,0,-1
 820 0 l 1,1,-1
 660 0 l 1,2,-1
 100 1400 l 1,3,-1
 260 1400 l 1,0,-1
EndSplineSet
EndChar

StartChar: bracketright
Encoding: 93 93 64
Width: 550
GlyphClass: 2
Flags: W
LayerCount: 2
Fore
SplineSet
250 1250 m 1,0,-1
 100 1250 l 1,1,-1
 100 1400 l 1,2,-1
 450 1400 l 1,3,-1
 450 0 l 1,4,-1
 100 0 l 1,5,-1
 100 150 l 1,6,-1
 250 150 l 1,7,-1
 250 1250 l 1,0,-1
EndSplineSet
EndChar

StartChar: asciicircum
Encoding: 94 94 65
Width: 1050
GlyphClass: 2
Flags: W
LayerCount: 2
Fore
SplineSet
100 900 m 1,0,-1
 435 1400 l 1,1,-1
 615 1400 l 1,2,-1
 950 900 l 1,3,-1
 770 900 l 1,4,-1
 525 1265 l 1,5,-1
 280 900 l 1,6,-1
 100 900 l 1,0,-1
EndSplineSet
EndChar

StartChar: underscore
Encoding: 95 95 66
Width: 800
GlyphClass: 2
Flags: W
LayerCount: 2
Fore
SplineSet
800 -350 m 1,0,-1
 800 -500 l 1,1,-1
 0 -500 l 1,2,-1
 0 -350 l 1,3,-1
 800 -350 l 1,0,-1
EndSplineSet
EndChar

StartChar: grave
Encoding: 96 96 67
Width: 550
GlyphClass: 2
Flags: W
LayerCount: 2
Fore
SplineSet
300 1100 m 1,0,-1
 100 1400 l 1,1,-1
 325 1400 l 1,2,-1
 450 1100 l 1,3,-1
 300 1100 l 1,0,-1
EndSplineSet
EndChar

StartChar: a
Encoding: 97 97 68
Width: 850
GlyphClass: 2
Flags: W
LayerCount: 2
Fore
SplineSet
550 650 m 2,0,1
 550 750 550 750 450 750 c 2,2,-1
 200 750 l 1,3,-1
 200 900 l 1,4,-1
 500 900 l 2,5,6
 750 900 750 900 750 650 c 2,7,-1
 750 0 l 1,8,-1
 650 0 l 1,9,-1
 600 100 l 1,10,-1
 550 0 l 1,11,-1
 350 0 l 2,12,13
 100 0 100 0 100 250 c 2,14,-1
 100 350 l 2,15,16
 100 600 100 600 350 600 c 2,17,-1
 550 600 l 1,18,-1
 550 650 l 2,0,1
400 450 m 2,19,20
 300 450 300 450 300 350 c 2,21,-1
 300 250 l 2,22,23
 300 150 300 150 400 150 c 2,24,-1
 550 150 l 1,25,-1
 550 450 l 1,26,-1
 400 450 l 2,19,20
EndSplineSet
EndChar

StartChar: b
Encoding: 98 98 69
Width: 850
GlyphClass: 2
Flags: W
LayerCount: 2
Fore
SplineSet
300 1400 m 1,0,-1
 300 900 l 1,1,-1
 500 900 l 2,2,3
 750 900 750 900 750 650 c 2,4,-1
 750 250 l 2,5,6
 750 0 750 0 500 0 c 2,7,-1
 300 0 l 1,8,-1
 250 100 l 1,9,-1
 200 0 l 1,10,-1
 100 0 l 1,11,-1
 100 1400 l 1,12,-1
 300 1400 l 1,0,-1
300 150 m 1,13,-1
 450 150 l 2,14,15
 550 150 550 150 550 250 c 2,16,-1
 550 650 l 2,17,18
 550 750 550 750 450 750 c 2,19,-1
 300 750 l 1,20,-1
 300 150 l 1,13,-1
EndSplineSet
EndChar

StartChar: c
Encoding: 99 99 70
Width: 750
GlyphClass: 2
Flags: W
LayerCount: 2
Fore
SplineSet
300 250 m 2,0,1
 300 150 300 150 400 150 c 2,2,-1
 650 150 l 1,3,-1
 650 0 l 1,4,-1
 350 0 l 2,5,6
 100 0 100 0 100 250 c 2,7,-1
 100 650 l 2,8,9
 100 900 100 900 350 900 c 2,10,-1
 600 900 l 1,11,-1
 600 750 l 1,12,-1
 400 750 l 2,13,14
 300 750 300 750 300 650 c 2,15,-1
 300 250 l 2,0,1
EndSplineSet
EndChar

StartChar: d
Encoding: 100 100 71
Width: 850
GlyphClass: 2
Flags: W
LayerCount: 2
Fore
SplineSet
350 0 m 2,0,1
 100 0 100 0 100 250 c 2,2,-1
 100 650 l 2,3,4
 100 900 100 900 350 900 c 2,5,-1
 550 900 l 1,6,-1
 550 1400 l 1,7,-1
 750 1400 l 1,8,-1
 750 0 l 1,9,-1
 650 0 l 1,10,-1
 600 100 l 1,11,-1
 550 0 l 1,12,-1
 350 0 l 2,0,1
550 150 m 1,13,-1
 550 750 l 1,14,-1
 400 750 l 2,15,16
 300 750 300 750 300 650 c 2,17,-1
 300 250 l 2,18,19
 300 150 300 150 400 150 c 2,20,-1
 550 150 l 1,13,-1
EndSplineSet
EndChar

StartChar: e
Encoding: 101 101 72
Width: 850
GlyphClass: 2
Flags: W
LayerCount: 2
Fore
SplineSet
500 900 m 2,0,1
 750 900 750 900 750 650 c 2,2,-1
 750 350 l 1,3,-1
 300 350 l 1,4,-1
 300 250 l 2,5,6
 300 150 300 150 400 150 c 2,7,-1
 700 150 l 1,8,-1
 700 0 l 1,9,-1
 350 0 l 2,10,11
 100 0 100 0 100 250 c 2,12,-1
 100 650 l 2,13,14
 100 900 100 900 350 900 c 2,15,-1
 500 900 l 2,0,1
300 500 m 1,16,-1
 550 500 l 1,17,-1
 550 650 l 2,18,19
 550 750 550 750 450 750 c 2,20,-1
 400 750 l 2,21,22
 300 750 300 750 300 650 c 2,23,-1
 300 500 l 1,16,-1
EndSplineSet
EndChar

StartChar: f
Encoding: 102 102 73
Width: 600
GlyphClass: 2
Flags: W
LayerCount: 2
Fore
SplineSet
300 900 m 1,0,-1
 500 900 l 1,1,-1
 500 750 l 1,2,-1
 300 750 l 1,3,-1
 300 0 l 1,4,-1
 100 0 l 1,5,-1
 100 750 l 1,6,-1
 0 750 l 1,7,-1
 0 900 l 1,8,-1
 100 900 l 1,9,-1
 100 1150 l 2,10,11
 100 1400 100 1400 350 1400 c 2,12,-1
 475 1400 l 1,13,-1
 475 1250 l 1,14,-1
 400 1250 l 2,15,16
 300 1250 300 1250 300 1150 c 2,17,-1
 300 900 l 1,0,-1
EndSplineSet
EndChar

StartChar: g
Encoding: 103 103 74
Width: 850
GlyphClass: 2
Flags: W
LayerCount: 2
Fore
SplineSet
200 -500 m 1,0,-1
 200 -350 l 1,1,-1
 450 -350 l 2,2,3
 550 -350 550 -350 550 -250 c 2,4,-1
 550 0 l 1,5,-1
 350 0 l 2,6,7
 100 0 100 0 100 250 c 2,8,-1
 100 650 l 2,9,10
 100 900 100 900 350 900 c 2,11,-1
 550 900 l 1,12,-1
 600 800 l 1,13,-1
 650 900 l 1,14,-1
 750 900 l 1,15,-1
 750 -250 l 2,16,17
 750 -500 750 -500 500 -500 c 2,18,-1
 200 -500 l 1,0,-1
550 750 m 1,19,-1
 400 750 l 2,20,21
 300 750 300 750 300 650 c 2,22,-1
 300 250 l 2,23,24
 300 150 300 150 400 150 c 2,25,-1
 550 150 l 1,26,-1
 550 750 l 1,19,-1
EndSplineSet
EndChar

StartChar: h
Encoding: 104 104 75
Width: 850
GlyphClass: 2
Flags: W
LayerCount: 2
Fore
SplineSet
300 1400 m 1,0,-1
 300 900 l 1,1,-1
 500 900 l 2,2,3
 750 900 750 900 750 650 c 2,4,-1
 750 0 l 1,5,-1
 550 0 l 1,6,-1
 550 650 l 2,7,8
 550 750 550 750 450 750 c 2,9,-1
 300 750 l 1,10,-1
 300 0 l 1,11,-1
 100 0 l 1,12,-1
 100 1400 l 1,13,-1
 300 1400 l 1,0,-1
EndSplineSet
EndChar

StartChar: i
Encoding: 105 105 76
Width: 600
GlyphClass: 2
Flags: W
LayerCount: 2
Fore
SplineSet
400 900 m 1,0,-1
 400 0 l 1,1,-1
 200 0 l 1,2,-1
 200 750 l 1,3,-1
 100 750 l 1,4,-1
 100 900 l 1,5,-1
 400 900 l 1,0,-1
400 1300 m 1,6,-1
 400 1100 l 1,7,-1
 200 1100 l 1,8,-1
 200 1300 l 1,9,-1
 400 1300 l 1,6,-1
EndSplineSet
EndChar

StartChar: j
Encoding: 106 106 77
Width: 600
GlyphClass: 2
Flags: W
LayerCount: 2
Fore
SplineSet
0 -400 m 1,0,-1
 0 -250 l 1,1,-1
 100 -250 l 2,2,3
 200 -250 200 -250 200 -150 c 2,4,-1
 200 750 l 1,5,-1
 100 750 l 1,6,-1
 100 900 l 1,7,-1
 400 900 l 1,8,-1
 400 -150 l 2,9,10
 400 -400 400 -400 150 -400 c 2,11,-1
 0 -400 l 1,0,-1
400 1300 m 1,12,-1
 400 1100 l 1,13,-1
 200 1100 l 1,14,-1
 200 1300 l 1,15,-1
 400 1300 l 1,12,-1
EndSplineSet
EndChar

StartChar: k
Encoding: 107 107 78
Width: 860
GlyphClass: 2
Flags: W
LayerCount: 2
Fore
SplineSet
300 1400 m 1,0,-1
 300 600 l 1,1,-1
 432 600 l 1,2,-1
 560 900 l 1,3,-1
 760 900 l 1,4,-1
 623 579 l 1,5,6
 750 528 750 528 750 350 c 2,7,-1
 750 0 l 1,8,-1
 550 0 l 1,9,-1
 550 350 l 2,10,11
 550 450 550 450 450 450 c 2,12,-1
 300 450 l 1,13,-1
 300 0 l 1,14,-1
 100 0 l 1,15,-1
 100 1400 l 1,16,-1
 300 1400 l 1,0,-1
EndSplineSet
EndChar

StartChar: l
Encoding: 108 108 79
Width: 600
GlyphClass: 2
Flags: W
LayerCount: 2
Fore
SplineSet
400 1400 m 1,0,-1
 400 0 l 1,1,-1
 200 0 l 1,2,-1
 200 1250 l 1,3,-1
 100 1250 l 1,4,-1
 100 1400 l 1,5,-1
 400 1400 l 1,0,-1
EndSplineSet
EndChar

StartChar: m
Encoding: 109 109 80
Width: 1300
GlyphClass: 2
Flags: W
LayerCount: 2
Fore
SplineSet
550 0 m 1,0,-1
 550 650 l 2,1,2
 550 750 550 750 450 750 c 2,3,-1
 300 750 l 1,4,-1
 300 0 l 1,5,-1
 100 0 l 1,6,-1
 100 900 l 1,7,-1
 200 900 l 1,8,-1
 250 800 l 1,9,-1
 300 900 l 1,10,-1
 500 900 l 2,11,12
 646 900 646 900 707 814 c 1,13,-1
 750 900 l 1,14,-1
 950 900 l 2,15,16
 1200 900 1200 900 1200 650 c 2,17,-1
 1200 0 l 1,18,-1
 1000 0 l 1,19,-1
 1000 650 l 2,20,21
 1000 750 1000 750 900 750 c 2,22,-1
 737 750 l 1,23,24
 750 706 750 706 750 650 c 2,25,-1
 750 0 l 1,26,-1
 550 0 l 1,0,-1
EndSplineSet
EndChar

StartChar: n
Encoding: 110 110 81
Width: 850
GlyphClass: 2
Flags: W
LayerCount: 2
Fore
SplineSet
100 0 m 1,0,-1
 100 900 l 1,1,-1
 200 900 l 1,2,-1
 250 800 l 1,3,-1
 300 900 l 1,4,-1
 500 900 l 2,5,6
 750 900 750 900 750 650 c 2,7,-1
 750 0 l 1,8,-1
 550 0 l 1,9,-1
 550 650 l 2,10,11
 550 750 550 750 450 750 c 2,12,-1
 300 750 l 1,13,-1
 300 0 l 1,14,-1
 100 0 l 1,0,-1
EndSplineSet
EndChar

StartChar: o
Encoding: 111 111 82
Width: 850
GlyphClass: 2
Flags: W
LayerCount: 2
Fore
SplineSet
100 650 m 2,0,1
 100 900 100 900 350 900 c 2,2,-1
 500 900 l 2,3,4
 750 900 750 900 750 650 c 2,5,-1
 750 250 l 2,6,7
 750 0 750 0 500 0 c 2,8,-1
 350 0 l 2,9,10
 100 0 100 0 100 250 c 2,11,-1
 100 650 l 2,0,1
550 650 m 2,12,13
 550 750 550 750 450 750 c 2,14,-1
 400 750 l 2,15,16
 300 750 300 750 300 650 c 2,17,-1
 300 250 l 2,18,19
 300 155 300 155 390 150 c 1,20,-1
 459 150 l 1,21,22
 550 155 550 155 550 250 c 2,23,-1
 550 650 l 2,12,13
EndSplineSet
EndChar

StartChar: p
Encoding: 112 112 83
Width: 850
GlyphClass: 2
Flags: W
LayerCount: 2
Fore
SplineSet
100 -500 m 1,0,-1
 100 900 l 1,1,-1
 200 900 l 1,2,-1
 250 800 l 1,3,-1
 300 900 l 1,4,-1
 500 900 l 2,5,6
 750 900 750 900 750 650 c 2,7,-1
 750 250 l 2,8,9
 750 0 750 0 500 0 c 2,10,-1
 300 0 l 1,11,-1
 300 -500 l 1,12,-1
 100 -500 l 1,0,-1
300 750 m 1,13,-1
 300 150 l 1,14,-1
 450 150 l 2,15,16
 550 150 550 150 550 250 c 2,17,-1
 550 650 l 2,18,19
 550 750 550 750 450 750 c 2,20,-1
 300 750 l 1,13,-1
EndSplineSet
EndChar

StartChar: q
Encoding: 113 113 84
Width: 850
GlyphClass: 2
Flags: W
LayerCount: 2
Fore
SplineSet
550 -500 m 1,0,-1
 550 0 l 1,1,-1
 350 0 l 2,2,3
 100 0 100 0 100 250 c 2,4,-1
 100 650 l 2,5,6
 100 900 100 900 350 900 c 2,7,-1
 550 900 l 1,8,-1
 600 800 l 1,9,-1
 650 900 l 1,10,-1
 750 900 l 1,11,-1
 750 -500 l 1,12,-1
 550 -500 l 1,0,-1
550 750 m 1,13,-1
 400 750 l 2,14,15
 300 750 300 750 300 650 c 2,16,-1
 300 250 l 2,17,18
 300 150 300 150 400 150 c 2,19,-1
 550 150 l 1,20,-1
 550 750 l 1,13,-1
EndSplineSet
EndChar

StartChar: r
Encoding: 114 114 85
Width: 600
GlyphClass: 2
Flags: W
LayerCount: 2
Fore
SplineSet
300 0 m 1,0,-1
 100 0 l 1,1,-1
 100 650 l 2,2,3
 100 900 100 900 350 900 c 2,4,-1
 500 900 l 1,5,-1
 500 750 l 1,6,-1
 400 750 l 2,7,8
 300 750 300 750 300 650 c 2,9,-1
 300 0 l 1,0,-1
EndSplineSet
EndChar

StartChar: s
Encoding: 115 115 86
Width: 750
GlyphClass: 2
Flags: W
LayerCount: 2
Fore
SplineSet
475 250 m 2,0,1
 475 0 475 0 225 0 c 2,2,-1
 100 0 l 1,3,-1
 100 150 l 1,4,-1
 175 150 l 2,5,6
 275 150 275 150 275 250 c 2,7,-1
 275 650 l 2,8,9
 275 900 275 900 525 900 c 2,10,-1
 650 900 l 1,11,-1
 650 750 l 1,12,-1
 575 750 l 2,13,14
 475 750 475 750 475 650 c 2,15,-1
 475 250 l 2,0,1
EndSplineSet
EndChar

StartChar: t
Encoding: 116 116 87
Width: 600
GlyphClass: 2
Flags: W
LayerCount: 2
Fore
SplineSet
300 900 m 1,0,-1
 500 900 l 1,1,-1
 500 750 l 1,2,-1
 300 750 l 1,3,-1
 300 250 l 2,4,5
 300 150 300 150 400 150 c 2,6,-1
 475 150 l 1,7,-1
 475 0 l 1,8,-1
 350 0 l 2,9,10
 100 0 100 0 100 250 c 2,11,-1
 100 750 l 1,12,-1
 0 750 l 1,13,-1
 0 900 l 1,14,-1
 100 900 l 1,15,-1
 100 1200 l 1,16,-1
 300 1300 l 1,17,-1
 300 900 l 1,0,-1
EndSplineSet
EndChar

StartChar: u
Encoding: 117 117 88
Width: 850
GlyphClass: 2
Flags: W
LayerCount: 2
Fore
SplineSet
300 900 m 1,0,-1
 300 250 l 2,1,2
 300 150 300 150 400 150 c 2,3,-1
 550 150 l 1,4,-1
 550 900 l 1,5,-1
 750 900 l 1,6,-1
 750 0 l 1,7,-1
 650 0 l 1,8,-1
 600 100 l 1,9,-1
 550 0 l 1,10,-1
 350 0 l 2,11,12
 100 0 100 0 100 250 c 2,13,-1
 100 900 l 1,14,-1
 300 900 l 1,0,-1
EndSplineSet
EndChar

StartChar: v
Encoding: 118 118 89
Width: 830
GlyphClass: 2
Flags: W
LayerCount: 2
Fore
SplineSet
780 900 m 1,0,-1
 565 0 l 1,1,-1
 264 0 l 1,2,-1
 50 900 l 1,3,-1
 240 900 l 1,4,-1
 415 165 l 1,5,-1
 590 900 l 1,6,-1
 780 900 l 1,0,-1
EndSplineSet
EndChar

StartChar: w
Encoding: 119 119 90
Width: 1240
GlyphClass: 2
Flags: W
LayerCount: 2
Fore
SplineSet
220 0 m 1,0,-1
 50 900 l 1,1,-1
 230 900 l 1,2,-1
 360 212 l 1,3,-1
 490 900 l 1,4,-1
 750 900 l 1,5,-1
 880 212 l 1,6,-1
 1010 900 l 1,7,-1
 1190 900 l 1,8,-1
 1020 0 l 1,9,-1
 740 0 l 1,10,-1
 620 635 l 1,11,-1
 500 0 l 1,12,-1
 220 0 l 1,0,-1
EndSplineSet
EndChar

StartChar: x
Encoding: 120 120 91
Width: 900
GlyphClass: 2
Flags: W
LayerCount: 2
Fore
SplineSet
800 900 m 1,0,-1
 550 450 l 1,1,-1
 800 0 l 1,2,-1
 600 0 l 1,3,-1
 450 270 l 1,4,-1
 300 0 l 1,5,-1
 100 0 l 1,6,-1
 350 450 l 1,7,-1
 100 900 l 1,8,-1
 300 900 l 1,9,-1
 450 630 l 1,10,-1
 600 900 l 1,11,-1
 800 900 l 1,0,-1
EndSplineSet
EndChar

StartChar: y
Encoding: 121 121 92
Width: 850
GlyphClass: 2
Flags: W
LayerCount: 2
Fore
SplineSet
200 -500 m 1,0,-1
 200 -350 l 1,1,-1
 450 -350 l 2,2,3
 550 -350 550 -350 550 -250 c 2,4,-1
 550 0 l 1,5,-1
 350 0 l 2,6,7
 100 0 100 0 100 250 c 2,8,-1
 100 900 l 1,9,-1
 300 900 l 1,10,-1
 300 250 l 2,11,12
 300 150 300 150 400 150 c 2,13,-1
 550 150 l 1,14,-1
 550 900 l 1,15,-1
 750 900 l 1,16,-1
 750 -250 l 2,17,18
 750 -500 750 -500 500 -500 c 2,19,-1
 200 -500 l 1,0,-1
EndSplineSet
EndChar

StartChar: z
Encoding: 122 122 93
Width: 800
GlyphClass: 2
Flags: W
LayerCount: 2
Fore
SplineSet
700 900 m 1,0,-1
 700 769 l 1,1,-1
 321 150 l 1,2,-1
 700 150 l 1,3,-1
 700 0 l 1,4,-1
 100 0 l 1,5,-1
 100 127 l 1,6,-1
 479 750 l 1,7,-1
 150 750 l 1,8,-1
 150 900 l 1,9,-1
 700 900 l 1,0,-1
EndSplineSet
EndChar

StartChar: braceleft
Encoding: 123 123 94
Width: 703
GlyphClass: 2
Flags: W
LayerCount: 2
Fore
SplineSet
253 649 m 2,0,1
 253 749 253 749 153 749 c 2,2,-1
 100 749 l 1,3,-1
 101 900 l 1,4,-1
 151 900 l 2,5,6
 251 900 251 900 251 1000 c 2,7,-1
 251 1150 l 2,8,9
 251 1400 251 1400 551 1400 c 2,10,-1
 601 1400 l 1,11,-1
 601 1250 l 1,12,-1
 551 1250 l 2,13,14
 451 1250 451 1250 451 1150 c 2,15,-1
 451 1000 l 2,16,17
 451 870 451 870 346 825 c 1,18,19
 453 779 453 779 453 649 c 2,20,-1
 453 249 l 2,21,22
 453 150 453 150 553 150 c 2,23,-1
 603 150 l 1,24,-1
 603 0 l 1,25,-1
 553 0 l 2,26,27
 253 0 253 0 253 249 c 2,28,-1
 253 649 l 2,0,1
EndSplineSet
EndChar

StartChar: bar
Encoding: 124 124 95
Width: 350
GlyphClass: 2
Flags: W
LayerCount: 2
Fore
SplineSet
250 1400 m 1,0,-1
 250 0 l 1,1,-1
 100 0 l 1,2,-1
 100 1400 l 1,3,-1
 250 1400 l 1,0,-1
EndSplineSet
EndChar

StartChar: braceright
Encoding: 125 125 96
Width: 703
GlyphClass: 2
Flags: W
LayerCount: 2
Fore
SplineSet
152 1400 m 2,0,1
 452 1400 452 1400 452 1150 c 2,2,-1
 452 1000 l 2,3,4
 452 900 452 900 552 900 c 2,5,-1
 602 900 l 1,6,-1
 603 749 l 1,7,-1
 550 749 l 2,8,9
 450 749 450 749 450 649 c 2,10,-1
 450 249 l 2,11,12
 450 0 450 0 150 0 c 2,13,-1
 100 0 l 1,14,-1
 100 150 l 1,15,-1
 150 150 l 2,16,17
 250 150 250 150 250 249 c 2,18,-1
 250 649 l 2,19,20
 250 779 250 779 357 825 c 1,21,22
 252 870 252 870 252 1000 c 2,23,-1
 252 1150 l 2,24,25
 252 1250 252 1250 152 1250 c 2,26,-1
 102 1250 l 1,27,-1
 102 1400 l 1,28,-1
 152 1400 l 2,0,1
EndSplineSet
EndChar

StartChar: asciitilde
Encoding: 126 126 97
Width: 1100
GlyphClass: 2
Flags: W
LayerCount: 2
Fore
SplineSet
100 550 m 1,0,1
 100 850 100 850 350 850 c 0,2,3
 450 850 450 850 560 775 c 0,4,5
 669 700 669 700 750 700 c 0,6,7
 850 700 850 700 850 850 c 1,8,-1
 1000 850 l 1,9,10
 1000 550 1000 550 750 550 c 0,11,12
 649 550 649 550 540 625 c 0,13,14
 430 700 430 700 350 700 c 0,15,16
 250 700 250 700 250 550 c 1,17,-1
 100 550 l 1,0,1
EndSplineSet
EndChar

StartChar: cent
Encoding: 162 162 100
Width: 750
GlyphClass: 2
Flags: W
LayerCount: 2
Fore
SplineSet
500 1400 m 1,0,-1
 500 1150 l 1,1,-1
 600 1150 l 1,2,-1
 600 1000 l 1,3,-1
 500 1000 l 1,4,-1
 500 400 l 1,5,-1
 650 400 l 1,6,-1
 650 250 l 1,7,-1
 500 250 l 1,8,-1
 500 0 l 1,9,-1
 400 0 l 1,10,-1
 400 250 l 1,11,-1
 350 250 l 2,12,13
 100 250 100 250 100 500 c 2,14,-1
 100 900 l 2,15,16
 100 1150 100 1150 350 1150 c 2,17,-1
 400 1150 l 1,18,-1
 400 1400 l 1,19,-1
 500 1400 l 1,0,-1
300 500 m 2,20,21
 300 400 300 400 400 400 c 1,22,-1
 400 1000 l 1,23,24
 300 1000 300 1000 300 900 c 2,25,-1
 300 500 l 2,20,21
EndSplineSet
EndChar

StartChar: sterling
Encoding: 163 163 101
Width: 900
GlyphClass: 2
Flags: W
LayerCount: 2
Fore
SplineSet
100 900 m 1,0,-1
 200 900 l 1,1,-1
 200 1174 l 2,2,3
 201 1186 201 1186 202 1197 c 0,4,5
 205 1225 205 1225 212 1250 c 0,6,7
 214 1255 214 1255 215 1259 c 0,8,9
 234 1315 234 1315 275 1349 c 0,10,11
 279 1352 279 1352 282 1355 c 0,12,13
 289 1360 289 1360 297 1365 c 0,14,15
 301 1367 301 1367 305 1369 c 0,16,17
 313 1374 313 1374 322 1377 c 0,18,19
 344 1387 344 1387 370 1392 c 0,20,21
 385 1395 385 1395 402 1397 c 0,22,23
 413 1398 413 1398 425 1399 c 0,24,25
 431 1399 431 1399 437 1400 c 2,26,-1
 750 1400 l 1,27,-1
 750 1250 l 1,28,-1
 495 1250 l 2,29,30
 485 1249 485 1249 476 1248 c 0,31,32
 468 1247 468 1247 460 1245 c 0,33,34
 456 1244 456 1244 452 1242 c 2,35,-1
 445 1239 l 2,36,37
 428 1231 428 1231 418 1217 c 2,38,-1
 414 1211 l 2,39,40
 413 1209 413 1209 412 1207 c 0,41,42
 409 1202 409 1202 407 1197 c 0,43,44
 407 1195 407 1195 406 1193 c 0,45,46
 404 1188 404 1188 403 1182 c 0,47,48
 401 1171 401 1171 400 1159 c 2,49,-1
 400 900 l 1,50,-1
 650 900 l 1,51,-1
 650 750 l 1,52,-1
 400 750 l 1,53,-1
 400 150 l 1,54,-1
 800 150 l 1,55,-1
 800 0 l 1,56,-1
 100 0 l 1,57,-1
 100 150 l 1,58,-1
 200 150 l 1,59,-1
 200 750 l 1,60,-1
 100 750 l 1,61,-1
 100 900 l 1,0,-1
EndSplineSet
EndChar

StartChar: yen
Encoding: 165 165 102
Width: 900
GlyphClass: 2
Flags: W
LayerCount: 2
Fore
SplineSet
750 75 m 1,0,-1
 550 75 l 1,1,-1
 550 0 l 1,2,-1
 350 0 l 1,3,-1
 350 75 l 1,4,-1
 150 75 l 1,5,-1
 150 175 l 1,6,-1
 350 175 l 1,7,-1
 350 250 l 1,8,-1
 150 250 l 1,9,-1
 150 350 l 1,10,-1
 350 350 l 1,11,-1
 350 400 l 1,12,13
 100 400 100 400 100 650 c 2,14,-1
 100 1400 l 1,15,-1
 300 1400 l 1,16,-1
 300 650 l 2,17,18
 300 550 300 550 400 550 c 2,19,-1
 509 550 l 1,20,21
 600 555 600 555 600 650 c 2,22,-1
 600 1400 l 1,23,-1
 800 1400 l 1,24,-1
 800 650 l 2,25,26
 800 400 800 400 550 400 c 1,27,-1
 550 350 l 1,28,-1
 750 350 l 1,29,-1
 750 250 l 1,30,-1
 550 250 l 1,31,-1
 550 175 l 1,32,-1
 750 175 l 1,33,-1
 750 75 l 1,0,-1
EndSplineSet
EndChar

StartChar: brokenbar
Encoding: 166 166 103
Width: 350
GlyphClass: 2
Flags: W
LayerCount: 2
Fore
SplineSet
250 1400 m 1,0,-1
 250 800 l 1,1,-1
 100 800 l 1,2,-1
 100 1400 l 1,3,-1
 250 1400 l 1,0,-1
250 600 m 1,4,-1
 250 0 l 1,5,-1
 100 0 l 1,6,-1
 100 600 l 1,7,-1
 250 600 l 1,4,-1
EndSplineSet
EndChar

StartChar: dieresis
Encoding: 168 168 104
Width: 800
GlyphClass: 2
Flags: W
LayerCount: 2
Fore
SplineSet
300 1400 m 1,0,-1
 300 1200 l 1,1,-1
 100 1200 l 1,2,-1
 100 1400 l 1,3,-1
 300 1400 l 1,0,-1
700 1400 m 1,4,-1
 700 1200 l 1,5,-1
 500 1200 l 1,6,-1
 500 1400 l 1,7,-1
 700 1400 l 1,4,-1
EndSplineSet
EndChar

StartChar: copyright
Encoding: 169 169 105
Width: 1600
GlyphClass: 2
Flags: W
LayerCount: 2
Fore
SplineSet
800 1400 m 256,0,1
 1090 1400 1090 1400 1295 1195 c 256,2,3
 1500 990 1500 990 1500 700 c 256,4,5
 1500 410 1500 410 1295 205 c 256,6,7
 1090 0 1090 0 800 0 c 256,8,9
 510 0 510 0 305 205 c 256,10,11
 100 410 100 410 100 700 c 256,12,13
 100 990 100 990 305 1195 c 256,14,15
 510 1400 510 1400 800 1400 c 256,0,1
1350 700 m 0,16,17
 1350 928 1350 928 1189 1089 c 256,18,19
 1028 1250 1028 1250 800 1250 c 0,20,21
 687 1250 687 1250 587 1206.5 c 128,-1,22
 487 1163 487 1163 412 1088 c 128,-1,23
 337 1013 337 1013 293.5 913 c 128,-1,24
 250 813 250 813 250 700 c 256,25,26
 250 587 250 587 293.5 487 c 128,-1,27
 337 387 337 387 412 312 c 128,-1,28
 487 237 487 237 587 193.5 c 128,-1,29
 687 150 687 150 800 150 c 256,30,31
 913 150 913 150 1013 193.5 c 128,-1,32
 1113 237 1113 237 1188 312 c 128,-1,33
 1263 387 1263 387 1306.5 487 c 128,-1,34
 1350 587 1350 587 1350 700 c 0,16,17
630 700 m 256,35,36
 630 430 630 430 850 430 c 1,37,-1
 850 431 l 1,38,39
 964 431 964 431 1000 531 c 1,40,-1
 1090 451 l 1,41,42
 1000 301 1000 301 850 301 c 1,43,-1
 850 300 l 1,44,45
 500 300 500 300 500 700 c 256,46,47
 500 1100 500 1100 850 1100 c 1,48,-1
 850 1099 l 1,49,50
 1000 1099 1000 1099 1090 949 c 1,51,-1
 1000 869 l 1,52,53
 964 962 964 962 850 969 c 1,54,-1
 850 970 l 1,55,56
 630 970 630 970 630 700 c 256,35,36
EndSplineSet
EndChar

StartChar: logicalnot
Encoding: 172 172 107
Width: 1000
GlyphClass: 2
Flags: W
LayerCount: 2
Fore
SplineSet
900 700 m 1,0,-1
 900 225 l 1,1,-1
 750 225 l 1,2,-1
 750 550 l 1,3,-1
 100 550 l 1,4,-1
 100 700 l 1,5,-1
 900 700 l 1,0,-1
EndSplineSet
EndChar

StartChar: registered
Encoding: 174 174 108
Width: 1600
GlyphClass: 2
Flags: W
LayerCount: 2
Fore
SplineSet
800 1400 m 256,0,1
 1090 1400 1090 1400 1295 1195 c 256,2,3
 1500 990 1500 990 1500 700 c 256,4,5
 1500 410 1500 410 1295 205 c 256,6,7
 1090 0 1090 0 800 0 c 256,8,9
 510 0 510 0 305 205 c 256,10,11
 100 410 100 410 100 700 c 256,12,13
 100 990 100 990 305 1195 c 256,14,15
 510 1400 510 1400 800 1400 c 256,0,1
1350 700 m 0,16,17
 1350 928 1350 928 1189 1089 c 256,18,19
 1028 1250 1028 1250 800 1250 c 0,20,21
 687 1250 687 1250 587 1206.5 c 128,-1,22
 487 1163 487 1163 412 1088 c 128,-1,23
 337 1013 337 1013 293.5 913 c 128,-1,24
 250 813 250 813 250 700 c 256,25,26
 250 587 250 587 293.5 487 c 128,-1,27
 337 387 337 387 412 312 c 128,-1,28
 487 237 487 237 587 193.5 c 128,-1,29
 687 150 687 150 800 150 c 256,30,31
 913 150 913 150 1013 193.5 c 128,-1,32
 1113 237 1113 237 1188 312 c 128,-1,33
 1263 387 1263 387 1306.5 487 c 128,-1,34
 1350 587 1350 587 1350 700 c 0,16,17
850 1100 m 2,35,36
 1100 1100 1100 1100 1100 875 c 0,37,38
 1100 697 1100 697 946 660 c 1,39,-1
 1100 300 l 1,40,-1
 970 300 l 1,41,-1
 821 650 l 1,42,-1
 630 650 l 1,43,-1
 630 300 l 1,44,-1
 500 300 l 1,45,-1
 500 1100 l 1,46,-1
 850 1100 l 2,35,36
850 780 m 2,47,48
 970 780 970 780 970 875 c 256,49,50
 970 970 970 970 850 970 c 2,51,-1
 630 970 l 1,52,-1
 630 780 l 1,53,-1
 850 780 l 2,47,48
EndSplineSet
EndChar

StartChar: degree
Encoding: 176 176 109
Width: 600
GlyphClass: 2
Flags: W
LayerCount: 2
Fore
SplineSet
500 1200 m 256,0,1
 500 1159 500 1159 484 1122.5 c 128,-1,2
 468 1086 468 1086 441 1059 c 128,-1,3
 414 1032 414 1032 377.5 1016 c 128,-1,4
 341 1000 341 1000 300 1000 c 0,5,6
 258 1000 258 1000 221.5 1015.5 c 128,-1,7
 185 1031 185 1031 158 1058 c 128,-1,8
 131 1085 131 1085 115.5 1121.5 c 128,-1,9
 100 1158 100 1158 100 1200 c 0,10,11
 100 1241 100 1241 116 1277.5 c 128,-1,12
 132 1314 132 1314 159 1341 c 128,-1,13
 186 1368 186 1368 222.5 1384 c 128,-1,14
 259 1400 259 1400 300 1400 c 256,15,16
 341 1400 341 1400 377.5 1384 c 128,-1,17
 414 1368 414 1368 441 1341 c 128,-1,18
 468 1314 468 1314 484 1277.5 c 128,-1,19
 500 1241 500 1241 500 1200 c 256,0,1
300 1300 m 256,20,21
 258 1300 258 1300 229 1271 c 128,-1,22
 200 1242 200 1242 200 1200 c 256,23,24
 200 1158 200 1158 229 1129 c 128,-1,25
 258 1100 258 1100 300 1100 c 256,26,27
 342 1100 342 1100 371 1129 c 128,-1,28
 400 1158 400 1158 400 1200 c 256,29,30
 400 1242 400 1242 371 1271 c 128,-1,31
 342 1300 342 1300 300 1300 c 256,20,21
EndSplineSet
EndChar

StartChar: plusminus
Encoding: 177 177 110
Width: 950
GlyphClass: 2
Flags: W
LayerCount: 2
Fore
SplineSet
395 745 m 1,0,-1
 395 1050 l 1,1,-1
 545 1050 l 1,2,-1
 545 745 l 1,3,-1
 850 745 l 1,4,-1
 850 595 l 1,5,-1
 545 595 l 1,6,-1
 545 300 l 1,7,-1
 395 300 l 1,8,-1
 395 595 l 1,9,-1
 100 595 l 1,10,-1
 100 745 l 1,11,-1
 395 745 l 1,0,-1
850 150 m 1,12,-1
 850 0 l 1,13,-1
 100 0 l 1,14,-1
 100 150 l 1,15,-1
 850 150 l 1,12,-1
EndSplineSet
EndChar

StartChar: acute
Encoding: 180 180 111
Width: 550
GlyphClass: 2
Flags: W
LayerCount: 2
Fore
SplineSet
100 1100 m 1,0,-1
 225 1400 l 1,1,-1
 450 1400 l 1,2,-1
 250 1100 l 1,3,-1
 100 1100 l 1,0,-1
EndSplineSet
EndChar

StartChar: mu
Encoding: 181 181 112
Width: 850
GlyphClass: 2
Flags: W
LayerCount: 2
Fore
SplineSet
100 -500 m 1,0,-1
 100 900 l 1,1,-1
 300 900 l 1,2,-1
 300 150 l 1,3,-1
 550 150 l 1,4,-1
 550 900 l 1,5,-1
 750 900 l 1,6,-1
 750 0 l 1,7,-1
 650 0 l 1,8,-1
 600 100 l 1,9,-1
 550 0 l 1,10,-1
 300 0 l 1,11,-1
 300 -500 l 1,12,-1
 100 -500 l 1,0,-1
EndSplineSet
EndChar

StartChar: paragraph
Encoding: 182 182 113
Width: 1200
GlyphClass: 2
Flags: W
LayerCount: 2
Fore
SplineSet
1100 0 m 1,0,-1
 950 0 l 1,1,-1
 950 1250 l 1,2,-1
 750 1250 l 1,3,-1
 750 0 l 1,4,-1
 600 0 l 1,5,-1
 600 625 l 1,6,-1
 500 625 l 2,7,8
 100 625 100 625 100 1012 c 0,9,10
 100 1400 100 1400 500 1400 c 2,11,-1
 1100 1400 l 1,12,-1
 1100 0 l 1,0,-1
EndSplineSet
EndChar

StartChar: periodcentered
Encoding: 183 183 114
Width: 400
GlyphClass: 2
Flags: W
LayerCount: 2
Fore
SplineSet
300 700 m 1,0,-1
 300 500 l 1,1,-1
 100 500 l 1,2,-1
 100 700 l 1,3,-1
 300 700 l 1,0,-1
EndSplineSet
EndChar

StartChar: cedilla
Encoding: 184 184 115
Width: 700
GlyphClass: 2
Flags: W
LayerCount: 2
Fore
SplineSet
400 50 m 1,0,-1
 350 -80 l 1,1,2
 395 -52 395 -52 441 -52 c 0,3,4
 516 -52 516 -52 558 -101.5 c 128,-1,5
 600 -151 600 -151 600 -240 c 0,6,7
 600 -440 600 -440 350 -440 c 0,8,9
 200 -440 200 -440 100 -340 c 1,10,-1
 160 -260 l 1,11,12
 220 -340 220 -340 350 -340 c 0,13,14
 500 -340 500 -340 500 -240 c 256,15,16
 500 -140 500 -140 420 -140 c 0,17,18
 349 -140 349 -140 300 -200 c 1,19,-1
 210 -170 l 1,20,-1
 300 50 l 1,21,-1
 400 50 l 1,0,-1
EndSplineSet
EndChar

StartChar: AE
Encoding: 198 198 124
Width: 1320
GlyphClass: 2
Flags: W
LayerCount: 2
Fore
SplineSet
820 250 m 2,0,1
 820 150 820 150 920 150 c 2,2,-1
 1220 150 l 1,3,-1
 1220 0 l 1,4,-1
 870 0 l 2,5,6
 620 0 620 0 620 250 c 2,7,-1
 620 400 l 1,8,-1
 305 400 l 1,9,-1
 240 0 l 1,10,-1
 50 0 l 1,11,-1
 280 1400 l 1,12,-1
 1170 1400 l 1,13,-1
 1170 1250 l 1,14,-1
 820 1250 l 1,15,-1
 820 900 l 1,16,-1
 1070 900 l 1,17,-1
 1070 750 l 1,18,-1
 820 750 l 1,19,-1
 820 250 l 2,0,1
620 1250 m 1,20,-1
 445 1250 l 1,21,-1
 330 550 l 1,22,-1
 620 550 l 1,23,-1
 620 1250 l 1,20,-1
EndSplineSet
EndChar

StartChar: Ccedilla
Encoding: 199 199 125
Width: 800
GlyphClass: 2
Flags: W
LayerCount: 2
Fore
SplineSet
300 250 m 2,0,1
 300 150 300 150 400 150 c 2,2,-1
 700 150 l 1,3,-1
 700 0 l 1,4,-1
 431 0 l 1,5,-1
 400 -80 l 1,6,7
 445 -52 445 -52 491 -52 c 0,8,9
 566 -52 566 -52 608 -101.5 c 128,-1,10
 650 -151 650 -151 650 -240 c 0,11,12
 650 -440 650 -440 400 -440 c 0,13,14
 250 -440 250 -440 150 -340 c 1,15,-1
 210 -260 l 1,16,17
 270 -340 270 -340 400 -340 c 0,18,19
 550 -340 550 -340 550 -240 c 256,20,21
 550 -140 550 -140 470 -140 c 0,22,23
 399 -140 399 -140 350 -200 c 1,24,-1
 260 -170 l 1,25,-1
 329 0 l 1,26,27
 100 10 100 10 100 250 c 2,28,-1
 100 1150 l 2,29,30
 100 1400 100 1400 350 1400 c 2,31,-1
 650 1400 l 1,32,-1
 650 1250 l 1,33,-1
 400 1250 l 2,34,35
 300 1250 300 1250 300 1150 c 2,36,-1
 300 250 l 2,0,1
EndSplineSet
EndChar

StartChar: Eth
Encoding: 208 208 134
Width: 1000
GlyphClass: 2
Flags: W
LayerCount: 2
Fore
SplineSet
200 900 m 1,0,-1
 200 1400 l 1,1,-1
 650 1400 l 2,2,3
 900 1400 900 1400 900 1150 c 2,4,-1
 900 250 l 2,5,6
 900 0 900 0 650 0 c 2,7,-1
 200 0 l 1,8,-1
 200 750 l 1,9,-1
 100 750 l 1,10,-1
 100 900 l 1,11,-1
 200 900 l 1,0,-1
400 1250 m 1,12,-1
 400 900 l 1,13,-1
 550 900 l 1,14,-1
 550 750 l 1,15,-1
 400 750 l 1,16,-1
 400 150 l 1,17,-1
 600 150 l 2,18,19
 700 150 700 150 700 250 c 2,20,-1
 700 1150 l 2,21,22
 700 1250 700 1250 600 1250 c 2,23,-1
 400 1250 l 1,12,-1
EndSplineSet
EndChar

StartChar: multiply
Encoding: 215 215 141
Width: 1013
GlyphClass: 2
Flags: W
LayerCount: 2
Fore
SplineSet
400 700 m 1,0,-1
 100 1001 l 1,1,-1
 206 1107 l 1,2,-1
 506 806 l 1,3,-1
 807 1107 l 1,4,-1
 913 1001 l 1,5,-1
 612 700 l 1,6,-1
 913 399 l 1,7,-1
 807 293 l 1,8,-1
 506 594 l 1,9,-1
 206 293 l 1,10,-1
 100 399 l 1,11,-1
 400 700 l 1,0,-1
EndSplineSet
EndChar

StartChar: Oslash
Encoding: 216 216 142
Width: 900
GlyphClass: 2
Flags: W
LayerCount: 2
Fore
SplineSet
100 421 m 1,0,-1
 100 1150 l 2,1,2
 100 1400 100 1400 350 1400 c 2,3,-1
 550 1400 l 2,4,5
 800 1400 800 1400 800 1150 c 2,6,-1
 800 1121 l 1,7,-1
 874 1195 l 1,8,-1
 945 1124 l 1,9,-1
 800 979 l 1,10,-1
 800 250 l 2,11,12
 800 0 800 0 550 0 c 2,13,-1
 350 0 l 2,14,15
 100 0 100 0 100 250 c 2,16,-1
 100 279 l 1,17,-1
 26 205 l 1,18,-1
 -45 276 l 1,19,-1
 100 421 l 1,0,-1
600 779 m 1,20,-1
 300 479 l 1,21,-1
 300 250 l 2,22,23
 300 150 300 150 400 150 c 2,24,-1
 500 150 l 2,25,26
 600 150 600 150 600 250 c 2,27,-1
 600 779 l 1,20,-1
300 621 m 1,28,-1
 600 921 l 1,29,-1
 600 1150 l 2,30,31
 600 1250 600 1250 500 1250 c 2,32,-1
 400 1250 l 2,33,34
 300 1250 300 1250 300 1150 c 2,35,-1
 300 621 l 1,28,-1
EndSplineSet
EndChar

StartChar: Thorn
Encoding: 222 222 148
Width: 900
GlyphClass: 2
Flags: W
LayerCount: 2
Fore
SplineSet
550 1200 m 2,0,1
 800 1200 800 1200 800 950 c 2,2,-1
 800 450 l 2,3,4
 800 200 800 200 549 200 c 2,5,-1
 299 200 l 1,6,-1
 300 0 l 1,7,-1
 100 0 l 1,8,-1
 100 1400 l 1,9,-1
 300 1400 l 1,10,-1
 300 1200 l 1,11,-1
 550 1200 l 2,0,1
300 350 m 1,12,-1
 500 350 l 2,13,14
 600 350 600 350 600 450 c 2,15,-1
 600 950 l 2,16,17
 600 1050 600 1050 500 1050 c 2,18,-1
 300 1050 l 1,19,-1
 300 350 l 1,12,-1
EndSplineSet
EndChar

StartChar: germandbls
Encoding: 223 223 149
Width: 900
GlyphClass: 2
Flags: W
LayerCount: 2
Fore
SplineSet
400 0 m 1,0,-1
 400 150 l 1,1,-1
 500 150 l 2,2,3
 600 150 600 150 600 250 c 2,4,-1
 600 650 l 2,5,6
 600 750 600 750 500 750 c 2,7,-1
 400 750 l 1,8,-1
 400 900 l 1,9,-1
 480 900 l 2,10,11
 580 900 580 900 580 1000 c 2,12,-1
 580 1150 l 2,13,14
 580 1250 580 1250 480 1250 c 2,15,-1
 300 1250 l 1,16,-1
 300 900 l 1,17,-1
 299 800 l 1,18,-1
 300 0 l 1,19,-1
 100 0 l 1,20,-1
 100 1400 l 1,21,-1
 530 1400 l 2,22,23
 780 1400 780 1400 780 1150 c 2,24,-1
 780 1000 l 2,25,26
 780 876 780 876 684 829 c 1,27,28
 800 785 800 785 800 650 c 2,29,-1
 800 250 l 2,30,31
 800 0 800 0 550 0 c 2,32,-1
 400 0 l 1,0,-1
EndSplineSet
EndChar

StartChar: ae
Encoding: 230 230 156
Width: 1300
GlyphClass: 2
Flags: W
LayerCount: 2
Fore
SplineSet
550 650 m 2,0,1
 550 750 550 750 450 750 c 2,2,-1
 200 750 l 1,3,-1
 200 900 l 1,4,-1
 500 900 l 2,5,6
 600 900 600 900 650 837 c 1,7,8
 700 900 700 900 800 900 c 2,9,-1
 950 900 l 2,10,11
 1200 900 1200 900 1200 650 c 2,12,-1
 1200 350 l 1,13,-1
 750 350 l 1,14,-1
 750 250 l 2,15,16
 750 150 750 150 850 150 c 2,17,-1
 1150 150 l 1,18,-1
 1150 0 l 1,19,-1
 800 0 l 2,20,21
 683 0 683 0 635 85 c 1,22,-1
 550 0 l 1,23,-1
 350 0 l 2,24,25
 100 0 100 0 100 250 c 2,26,-1
 100 350 l 2,27,28
 100 600 100 600 350 600 c 2,29,-1
 550 600 l 1,30,-1
 550 650 l 2,0,1
400 450 m 2,31,32
 300 450 300 450 300 350 c 2,33,-1
 300 250 l 2,34,35
 300 150 300 150 400 150 c 2,36,-1
 550 150 l 1,37,-1
 550 450 l 1,38,-1
 400 450 l 2,31,32
750 500 m 1,39,-1
 1000 500 l 1,40,-1
 1000 650 l 2,41,42
 1000 750 1000 750 900 750 c 2,43,-1
 850 750 l 2,44,45
 750 750 750 750 750 650 c 2,46,-1
 750 500 l 1,39,-1
EndSplineSet
EndChar

StartChar: ccedilla
Encoding: 231 231 157
Width: 750
GlyphClass: 2
Flags: W
LayerCount: 2
Fore
SplineSet
300 250 m 2,0,1
 300 150 300 150 400 150 c 2,2,-1
 650 150 l 1,3,-1
 650 0 l 1,4,-1
 406 0 l 1,5,-1
 375 -80 l 1,6,7
 420 -52 420 -52 466 -52 c 0,8,9
 541 -52 541 -52 583 -101.5 c 128,-1,10
 625 -151 625 -151 625 -240 c 0,11,12
 625 -440 625 -440 375 -440 c 0,13,14
 225 -440 225 -440 125 -340 c 1,15,-1
 185 -260 l 1,16,17
 245 -340 245 -340 375 -340 c 0,18,19
 525 -340 525 -340 525 -240 c 256,20,21
 525 -140 525 -140 445 -140 c 0,22,23
 374 -140 374 -140 325 -200 c 1,24,-1
 235 -170 l 1,25,-1
 305 2 l 1,26,27
 100 23 100 23 100 250 c 2,28,-1
 100 650 l 2,29,30
 100 900 100 900 350 900 c 2,31,-1
 600 900 l 1,32,-1
 600 750 l 1,33,-1
 400 750 l 2,34,35
 300 750 300 750 300 650 c 2,36,-1
 300 250 l 2,0,1
EndSplineSet
EndChar

StartChar: eth
Encoding: 240 240 166
Width: 1000
GlyphClass: 2
Flags: W
LayerCount: 2
Fore
SplineSet
350 0 m 2,0,1
 100 0 100 0 100 250 c 2,2,-1
 100 650 l 2,3,4
 100 900 100 900 350 900 c 2,5,-1
 550 900 l 1,6,-1
 550 1100 l 1,7,-1
 400 1100 l 1,8,-1
 400 1250 l 1,9,-1
 550 1250 l 1,10,-1
 550 1400 l 1,11,-1
 750 1400 l 1,12,-1
 750 1250 l 1,13,-1
 900 1250 l 1,14,-1
 900 1100 l 1,15,-1
 750 1100 l 1,16,-1
 750 0 l 1,17,-1
 650 0 l 1,18,-1
 600 100 l 1,19,-1
 550 0 l 1,20,-1
 350 0 l 2,0,1
550 150 m 1,21,-1
 550 750 l 1,22,-1
 400 750 l 2,23,24
 300 750 300 750 300 650 c 2,25,-1
 300 250 l 2,26,27
 300 150 300 150 400 150 c 2,28,-1
 550 150 l 1,21,-1
EndSplineSet
EndChar

StartChar: divide
Encoding: 247 247 173
Width: 1000
GlyphClass: 2
Flags: W
LayerCount: 2
Fore
SplineSet
900 775 m 1,0,-1
 900 625 l 1,1,-1
 100 625 l 1,2,-1
 100 775 l 1,3,-1
 900 775 l 1,0,-1
600 400 m 1,4,-1
 600 200 l 1,5,-1
 400 200 l 1,6,-1
 400 400 l 1,7,-1
 600 400 l 1,4,-1
600 1200 m 1,8,-1
 600 1000 l 1,9,-1
 400 1000 l 1,10,-1
 400 1200 l 1,11,-1
 600 1200 l 1,8,-1
EndSplineSet
EndChar

StartChar: oslash
Encoding: 248 248 174
Width: 850
GlyphClass: 2
Flags: W
LayerCount: 2
Fore
SplineSet
103 199 m 1,0,1
 100 223 100 223 100 250 c 2,2,-1
 100 650 l 2,3,4
 100 900 100 900 350 900 c 2,5,-1
 500 900 l 2,6,7
 652 900 652 900 711 807 c 1,8,-1
 796 892 l 1,9,-1
 867 821 l 1,10,-1
 747 701 l 1,11,12
 750 677 750 677 750 650 c 2,13,-1
 750 250 l 2,14,15
 750 0 750 0 500 0 c 2,16,-1
 350 0 l 2,17,18
 198 0 198 0 138 92 c 1,19,-1
 54 8 l 1,20,-1
 -17 79 l 1,21,-1
 103 199 l 1,0,1
550 504 m 1,22,-1
 300 254 l 1,23,-1
 300 250 l 2,24,25
 300 155 300 155 390 150 c 1,26,-1
 459 150 l 1,27,28
 550 155 550 155 550 250 c 2,29,-1
 550 504 l 1,22,-1
300 396 m 1,30,-1
 550 646 l 1,31,-1
 550 650 l 2,32,33
 550 750 550 750 450 750 c 2,34,-1
 400 750 l 2,35,36
 300 750 300 750 300 650 c 2,37,-1
 300 396 l 1,30,-1
EndSplineSet
EndChar

StartChar: thorn
Encoding: 254 254 180
Width: 850
GlyphClass: 2
Flags: W
LayerCount: 2
Fore
SplineSet
100 -500 m 1,0,-1
 100 1400 l 1,1,-1
 300 1400 l 1,2,-1
 300 900 l 1,3,-1
 500 900 l 2,4,5
 750 900 750 900 750 650 c 2,6,-1
 750 250 l 2,7,8
 750 0 750 0 500 0 c 2,9,-1
 300 0 l 1,10,-1
 300 -500 l 1,11,-1
 100 -500 l 1,0,-1
300 750 m 1,12,-1
 300 150 l 1,13,-1
 450 150 l 2,14,15
 550 150 550 150 550 250 c 2,16,-1
 550 650 l 2,17,18
 550 750 550 750 450 750 c 2,19,-1
 300 750 l 1,12,-1
EndSplineSet
EndChar

StartChar: dcaron
Encoding: 271 271 189
Width: 1250
GlyphClass: 2
Flags: W
LayerCount: 2
Fore
SplineSet
350 0 m 2,0,1
 100 0 100 0 100 250 c 2,2,-1
 100 650 l 2,3,4
 100 900 100 900 350 900 c 2,5,-1
 550 900 l 1,6,-1
 550 1400 l 1,7,-1
 750 1400 l 1,8,-1
 750 0 l 1,9,-1
 650 0 l 1,10,-1
 600 100 l 1,11,-1
 550 0 l 1,12,-1
 350 0 l 2,0,1
300 250 m 2,13,14
 300 150 300 150 400 150 c 2,15,-1
 550 150 l 1,16,-1
 550 750 l 1,17,-1
 400 750 l 2,18,19
 300 750 300 750 300 650 c 2,20,-1
 300 250 l 2,13,14
1150 1400 m 1,21,-1
 1150 1200 l 1,22,-1
 1075 1000 l 1,23,-1
 950 1000 l 1,24,-1
 1025 1200 l 1,25,-1
 950 1200 l 1,26,-1
 950 1400 l 1,27,-1
 1150 1400 l 1,21,-1
EndSplineSet
EndChar

StartChar: dotlessi
Encoding: 305 305 194
Width: 600
GlyphClass: 2
Flags: W
LayerCount: 2
Fore
SplineSet
400 900 m 1,0,-1
 400 0 l 1,1,-1
 200 0 l 1,2,-1
 200 750 l 1,3,-1
 100 750 l 1,4,-1
 100 900 l 1,5,-1
 400 900 l 1,0,-1
EndSplineSet
EndChar

StartChar: Lslash
Encoding: 321 321 195
Width: 800
GlyphClass: 2
Flags: W
LayerCount: 2
Fore
SplineSet
2 622 m 1,0,-1
 566 1002 l 1,1,-1
 566 833 l 1,2,-1
 2 453 l 1,3,-1
 2 622 l 1,0,-1
300 250 m 2,4,5
 300 150 300 150 400 150 c 2,6,-1
 700 150 l 1,7,-1
 700 0 l 1,8,-1
 350 0 l 2,9,10
 100 0 100 0 100 250 c 2,11,-1
 100 1400 l 1,12,-1
 300 1400 l 1,13,-1
 300 250 l 2,4,5
EndSplineSet
EndChar

StartChar: lslash
Encoding: 322 322 196
Width: 600
GlyphClass: 2
Flags: W
LayerCount: 2
Fore
SplineSet
43 653 m 1,0,-1
 566 1002 l 1,1,-1
 566 833 l 1,2,-1
 43 484 l 1,3,-1
 43 653 l 1,0,-1
400 1400 m 1,4,-1
 400 0 l 1,5,-1
 200 0 l 1,6,-1
 200 1250 l 1,7,-1
 100 1250 l 1,8,-1
 100 1400 l 1,9,-1
 400 1400 l 1,4,-1
EndSplineSet
EndChar

StartChar: OE
Encoding: 338 338 201
Width: 1300
GlyphClass: 2
Flags: W
LayerCount: 2
Fore
SplineSet
800 150 m 1,0,-1
 1200 150 l 1,1,-1
 1200 0 l 1,2,-1
 350 0 l 2,3,4
 100 0 100 0 100 250 c 2,5,-1
 100 1150 l 2,6,7
 100 1400 100 1400 350 1400 c 2,8,-1
 1150 1400 l 1,9,-1
 1150 1250 l 1,10,-1
 800 1250 l 1,11,-1
 800 900 l 1,12,-1
 1050 900 l 1,13,-1
 1050 750 l 1,14,-1
 800 750 l 1,15,-1
 800 150 l 1,0,-1
300 250 m 2,16,17
 300 150 300 150 400 150 c 2,18,-1
 600 150 l 1,19,-1
 600 1250 l 1,20,-1
 400 1250 l 2,21,22
 300 1250 300 1250 300 1150 c 2,23,-1
 300 250 l 2,16,17
EndSplineSet
EndChar

StartChar: oe
Encoding: 339 339 202
Width: 1300
GlyphClass: 2
Flags: W
LayerCount: 2
Fore
SplineSet
950 900 m 2,0,1
 1200 900 1200 900 1200 650 c 2,2,-1
 1200 350 l 1,3,-1
 750 350 l 1,4,-1
 750 150 l 1,5,-1
 1150 150 l 1,6,-1
 1150 0 l 1,7,-1
 350 0 l 2,8,9
 100 0 100 0 100 250 c 2,10,-1
 100 650 l 2,11,12
 100 900 100 900 350 900 c 2,13,-1
 950 900 l 2,0,1
400 750 m 2,14,15
 300 750 300 750 300 650 c 2,16,-1
 300 250 l 2,17,18
 300 150 300 150 400 150 c 2,19,-1
 550 150 l 1,20,-1
 550 750 l 1,21,-1
 400 750 l 2,14,15
1000 500 m 1,22,-1
 1000 650 l 2,23,24
 1000 750 1000 750 900 750 c 2,25,-1
 750 750 l 1,26,-1
 750 500 l 1,27,-1
 1000 500 l 1,22,-1
EndSplineSet
EndChar

StartChar: tcaron
Encoding: 357 357 210
Width: 1100
GlyphClass: 2
Flags: W
LayerCount: 2
Fore
SplineSet
400 900 m 1,0,-1
 600 900 l 1,1,-1
 600 750 l 1,2,-1
 400 750 l 1,3,-1
 400 250 l 2,4,5
 400 150 400 150 500 150 c 2,6,-1
 575 150 l 1,7,-1
 575 0 l 1,8,-1
 450 0 l 2,9,10
 200 0 200 0 200 250 c 2,11,-1
 200 750 l 1,12,-1
 100 750 l 1,13,-1
 100 900 l 1,14,-1
 200 900 l 1,15,-1
 200 1200 l 1,16,-1
 400 1300 l 1,17,-1
 400 900 l 1,0,-1
1000 1400 m 1,18,-1
 1000 1200 l 1,19,-1
 925 1000 l 1,20,-1
 800 1000 l 1,21,-1
 875 1200 l 1,22,-1
 800 1200 l 1,23,-1
 800 1400 l 1,24,-1
 1000 1400 l 1,18,-1
EndSplineSet
EndChar

StartChar: longs
Encoding: 383 383 220
Width: 575
GlyphClass: 2
Flags: W
LayerCount: 2
Fore
SplineSet
300 0 m 1,0,-1
 100 0 l 1,1,-1
 100 1150 l 2,2,3
 100 1400 100 1400 350 1400 c 2,4,-1
 475 1400 l 1,5,-1
 475 1250 l 1,6,-1
 400 1250 l 2,7,8
 300 1250 300 1250 300 1150 c 2,9,-1
 300 0 l 1,0,-1
EndSplineSet
EndChar

StartChar: florin
Encoding: 402 402 221
Width: 600
GlyphClass: 2
Flags: W
LayerCount: 2
Fore
SplineSet
300 900 m 1,0,-1
 500 900 l 1,1,-1
 500 750 l 1,2,-1
 300 750 l 1,3,-1
 300 -150 l 2,4,5
 300 -400 300 -400 50 -400 c 2,6,-1
 -100 -400 l 1,7,-1
 -100 -250 l 1,8,-1
 0 -250 l 2,9,10
 100 -250 100 -250 100 -150 c 2,11,-1
 100 750 l 1,12,-1
 0 750 l 1,13,-1
 0 900 l 1,14,-1
 100 900 l 1,15,-1
 100 1150 l 2,16,17
 100 1400 100 1400 350 1400 c 2,18,-1
 475 1400 l 1,19,-1
 475 1250 l 1,20,-1
 400 1250 l 2,21,22
 300 1250 300 1250 300 1150 c 2,23,-1
 300 900 l 1,0,-1
EndSplineSet
EndChar

StartChar: uni0237
Encoding: 567 567 222
Width: 500
GlyphClass: 2
Flags: W
LayerCount: 2
Fore
SplineSet
0 -400 m 1,0,-1
 0 -250 l 1,1,-1
 100 -250 l 2,2,3
 200 -250 200 -250 200 -150 c 2,4,-1
 200 750 l 1,5,-1
 100 750 l 1,6,-1
 100 900 l 1,7,-1
 400 900 l 1,8,-1
 400 -150 l 2,9,10
 400 -400 400 -400 150 -400 c 2,11,-1
 0 -400 l 1,0,-1
EndSplineSet
EndChar

StartChar: uni0251
Encoding: 593 593 223
Width: 850
GlyphClass: 2
Flags: W
LayerCount: 2
Fore
SplineSet
350 0 m 2,0,1
 100 0 100 0 100 250 c 2,2,-1
 100 650 l 2,3,4
 100 900 100 900 350 900 c 2,5,-1
 750 900 l 1,6,-1
 750 0 l 1,7,-1
 650 0 l 1,8,-1
 600 100 l 1,9,-1
 550 0 l 1,10,-1
 350 0 l 2,0,1
550 150 m 1,11,-1
 550 750 l 1,12,-1
 400 750 l 2,13,14
 300 750 300 750 300 650 c 2,15,-1
 300 250 l 2,16,17
 300 150 300 150 400 150 c 2,18,-1
 550 150 l 1,11,-1
EndSplineSet
EndChar

StartChar: circumflex
Encoding: 710 710 224
Width: 782
GlyphClass: 2
Flags: W
LayerCount: 2
Fore
SplineSet
100 1100 m 1,0,-1
 301 1400 l 1,1,-1
 481 1400 l 1,2,-1
 682 1100 l 1,3,-1
 532 1100 l 1,4,-1
 391 1315 l 1,5,-1
 250 1100 l 1,6,-1
 100 1100 l 1,0,-1
EndSplineSet
EndChar

StartChar: caron
Encoding: 711 711 225
Width: 782
GlyphClass: 2
Flags: W
LayerCount: 2
Fore
SplineSet
250 1400 m 1,0,-1
 391 1185 l 1,1,-1
 532 1400 l 1,2,-1
 682 1400 l 1,3,-1
 481 1100 l 1,4,-1
 301 1100 l 1,5,-1
 100 1400 l 1,6,-1
 250 1400 l 1,0,-1
EndSplineSet
EndChar

StartChar: breve
Encoding: 728 728 226
Width: 800
GlyphClass: 2
Flags: W
LayerCount: 2
Fore
SplineSet
100 1400 m 5,0,-1
 225 1400 l 5,1,2
 225 1225 225 1225 400 1225 c 260,3,4
 575 1225 575 1225 575 1400 c 5,5,-1
 700 1400 l 5,6,7
 700 1100 700 1100 400 1100 c 260,8,9
 100 1100 100 1100 100 1400 c 5,0,-1
EndSplineSet
EndChar

StartChar: dotaccent
Encoding: 729 729 227
Width: 400
GlyphClass: 2
Flags: W
LayerCount: 2
Fore
SplineSet
300 1300 m 1,0,-1
 300 1100 l 1,1,-1
 100 1100 l 1,2,-1
 100 1300 l 1,3,-1
 300 1300 l 1,0,-1
EndSplineSet
EndChar

StartChar: ring
Encoding: 730 730 228
Width: 600
GlyphClass: 2
Flags: W
LayerCount: 2
Fore
SplineSet
500 1300 m 256,0,1
 500 1259 500 1259 484 1222.5 c 128,-1,2
 468 1186 468 1186 441 1159 c 128,-1,3
 414 1132 414 1132 377.5 1116 c 128,-1,4
 341 1100 341 1100 300 1100 c 0,5,6
 258 1100 258 1100 221.5 1115.5 c 128,-1,7
 185 1131 185 1131 158 1158 c 128,-1,8
 131 1185 131 1185 115.5 1221.5 c 128,-1,9
 100 1258 100 1258 100 1300 c 0,10,11
 100 1341 100 1341 116 1377.5 c 128,-1,12
 132 1414 132 1414 159 1441 c 128,-1,13
 186 1468 186 1468 222.5 1484 c 128,-1,14
 259 1500 259 1500 300 1500 c 256,15,16
 341 1500 341 1500 377.5 1484 c 128,-1,17
 414 1468 414 1468 441 1441 c 128,-1,18
 468 1414 468 1414 484 1377.5 c 128,-1,19
 500 1341 500 1341 500 1300 c 256,0,1
300 1400 m 256,20,21
 258 1400 258 1400 229 1371 c 128,-1,22
 200 1342 200 1342 200 1300 c 256,23,24
 200 1258 200 1258 229 1229 c 128,-1,25
 258 1200 258 1200 300 1200 c 256,26,27
 342 1200 342 1200 371 1229 c 128,-1,28
 400 1258 400 1258 400 1300 c 256,29,30
 400 1342 400 1342 371 1371 c 128,-1,31
 342 1400 342 1400 300 1400 c 256,20,21
EndSplineSet
EndChar

StartChar: ogonek
Encoding: 731 731 229
Width: 700
GlyphClass: 2
Flags: W
LayerCount: 2
Fore
SplineSet
300 0 m 1,0,1
 200 -100 200 -100 200 -200 c 0,2,3
 200 -340 200 -340 350 -340 c 0,4,5
 480 -340 480 -340 540 -260 c 1,6,-1
 600 -340 l 1,7,8
 500 -440 500 -440 350 -440 c 0,9,10
 100 -440 100 -440 100 -200 c 0,11,12
 100 -70 100 -70 200 0 c 1,13,-1
 300 0 l 1,0,1
EndSplineSet
EndChar

StartChar: tilde
Encoding: 732 732 230
Width: 900
GlyphClass: 2
Flags: W
LayerCount: 2
Fore
SplineSet
100 1150 m 1,0,1
 100 1400 100 1400 300 1400 c 0,2,3
 390 1400 390 1400 455 1350 c 256,4,5
 520 1300 520 1300 600 1300 c 256,6,7
 680 1300 680 1300 680 1400 c 1,8,-1
 800 1400 l 1,9,10
 800 1150 800 1150 600 1150 c 0,11,12
 510 1150 510 1150 445 1200 c 256,13,14
 380 1250 380 1250 300 1250 c 256,15,16
 220 1250 220 1250 220 1150 c 1,17,-1
 100 1150 l 1,0,1
EndSplineSet
EndChar

StartChar: hungarumlaut
Encoding: 733 733 231
Width: 850
GlyphClass: 2
Flags: W
LayerCount: 2
Fore
SplineSet
100 1100 m 1,0,-1
 225 1400 l 1,1,-1
 450 1400 l 1,2,-1
 250 1100 l 1,3,-1
 100 1100 l 1,0,-1
400 1100 m 1,4,-1
 525 1400 l 1,5,-1
 750 1400 l 1,6,-1
 550 1100 l 1,7,-1
 400 1100 l 1,4,-1
EndSplineSet
EndChar

StartChar: endash
Encoding: 8211 8211 232
Width: 700
GlyphClass: 2
Flags: W
LayerCount: 2
Fore
SplineSet
600 700 m 1,0,-1
 600 550 l 1,1,-1
 100 550 l 1,2,-1
 100 700 l 1,3,-1
 600 700 l 1,0,-1
EndSplineSet
EndChar

StartChar: emdash
Encoding: 8212 8212 233
Width: 1000
GlyphClass: 2
Flags: W
LayerCount: 2
Fore
SplineSet
900 700 m 1,0,-1
 900 550 l 1,1,-1
 100 550 l 1,2,-1
 100 700 l 1,3,-1
 900 700 l 1,0,-1
EndSplineSet
EndChar

StartChar: quoteleft
Encoding: 8216 8216 234
Width: 400
GlyphClass: 2
Flags: W
LayerCount: 2
Fore
SplineSet
100 1000 m 1,0,-1
 100 1200 l 1,1,-1
 175 1400 l 1,2,-1
 300 1400 l 1,3,-1
 225 1200 l 1,4,-1
 300 1200 l 1,5,-1
 300 1000 l 1,6,-1
 100 1000 l 1,0,-1
EndSplineSet
EndChar

StartChar: quoteright
Encoding: 8217 8217 235
Width: 400
GlyphClass: 2
Flags: W
LayerCount: 2
Fore
SplineSet
300 1400 m 1,0,-1
 300 1200 l 1,1,-1
 225 1000 l 1,2,-1
 100 1000 l 1,3,-1
 175 1200 l 1,4,-1
 100 1200 l 1,5,-1
 100 1400 l 1,6,-1
 300 1400 l 1,0,-1
EndSplineSet
EndChar

StartChar: quotedblleft
Encoding: 8220 8220 237
Width: 700
GlyphClass: 2
Flags: W
LayerCount: 2
Fore
SplineSet
400 1000 m 1,0,-1
 400 1200 l 1,1,-1
 475 1400 l 1,2,-1
 600 1400 l 1,3,-1
 525 1200 l 1,4,-1
 600 1200 l 1,5,-1
 600 1000 l 1,6,-1
 400 1000 l 1,0,-1
100 1000 m 1,7,-1
 100 1200 l 1,8,-1
 175 1400 l 1,9,-1
 300 1400 l 1,10,-1
 225 1200 l 1,11,-1
 300 1200 l 1,12,-1
 300 1000 l 1,13,-1
 100 1000 l 1,7,-1
EndSplineSet
EndChar

StartChar: quotedblright
Encoding: 8221 8221 238
Width: 700
GlyphClass: 2
Flags: W
LayerCount: 2
Fore
SplineSet
300 1400 m 1,0,-1
 300 1200 l 1,1,-1
 225 1000 l 1,2,-1
 100 1000 l 1,3,-1
 175 1200 l 1,4,-1
 100 1200 l 1,5,-1
 100 1400 l 1,6,-1
 300 1400 l 1,0,-1
600 1400 m 1,7,-1
 600 1200 l 1,8,-1
 525 1000 l 1,9,-1
 400 1000 l 1,10,-1
 475 1200 l 1,11,-1
 400 1200 l 1,12,-1
 400 1400 l 1,13,-1
 600 1400 l 1,7,-1
EndSplineSet
EndChar

StartChar: dagger
Encoding: 8224 8224 240
Width: 950
GlyphClass: 2
Flags: W
LayerCount: 2
Fore
SplineSet
550 1400 m 1,0,-1
 550 1100 l 1,1,-1
 850 1100 l 1,2,-1
 850 950 l 1,3,-1
 550 950 l 1,4,-1
 550 0 l 1,5,-1
 400 0 l 1,6,-1
 400 950 l 1,7,-1
 100 950 l 1,8,-1
 100 1100 l 1,9,-1
 400 1100 l 1,10,-1
 400 1400 l 1,11,-1
 550 1400 l 1,0,-1
EndSplineSet
EndChar

StartChar: daggerdbl
Encoding: 8225 8225 241
Width: 950
GlyphClass: 2
Flags: W
LayerCount: 2
Fore
SplineSet
550 1400 m 1,0,-1
 550 1100 l 1,1,-1
 850 1100 l 1,2,-1
 850 950 l 1,3,-1
 550 950 l 1,4,-1
 550 400 l 1,5,-1
 850 400 l 1,6,-1
 850 250 l 1,7,-1
 550 250 l 1,8,-1
 550 0 l 1,9,-1
 400 0 l 1,10,-1
 400 250 l 1,11,-1
 100 250 l 1,12,-1
 100 400 l 1,13,-1
 400 400 l 1,14,-1
 400 950 l 1,15,-1
 100 950 l 1,16,-1
 100 1100 l 1,17,-1
 400 1100 l 1,18,-1
 400 1400 l 1,19,-1
 550 1400 l 1,0,-1
EndSplineSet
EndChar

StartChar: bullet
Encoding: 8226 8226 242
Width: 500
GlyphClass: 2
Flags: W
LayerCount: 2
Fore
SplineSet
400 750 m 1,0,-1
 400 450 l 1,1,-1
 100 450 l 1,2,-1
 100 750 l 1,3,-1
 400 750 l 1,0,-1
EndSplineSet
EndChar

StartChar: ellipsis
Encoding: 8230 8230 243
Width: 1200
GlyphClass: 2
Flags: W
LayerCount: 2
Fore
SplineSet
300 200 m 1,0,-1
 300 0 l 1,1,-1
 100 0 l 1,2,-1
 100 200 l 1,3,-1
 300 200 l 1,0,-1
700 200 m 1,4,-1
 700 0 l 1,5,-1
 500 0 l 1,6,-1
 500 200 l 1,7,-1
 700 200 l 1,4,-1
1100 200 m 1,8,-1
 1100 0 l 1,9,-1
 900 0 l 1,10,-1
 900 200 l 1,11,-1
 1100 200 l 1,8,-1
EndSplineSet
EndChar

StartChar: guilsinglleft
Encoding: 8249 8249 244
Width: 645
GlyphClass: 2
Flags: W
LayerCount: 2
Fore
SplineSet
365 200 m 1,0,-1
 100 600 l 1,1,-1
 365 1000 l 1,2,-1
 545 1000 l 1,3,-1
 280 600 l 1,4,-1
 545 200 l 1,5,-1
 365 200 l 1,0,-1
EndSplineSet
EndChar

StartChar: guilsinglright
Encoding: 8250 8250 245
Width: 645
GlyphClass: 2
Flags: W
LayerCount: 2
Fore
SplineSet
100 200 m 1,0,-1
 365 600 l 1,1,-1
 100 1000 l 1,2,-1
 280 1000 l 1,3,-1
 545 600 l 1,4,-1
 280 200 l 1,5,-1
 100 200 l 1,0,-1
EndSplineSet
EndChar

StartChar: Euro
Encoding: 8364 8364 246
Width: 900
GlyphClass: 2
Flags: W
LayerCount: 2
Fore
SplineSet
200 900 m 1,0,-1
 200 1150 l 2,1,2
 200 1400 200 1400 450 1400 c 2,3,-1
 750 1400 l 1,4,-1
 750 1250 l 1,5,-1
 500 1250 l 2,6,7
 400 1250 400 1250 400 1150 c 2,8,-1
 400 900 l 1,9,-1
 750 900 l 1,10,-1
 700 750 l 1,11,-1
 400 750 l 1,12,-1
 400 600 l 1,13,-1
 650 600 l 1,14,-1
 600 450 l 1,15,-1
 400 450 l 1,16,-1
 400 250 l 2,17,18
 400 150 400 150 500 150 c 2,19,-1
 800 150 l 1,20,-1
 800 0 l 1,21,-1
 450 0 l 2,22,23
 200 0 200 0 200 250 c 2,24,-1
 200 450 l 1,25,-1
 100 450 l 1,26,-1
 100 600 l 1,27,-1
 200 600 l 1,28,-1
 200 750 l 1,29,-1
 100 750 l 1,30,-1
 100 900 l 1,31,-1
 200 900 l 1,0,-1
EndSplineSet
EndChar

StartChar: trademark
Encoding: 8482 8482 247
Width: 1200
GlyphClass: 2
Flags: W
LayerCount: 2
Fore
SplineSet
500 1400 m 1,0,-1
 500 1300 l 1,1,-1
 350 1300 l 1,2,-1
 350 900 l 1,3,-1
 250 900 l 1,4,-1
 250 1300 l 1,5,-1
 100 1300 l 1,6,-1
 100 1400 l 1,7,-1
 500 1400 l 1,0,-1
750 1400 m 1,8,-1
 850 1030 l 1,9,-1
 950 1400 l 1,10,-1
 1100 1400 l 1,11,-1
 1100 900 l 1,12,-1
 1000 900 l 1,13,-1
 1000 1270 l 1,14,-1
 900 900 l 1,15,-1
 800 900 l 1,16,-1
 700 1270 l 1,17,-1
 700 900 l 1,18,-1
 600 900 l 1,19,-1
 600 1400 l 1,20,-1
 750 1400 l 1,8,-1
EndSplineSet
EndChar

StartChar: uniE500
Encoding: 58624 58624 248
Width: 1240
GlyphClass: 2
Flags: W
LayerCount: 2
Fore
SplineSet
960 1400 m 1,0,-1
 1190 0 l 1,1,-1
 1000 0 l 1,2,-1
 934 400 l 1,3,-1
 655 400 l 1,4,-1
 590 0 l 1,5,-1
 400 0 l 1,6,-1
 605 1250 l 1,7,-1
 400 1250 l 2,8,9
 300 1250 300 1250 300 1150 c 256,10,11
 300 1050 300 1050 400 1050 c 2,12,-1
 450 1050 l 1,13,-1
 450 900 l 1,14,-1
 350 900 l 2,15,16
 100 900 100 900 100 1150 c 256,17,18
 100 1400 100 1400 350 1400 c 2,19,-1
 960 1400 l 1,0,-1
680 550 m 1,20,-1
 909 550 l 1,21,-1
 795 1247 l 1,22,-1
 680 550 l 1,20,-1
EndSplineSet
EndChar

StartChar: uniE501
Encoding: 58625 58625 249
Width: 1300
GlyphClass: 2
Flags: W
LayerCount: 2
Fore
SplineSet
500 0 m 1,0,-1
 500 1250 l 1,1,-1
 400 1250 l 2,2,3
 300 1250 300 1250 300 1150 c 256,4,5
 300 1050 300 1050 400 1050 c 1,6,-1
 400 900 l 1,7,-1
 350 900 l 2,8,9
 100 900 100 900 100 1150 c 256,10,11
 100 1400 100 1400 350 1400 c 2,12,-1
 930 1400 l 2,13,14
 1180 1400 1180 1400 1180 1150 c 2,15,-1
 1180 1000 l 2,16,17
 1180 876 1180 876 1084 829 c 1,18,19
 1200 785 1200 785 1200 650 c 2,20,-1
 1200 250 l 2,21,22
 1200 0 1200 0 950 0 c 2,23,-1
 500 0 l 1,0,-1
900 150 m 2,24,25
 1000 150 1000 150 1000 250 c 2,26,-1
 1000 650 l 2,27,28
 1000 750 1000 750 900 750 c 2,29,-1
 700 750 l 1,30,-1
 700 150 l 1,31,-1
 900 150 l 2,24,25
700 1250 m 1,32,-1
 700 900 l 1,33,-1
 880 900 l 2,34,35
 980 900 980 900 980 1000 c 2,36,-1
 980 1150 l 2,37,38
 980 1250 980 1250 880 1250 c 2,39,-1
 700 1250 l 1,32,-1
EndSplineSet
EndChar

StartChar: uniE502
Encoding: 58626 58626 250
Width: 1300
GlyphClass: 2
Flags: W
LayerCount: 2
Fore
SplineSet
950 1400 m 2,0,1
 1200 1400 1200 1400 1200 1150 c 2,2,-1
 1200 250 l 2,3,4
 1200 0 1200 0 950 0 c 2,5,-1
 500 0 l 1,6,-1
 500 1250 l 1,7,-1
 400 1250 l 2,8,9
 300 1250 300 1250 300 1150 c 256,10,11
 300 1050 300 1050 400 1050 c 1,12,-1
 400 900 l 1,13,-1
 350 900 l 2,14,15
 100 900 100 900 100 1150 c 256,16,17
 100 1400 100 1400 350 1400 c 2,18,-1
 950 1400 l 2,0,1
700 1250 m 1,19,-1
 700 150 l 1,20,-1
 900 150 l 2,21,22
 1000 150 1000 150 1000 250 c 2,23,-1
 1000 1150 l 2,24,25
 1000 1250 1000 1250 900 1250 c 2,26,-1
 700 1250 l 1,19,-1
EndSplineSet
EndChar

StartChar: uniE503
Encoding: 58627 58627 251
Width: 1300
GlyphClass: 2
Flags: W
LayerCount: 2
Fore
SplineSet
700 1400 m 1,0,-1
 700 900 l 1,1,-1
 1000 900 l 1,2,-1
 1000 1400 l 1,3,-1
 1200 1400 l 1,4,-1
 1200 0 l 1,5,-1
 1000 0 l 1,6,-1
 1000 750 l 1,7,-1
 700 750 l 1,8,-1
 700 0 l 1,9,-1
 500 0 l 1,10,-1
 500 1250 l 1,11,-1
 400 1250 l 2,12,13
 300 1250 300 1250 300 1150 c 256,14,15
 300 1050 300 1050 400 1050 c 1,16,-1
 400 900 l 1,17,-1
 350 900 l 2,18,19
 100 900 100 900 100 1150 c 256,20,21
 100 1400 100 1400 350 1400 c 2,22,-1
 700 1400 l 1,0,-1
EndSplineSet
EndChar

StartChar: uniE504
Encoding: 58628 58628 252
Width: 1000
GlyphClass: 2
Flags: W
LayerCount: 2
Fore
SplineSet
900 1400 m 1,0,-1
 900 1250 l 1,1,-1
 750 1250 l 1,2,-1
 750 150 l 1,3,-1
 900 150 l 1,4,-1
 900 0 l 1,5,-1
 400 0 l 1,6,-1
 400 150 l 1,7,-1
 550 150 l 1,8,-1
 550 1250 l 1,9,-1
 400 1250 l 2,10,11
 300 1250 300 1250 300 1150 c 256,12,13
 300 1050 300 1050 400 1050 c 1,14,-1
 400 900 l 1,15,-1
 350 900 l 2,16,17
 100 900 100 900 100 1150 c 256,18,19
 100 1400 100 1400 350 1400 c 2,20,-1
 900 1400 l 1,0,-1
EndSplineSet
EndChar

StartChar: uniE505
Encoding: 58629 58629 253
Width: 800
GlyphClass: 2
Flags: W
LayerCount: 2
Fore
SplineSet
500 1250 m 1,0,-1
 400 1250 l 2,1,2
 300 1250 300 1250 300 1150 c 256,3,4
 300 1050 300 1050 400 1050 c 1,5,-1
 400 900 l 1,6,-1
 350 900 l 2,7,8
 100 900 100 900 100 1150 c 256,9,10
 100 1400 100 1400 350 1400 c 2,11,-1
 700 1400 l 1,12,-1
 700 250 l 2,13,14
 700 0 700 0 450 0 c 2,15,-1
 200 0 l 1,16,-1
 200 150 l 1,17,-1
 400 150 l 2,18,19
 500 150 500 150 500 250 c 2,20,-1
 500 1250 l 1,0,-1
EndSplineSet
EndChar

StartChar: uniE506
Encoding: 58630 58630 254
Width: 1300
GlyphClass: 2
Flags: W
LayerCount: 2
Fore
SplineSet
700 1400 m 1,0,-1
 700 900 l 1,1,-1
 800 900 l 1,2,-1
 1000 1400 l 1,3,-1
 1200 1400 l 1,4,-1
 997 897 l 1,5,6
 1200 875 1200 875 1200 650 c 2,7,-1
 1200 0 l 1,8,-1
 1000 0 l 1,9,-1
 1000 650 l 2,10,11
 1000 750 1000 750 900 750 c 2,12,-1
 700 750 l 1,13,-1
 700 0 l 1,14,-1
 500 0 l 1,15,-1
 500 1250 l 1,16,-1
 400 1250 l 2,17,18
 300 1250 300 1250 300 1150 c 256,19,20
 300 1050 300 1050 400 1050 c 1,21,-1
 400 900 l 1,22,-1
 350 900 l 2,23,24
 100 900 100 900 100 1150 c 256,25,26
 100 1400 100 1400 350 1400 c 2,27,-1
 700 1400 l 1,0,-1
EndSplineSet
EndChar

StartChar: uniE507
Encoding: 58631 58631 255
Width: 1200
GlyphClass: 2
Flags: W
LayerCount: 2
Fore
SplineSet
700 1400 m 1,0,-1
 700 250 l 2,1,2
 700 150 700 150 800 150 c 2,3,-1
 1100 150 l 1,4,-1
 1100 0 l 1,5,-1
 750 0 l 2,6,7
 500 0 500 0 500 250 c 2,8,-1
 500 1250 l 1,9,-1
 400 1250 l 2,10,11
 300 1250 300 1250 300 1150 c 256,12,13
 300 1050 300 1050 400 1050 c 1,14,-1
 400 900 l 1,15,-1
 350 900 l 2,16,17
 100 900 100 900 100 1150 c 256,18,19
 100 1400 100 1400 350 1400 c 2,20,-1
 700 1400 l 1,0,-1
EndSplineSet
EndChar

StartChar: uniE508
Encoding: 58632 58632 256
Width: 1600
GlyphClass: 2
Flags: W
LayerCount: 2
Fore
SplineSet
1500 0 m 1,0,-1
 1300 0 l 1,1,-1
 1300 1010 l 1,2,-1
 1120 200 l 1,3,-1
 880 200 l 1,4,-1
 700 1010 l 1,5,-1
 700 0 l 1,6,-1
 500 0 l 1,7,-1
 500 1250 l 1,8,-1
 400 1250 l 2,9,10
 300 1250 300 1250 300 1150 c 256,11,12
 300 1050 300 1050 400 1050 c 1,13,-1
 400 900 l 1,14,-1
 350 900 l 2,15,16
 100 900 100 900 100 1150 c 256,17,18
 100 1400 100 1400 350 1400 c 2,19,-1
 800 1400 l 1,20,-1
 1000 500 l 1,21,-1
 1200 1400 l 1,22,-1
 1500 1400 l 1,23,-1
 1500 0 l 1,0,-1
EndSplineSet
EndChar

StartChar: uniE509
Encoding: 58633 58633 257
Width: 1300
GlyphClass: 2
Flags: W
LayerCount: 2
Fore
SplineSet
1000 512 m 1,0,-1
 1000 1400 l 1,1,-1
 1200 1400 l 1,2,-1
 1200 0 l 1,3,-1
 970 0 l 1,4,-1
 700 922 l 1,5,-1
 700 0 l 1,6,-1
 500 0 l 1,7,-1
 500 1250 l 1,8,-1
 400 1250 l 2,9,10
 300 1250 300 1250 300 1150 c 256,11,12
 300 1050 300 1050 400 1050 c 1,13,-1
 400 900 l 1,14,-1
 350 900 l 2,15,16
 100 900 100 900 100 1150 c 256,17,18
 100 1400 100 1400 350 1400 c 2,19,-1
 740 1400 l 1,20,-1
 1000 512 l 1,0,-1
EndSplineSet
EndChar

StartChar: uniE50A
Encoding: 58634 58634 258
Width: 1300
GlyphClass: 2
Flags: W
LayerCount: 2
Fore
SplineSet
950 1400 m 2,0,1
 1200 1400 1200 1400 1200 1150 c 2,2,-1
 1200 650 l 2,3,4
 1200 400 1200 400 949 400 c 2,5,-1
 699 400 l 1,6,-1
 700 0 l 1,7,-1
 500 0 l 1,8,-1
 500 1250 l 1,9,-1
 400 1250 l 2,10,11
 300 1250 300 1250 300 1150 c 256,12,13
 300 1050 300 1050 400 1050 c 1,14,-1
 400 900 l 1,15,-1
 350 900 l 2,16,17
 100 900 100 900 100 1150 c 256,18,19
 100 1400 100 1400 350 1400 c 2,20,-1
 950 1400 l 2,0,1
700 1250 m 1,21,-1
 700 550 l 1,22,-1
 900 550 l 2,23,24
 1000 550 1000 550 1000 650 c 2,25,-1
 1000 1150 l 2,26,27
 1000 1250 1000 1250 900 1250 c 2,28,-1
 700 1250 l 1,21,-1
EndSplineSet
EndChar

StartChar: uniE50B
Encoding: 58635 58635 259
Width: 1300
GlyphClass: 2
Flags: W
LayerCount: 2
Fore
SplineSet
950 1400 m 2,0,1
 1200 1400 1200 1400 1200 1150 c 2,2,-1
 1200 650 l 2,3,4
 1200 472 1200 472 1073 421 c 1,5,-1
 1200 0 l 1,6,-1
 1000 0 l 1,7,-1
 880 400 l 1,8,-1
 699 400 l 1,9,-1
 700 0 l 1,10,-1
 500 0 l 1,11,-1
 500 1250 l 1,12,-1
 400 1250 l 2,13,14
 300 1250 300 1250 300 1150 c 256,15,16
 300 1050 300 1050 400 1050 c 1,17,-1
 400 900 l 1,18,-1
 350 900 l 2,19,20
 100 900 100 900 100 1150 c 256,21,22
 100 1400 100 1400 350 1400 c 2,23,-1
 950 1400 l 2,0,1
700 1250 m 1,24,-1
 700 550 l 1,25,-1
 900 550 l 2,26,27
 1000 550 1000 550 1000 650 c 2,28,-1
 1000 1150 l 2,29,30
 1000 1250 1000 1250 900 1250 c 2,31,-1
 700 1250 l 1,24,-1
EndSplineSet
EndChar

StartChar: uniE50C
Encoding: 58636 58636 260
Width: 1100
GlyphClass: 2
Flags: W
LayerCount: 2
Fore
SplineSet
1000 1400 m 1,0,-1
 1000 1250 l 1,1,-1
 750 1250 l 1,2,-1
 750 0 l 1,3,-1
 550 0 l 1,4,-1
 550 1250 l 1,5,-1
 400 1250 l 2,6,7
 300 1250 300 1250 300 1150 c 256,8,9
 300 1050 300 1050 400 1050 c 1,10,-1
 400 900 l 1,11,-1
 350 900 l 2,12,13
 100 900 100 900 100 1150 c 256,14,15
 100 1400 100 1400 350 1400 c 2,16,-1
 1000 1400 l 1,0,-1
EndSplineSet
EndChar

StartChar: uniE50D
Encoding: 58637 58637 261
Width: 1300
GlyphClass: 2
Flags: W
LayerCount: 2
Fore
SplineSet
1000 1400 m 1,0,-1
 1200 1400 l 1,1,-1
 1200 250 l 2,2,3
 1200 0 1200 0 950 0 c 2,4,-1
 750 0 l 2,5,6
 500 0 500 0 500 250 c 2,7,-1
 500 1250 l 1,8,-1
 400 1250 l 2,9,10
 300 1250 300 1250 300 1150 c 256,11,12
 300 1050 300 1050 400 1050 c 1,13,-1
 400 900 l 1,14,-1
 350 900 l 2,15,16
 100 900 100 900 100 1150 c 256,17,18
 100 1400 100 1400 350 1400 c 2,19,-1
 700 1400 l 1,20,-1
 700 250 l 2,21,22
 700 155 700 155 790 150 c 1,23,-1
 900 150 l 2,24,25
 1000 150 1000 150 1000 250 c 2,26,-1
 1000 1400 l 1,0,-1
EndSplineSet
EndChar

StartChar: uniE50E
Encoding: 58638 58638 262
Width: 1340
GlyphClass: 2
Flags: W
LayerCount: 2
Fore
SplineSet
730 0 m 1,0,-1
 524 1250 l 1,1,-1
 400 1250 l 2,2,3
 300 1250 300 1250 300 1150 c 256,4,5
 300 1050 300 1050 400 1050 c 1,6,-1
 400 900 l 1,7,-1
 350 900 l 2,8,9
 100 900 100 900 100 1150 c 256,10,11
 100 1400 100 1400 350 1400 c 2,12,-1
 690 1400 l 1,13,-1
 895 153 l 1,14,-1
 1100 1400 l 1,15,-1
 1290 1400 l 1,16,-1
 1060 0 l 1,17,-1
 730 0 l 1,0,-1
EndSplineSet
EndChar

StartChar: uniE50F
Encoding: 58639 58639 263
Width: 1890
GlyphClass: 2
Flags: W
LayerCount: 2
Fore
SplineSet
720 0 m 1,0,-1
 523 1250 l 1,1,-1
 400 1250 l 2,2,3
 300 1250 300 1250 300 1150 c 256,4,5
 300 1050 300 1050 400 1050 c 1,6,-1
 400 900 l 1,7,-1
 350 900 l 2,8,9
 100 900 100 900 100 1150 c 256,10,11
 100 1400 100 1400 350 1400 c 2,12,-1
 690 1400 l 1,13,-1
 860 318 l 1,14,-1
 1030 1400 l 1,15,-1
 1310 1400 l 1,16,-1
 1480 318 l 1,17,-1
 1650 1400 l 1,18,-1
 1840 1400 l 1,19,-1
 1620 0 l 1,20,-1
 1340 0 l 1,21,-1
 1170 1082 l 1,22,-1
 1000 0 l 1,23,-1
 720 0 l 1,0,-1
EndSplineSet
EndChar

StartChar: uniE510
Encoding: 58640 58640 264
Width: 1200
GlyphClass: 2
Flags: W
LayerCount: 2
Fore
SplineSet
1150 1400 m 1,0,-1
 875 700 l 1,1,-1
 1150 0 l 1,2,-1
 950 0 l 1,3,-1
 775 445 l 1,4,-1
 600 0 l 1,5,-1
 400 0 l 1,6,-1
 675 700 l 1,7,-1
 459 1250 l 1,8,-1
 400 1250 l 2,9,10
 300 1250 300 1250 300 1150 c 256,11,12
 300 1050 300 1050 400 1050 c 1,13,-1
 400 900 l 1,14,-1
 350 900 l 2,15,16
 100 900 100 900 100 1150 c 256,17,18
 100 1400 100 1400 350 1400 c 2,19,-1
 600 1400 l 1,20,-1
 775 954 l 1,21,-1
 950 1400 l 1,22,-1
 1150 1400 l 1,0,-1
EndSplineSet
EndChar

StartChar: uniE511
Encoding: 58641 58641 265
Width: 1300
GlyphClass: 2
Flags: W
LayerCount: 2
Fore
SplineSet
1000 1400 m 1,0,-1
 1200 1400 l 1,1,-1
 1200 650 l 2,2,3
 1200 400 1200 400 950 400 c 1,4,-1
 950 0 l 1,5,-1
 750 0 l 1,6,-1
 750 400 l 1,7,8
 500 400 500 400 500 650 c 2,9,-1
 500 1250 l 1,10,-1
 400 1250 l 2,11,12
 300 1250 300 1250 300 1150 c 256,13,14
 300 1050 300 1050 400 1050 c 1,15,-1
 400 900 l 1,16,-1
 350 900 l 2,17,18
 100 900 100 900 100 1150 c 256,19,20
 100 1400 100 1400 350 1400 c 2,21,-1
 700 1400 l 1,22,-1
 700 650 l 2,23,24
 700 550 700 550 800 550 c 2,25,-1
 909 550 l 1,26,27
 1000 555 1000 555 1000 650 c 2,28,-1
 1000 1400 l 1,0,-1
EndSplineSet
EndChar

StartChar: uniE512
Encoding: 58642 58642 266
Width: 1670
GlyphClass: 2
Flags: W
LayerCount: 2
Fore
SplineSet
1170 250 m 2,0,1
 1170 150 1170 150 1270 150 c 2,2,-1
 1570 150 l 1,3,-1
 1570 0 l 1,4,-1
 1220 0 l 2,5,6
 970 0 970 0 970 250 c 2,7,-1
 970 400 l 1,8,-1
 655 400 l 1,9,-1
 590 0 l 1,10,-1
 400 0 l 1,11,-1
 605 1250 l 1,12,-1
 400 1250 l 2,13,14
 300 1250 300 1250 300 1150 c 256,15,16
 300 1050 300 1050 400 1050 c 2,17,-1
 450 1050 l 1,18,-1
 450 900 l 1,19,-1
 350 900 l 2,20,21
 100 900 100 900 100 1150 c 256,22,23
 100 1400 100 1400 350 1400 c 2,24,-1
 1520 1400 l 1,25,-1
 1520 1250 l 1,26,-1
 1170 1250 l 1,27,-1
 1170 900 l 1,28,-1
 1420 900 l 1,29,-1
 1420 750 l 1,30,-1
 1170 750 l 1,31,-1
 1170 250 l 2,0,1
970 1250 m 1,32,-1
 795 1250 l 1,33,-1
 680 550 l 1,34,-1
 970 550 l 1,35,-1
 970 1250 l 1,32,-1
EndSplineSet
EndChar

StartChar: uniE513
Encoding: 58643 58643 267
Width: 1300
GlyphClass: 2
Flags: W
LayerCount: 2
Fore
SplineSet
950 1200 m 2,0,1
 1200 1200 1200 1200 1200 950 c 2,2,-1
 1200 450 l 2,3,4
 1200 200 1200 200 949 200 c 2,5,-1
 699 200 l 1,6,-1
 700 0 l 1,7,-1
 500 0 l 1,8,-1
 500 1250 l 1,9,-1
 400 1250 l 2,10,11
 300 1250 300 1250 300 1150 c 256,12,13
 300 1050 300 1050 400 1050 c 1,14,-1
 400 900 l 1,15,-1
 350 900 l 2,16,17
 100 900 100 900 100 1150 c 256,18,19
 100 1400 100 1400 350 1400 c 2,20,-1
 700 1400 l 1,21,-1
 700 1200 l 1,22,-1
 950 1200 l 2,0,1
700 350 m 1,23,-1
 900 350 l 2,24,25
 1000 350 1000 350 1000 450 c 2,26,-1
 1000 950 l 2,27,28
 1000 1050 1000 1050 900 1050 c 2,29,-1
 700 1050 l 1,30,-1
 700 350 l 1,23,-1
EndSplineSet
EndChar

StartChar: uniE514
Encoding: 58644 58644 268
Width: 600
GlyphClass: 2
Flags: W
LayerCount: 2
Fore
SplineSet
400 900 m 1,0,-1
 400 250 l 2,1,2
 400 150 400 150 500 150 c 2,3,-1
 550 150 l 1,4,-1
 550 0 l 1,5,-1
 450 0 l 2,6,7
 200 0 200 0 200 250 c 2,8,-1
 200 750 l 1,9,-1
 100 750 l 1,10,-1
 100 900 l 1,11,-1
 400 900 l 1,0,-1
400 1300 m 1,12,-1
 400 1100 l 1,13,-1
 200 1100 l 1,14,-1
 200 1300 l 1,15,-1
 400 1300 l 1,12,-1
EndSplineSet
EndChar

StartChar: uniE515
Encoding: 58645 58645 269
Width: 860
GlyphClass: 2
Flags: W
LayerCount: 2
Fore
SplineSet
300 1400 m 1,0,-1
 300 600 l 1,1,-1
 432 600 l 1,2,-1
 560 900 l 1,3,-1
 760 900 l 1,4,-1
 623 579 l 1,5,6
 750 528 750 528 750 350 c 2,7,-1
 750 0 l 1,8,-1
 550 0 l 1,9,-1
 550 350 l 2,10,11
 550 450 550 450 450 450 c 2,12,-1
 300 450 l 1,13,-1
 300 0 l 1,14,-1
 100 0 l 1,15,-1
 100 450 l 1,16,-1
 0 450 l 1,17,-1
 0 600 l 1,18,-1
 100 600 l 1,19,-1
 100 1400 l 1,20,-1
 300 1400 l 1,0,-1
EndSplineSet
EndChar

StartChar: uniE516
Encoding: 58646 58646 270
Width: 800
GlyphClass: 2
Flags: W
LayerCount: 2
Fore
SplineSet
300 1250 m 1,0,-1
 550 1250 l 1,1,-1
 650 1100 l 1,2,3
 650 1000 650 1000 550 900 c 1,4,-1
 700 900 l 1,5,-1
 700 750 l 1,6,-1
 300 750 l 1,7,-1
 300 0 l 1,8,-1
 100 0 l 1,9,-1
 100 750 l 1,10,-1
 0 750 l 1,11,-1
 0 900 l 1,12,-1
 100 900 l 1,13,-1
 100 1400 l 1,14,-1
 300 1400 l 1,15,-1
 300 1250 l 1,0,-1
350 900 m 1,16,17
 450 1000 450 1000 450 1100 c 1,18,-1
 300 1100 l 1,19,-1
 300 900 l 1,20,-1
 350 900 l 1,16,17
EndSplineSet
EndChar

StartChar: uniE517
Encoding: 58647 58647 271
Width: 800
GlyphClass: 2
Flags: W
LayerCount: 2
Fore
SplineSet
300 1250 m 1,0,-1
 550 1250 l 1,1,-1
 650 1100 l 1,2,3
 650 1000 650 1000 550 900 c 1,4,-1
 700 900 l 1,5,-1
 700 750 l 1,6,-1
 300 750 l 1,7,-1
 300 250 l 2,8,9
 300 150 300 150 400 150 c 2,10,-1
 450 150 l 1,11,-1
 450 0 l 1,12,-1
 350 0 l 2,13,14
 100 0 100 0 100 250 c 2,15,-1
 100 750 l 1,16,-1
 0 750 l 1,17,-1
 0 900 l 1,18,-1
 100 900 l 1,19,-1
 100 1400 l 1,20,-1
 300 1400 l 1,21,-1
 300 1250 l 1,0,-1
350 900 m 1,22,23
 450 1000 450 1000 450 1100 c 1,24,-1
 300 1100 l 1,25,-1
 300 900 l 1,26,-1
 350 900 l 1,22,23
EndSplineSet
EndChar

StartChar: uniE518
Encoding: 58648 58648 272
Width: 850
GlyphClass: 2
Flags: W
LayerCount: 2
Fore
SplineSet
300 1250 m 1,0,-1
 550 1250 l 1,1,-1
 650 1100 l 1,2,3
 650 1000 650 1000 550 900 c 1,4,5
 750 893 750 893 750 650 c 2,6,-1
 750 0 l 1,7,-1
 550 0 l 1,8,-1
 550 650 l 2,9,10
 550 750 550 750 450 750 c 2,11,-1
 300 750 l 1,12,-1
 300 0 l 1,13,-1
 100 0 l 1,14,-1
 100 750 l 1,15,-1
 0 750 l 1,16,-1
 0 900 l 1,17,-1
 100 900 l 1,18,-1
 100 1400 l 1,19,-1
 300 1400 l 1,20,-1
 300 1250 l 1,0,-1
350 900 m 1,21,22
 450 1000 450 1000 450 1100 c 1,23,-1
 300 1100 l 1,24,-1
 300 900 l 1,25,-1
 350 900 l 1,21,22
EndSplineSet
EndChar

StartChar: uniE519
Encoding: 58649 58649 273
Width: 600
GlyphClass: 2
Flags: W
LayerCount: 2
Fore
SplineSet
400 1400 m 1,0,-1
 400 250 l 2,1,2
 400 150 400 150 500 150 c 2,3,-1
 550 150 l 1,4,-1
 550 0 l 1,5,-1
 450 0 l 2,6,7
 200 0 200 0 200 250 c 2,8,-1
 200 1250 l 1,9,-1
 100 1250 l 1,10,-1
 100 1400 l 1,11,-1
 400 1400 l 1,0,-1
EndSplineSet
EndChar

StartChar: uniE51A
Encoding: 58650 58650 274
Width: 850
GlyphClass: 2
Flags: W
LayerCount: 2
Fore
SplineSet
750 -500 m 1,0,-1
 550 -500 l 1,1,-1
 550 0 l 1,2,-1
 350 0 l 2,3,4
 100 0 100 0 100 250 c 2,5,-1
 100 650 l 2,6,7
 100 900 100 900 350 900 c 2,8,-1
 550 900 l 1,9,-1
 600 800 l 1,10,-1
 650 900 l 1,11,-1
 750 900 l 1,12,-1
 750 -325 l 1,13,-1
 950 -175 l 1,14,-1
 950 -350 l 1,15,-1
 750 -500 l 1,0,-1
550 750 m 1,16,-1
 400 750 l 2,17,18
 300 750 300 750 300 650 c 2,19,-1
 300 250 l 2,20,21
 300 150 300 150 400 150 c 2,22,-1
 550 150 l 1,23,-1
 550 750 l 1,16,-1
EndSplineSet
EndChar

StartChar: uniE51B
Encoding: 58651 58651 275
Width: 600
GlyphClass: 2
Flags: W
LayerCount: 2
Fore
SplineSet
100 0 m 1,0,-1
 100 900 l 1,1,-1
 200 900 l 1,2,-1
 250 800 l 1,3,-1
 300 900 l 1,4,-1
 500 900 l 1,5,-1
 500 750 l 1,6,-1
 300 750 l 1,7,-1
 300 0 l 1,8,-1
 100 0 l 1,0,-1
EndSplineSet
EndChar

StartChar: uniE51C
Encoding: 58652 58652 276
Width: 900
GlyphClass: 2
Flags: W
LayerCount: 2
Fore
SplineSet
600 300 m 2,0,1
 600 400 600 400 500 400 c 2,2,-1
 375 400 l 2,3,4
 125 400 125 400 125 650 c 256,5,6
 125 900 125 900 375 900 c 2,7,-1
 750 900 l 1,8,-1
 750 750 l 1,9,-1
 425 750 l 2,10,11
 325 750 325 750 325 650 c 256,12,13
 325 550 325 550 425 550 c 2,14,-1
 550 550 l 2,15,16
 800 550 800 550 800 300 c 2,17,-1
 800 250 l 2,18,19
 800 0 800 0 550 0 c 2,20,-1
 100 0 l 1,21,-1
 100 150 l 1,22,-1
 500 150 l 2,23,24
 600 150 600 150 600 250 c 2,25,-1
 600 300 l 2,0,1
EndSplineSet
EndChar

StartChar: uniE51D
Encoding: 58653 58653 277
Width: 600
GlyphClass: 2
Flags: W
LayerCount: 2
Fore
SplineSet
400 900 m 1,0,-1
 500 900 l 1,1,-1
 500 750 l 1,2,-1
 400 750 l 1,3,-1
 400 0 l 1,4,-1
 200 0 l 1,5,-1
 200 750 l 1,6,-1
 100 750 l 1,7,-1
 100 900 l 1,8,-1
 200 900 l 1,9,-1
 200 1200 l 1,10,-1
 400 1300 l 1,11,-1
 400 900 l 1,0,-1
EndSplineSet
EndChar

StartChar: uniE51E
Encoding: 58654 58654 278
Width: 940
GlyphClass: 2
Flags: W
LayerCount: 2
Fore
SplineSet
660 1400 m 1,0,-1
 890 0 l 1,1,-1
 700 0 l 1,2,-1
 634 400 l 1,3,-1
 355 400 l 1,4,-1
 290 0 l 1,5,-1
 100 0 l 1,6,-1
 165 400 l 1,7,-1
 50 400 l 1,8,-1
 50 550 l 1,9,-1
 190 550 l 1,10,-1
 330 1400 l 1,11,-1
 660 1400 l 1,0,-1
380 550 m 1,12,-1
 609 550 l 1,13,-1
 495 1247 l 1,14,-1
 380 550 l 1,12,-1
EndSplineSet
EndChar

StartChar: uniE51F
Encoding: 58655 58655 279
Width: 1000
GlyphClass: 2
Flags: W
LayerCount: 2
Fore
SplineSet
200 0 m 1,0,-1
 200 750 l 1,1,-1
 100 750 l 1,2,-1
 100 900 l 1,3,-1
 200 900 l 1,4,-1
 200 1400 l 1,5,-1
 630 1400 l 2,6,7
 880 1400 880 1400 880 1150 c 2,8,-1
 880 1000 l 2,9,10
 880 876 880 876 784 829 c 1,11,12
 900 785 900 785 900 650 c 2,13,-1
 900 250 l 2,14,15
 900 0 900 0 650 0 c 2,16,-1
 200 0 l 1,0,-1
600 150 m 2,17,18
 700 150 700 150 700 250 c 2,19,-1
 700 650 l 2,20,21
 700 750 700 750 600 750 c 2,22,-1
 400 750 l 1,23,-1
 400 150 l 1,24,-1
 600 150 l 2,17,18
400 1250 m 1,25,-1
 400 900 l 1,26,-1
 580 900 l 2,27,28
 680 900 680 900 680 1000 c 2,29,-1
 680 1150 l 2,30,31
 680 1250 680 1250 580 1250 c 2,32,-1
 400 1250 l 1,25,-1
EndSplineSet
EndChar

StartChar: uniE520
Encoding: 58656 58656 280
Width: 900
GlyphClass: 2
Flags: W
LayerCount: 2
Fore
SplineSet
400 900 m 1,0,-1
 650 900 l 1,1,-1
 650 750 l 1,2,-1
 400 750 l 1,3,-1
 400 250 l 2,4,5
 400 150 400 150 500 150 c 2,6,-1
 800 150 l 1,7,-1
 800 0 l 1,8,-1
 450 0 l 2,9,10
 200 0 200 0 200 250 c 2,11,-1
 200 750 l 1,12,-1
 100 750 l 1,13,-1
 100 900 l 1,14,-1
 200 900 l 1,15,-1
 200 1150 l 2,16,17
 200 1400 200 1400 450 1400 c 2,18,-1
 750 1400 l 1,19,-1
 750 1250 l 1,20,-1
 500 1250 l 2,21,22
 400 1250 400 1250 400 1150 c 2,23,-1
 400 900 l 1,0,-1
EndSplineSet
EndChar

StartChar: uniE521
Encoding: 58657 58657 281
Width: 850
GlyphClass: 2
Flags: W
LayerCount: 2
Fore
SplineSet
400 900 m 1,0,-1
 650 900 l 1,1,-1
 650 750 l 1,2,-1
 400 750 l 1,3,-1
 400 0 l 1,4,-1
 200 0 l 1,5,-1
 200 750 l 1,6,-1
 100 750 l 1,7,-1
 100 900 l 1,8,-1
 200 900 l 1,9,-1
 200 1150 l 2,10,11
 200 1400 200 1400 450 1400 c 2,12,-1
 750 1400 l 1,13,-1
 750 1250 l 1,14,-1
 500 1250 l 2,15,16
 400 1250 400 1250 400 1150 c 2,17,-1
 400 900 l 1,0,-1
EndSplineSet
EndChar

StartChar: uniE522
Encoding: 58658 58658 282
Width: 1000
GlyphClass: 2
Flags: W
LayerCount: 2
Fore
SplineSet
400 1400 m 1,0,-1
 400 900 l 1,1,-1
 700 900 l 1,2,-1
 700 1400 l 1,3,-1
 900 1400 l 1,4,-1
 900 0 l 1,5,-1
 700 0 l 1,6,-1
 700 750 l 1,7,-1
 400 750 l 1,8,-1
 400 0 l 1,9,-1
 200 0 l 1,10,-1
 200 750 l 1,11,-1
 100 750 l 1,12,-1
 100 900 l 1,13,-1
 200 900 l 1,14,-1
 200 1400 l 1,15,-1
 400 1400 l 1,0,-1
EndSplineSet
EndChar

StartChar: uniE523
Encoding: 58659 58659 283
Width: 900
GlyphClass: 2
Flags: W
LayerCount: 2
Fore
SplineSet
300 1400 m 1,0,-1
 300 900 l 1,1,-1
 400 900 l 1,2,-1
 600 1400 l 1,3,-1
 800 1400 l 1,4,-1
 597 897 l 1,5,6
 800 875 800 875 800 650 c 2,7,-1
 800 0 l 1,8,-1
 600 0 l 1,9,-1
 600 650 l 2,10,11
 600 750 600 750 500 750 c 2,12,-1
 300 750 l 1,13,-1
 300 0 l 1,14,-1
 100 0 l 1,15,-1
 100 750 l 1,16,-1
 0 750 l 1,17,-1
 0 900 l 1,18,-1
 100 900 l 1,19,-1
 100 1400 l 1,20,-1
 300 1400 l 1,0,-1
EndSplineSet
EndChar

StartChar: uniE524
Encoding: 58660 58660 284
Width: 1000
GlyphClass: 2
Flags: W
LayerCount: 2
Fore
SplineSet
650 1400 m 2,0,1
 900 1400 900 1400 900 1150 c 2,2,-1
 900 650 l 2,3,4
 900 400 900 400 649 400 c 2,5,-1
 399 400 l 1,6,-1
 400 0 l 1,7,-1
 200 0 l 1,8,-1
 200 400 l 1,9,-1
 100 400 l 1,10,-1
 100 550 l 1,11,-1
 200 550 l 1,12,-1
 200 1400 l 1,13,-1
 650 1400 l 2,0,1
400 1250 m 1,14,-1
 400 550 l 1,15,-1
 600 550 l 2,16,17
 700 550 700 550 700 650 c 2,18,-1
 700 1150 l 2,19,20
 700 1250 700 1250 600 1250 c 2,21,-1
 400 1250 l 1,14,-1
EndSplineSet
EndChar

StartChar: uniE525
Encoding: 58661 58661 285
Width: 1000
GlyphClass: 2
Flags: W
LayerCount: 2
Fore
SplineSet
650 1400 m 2,0,1
 900 1400 900 1400 900 1150 c 2,2,-1
 900 650 l 2,3,4
 900 472 900 472 773 421 c 1,5,-1
 900 0 l 1,6,-1
 700 0 l 1,7,-1
 580 400 l 1,8,-1
 399 400 l 1,9,-1
 400 0 l 1,10,-1
 200 0 l 1,11,-1
 200 400 l 1,12,-1
 100 400 l 1,13,-1
 100 550 l 1,14,-1
 200 550 l 1,15,-1
 200 1400 l 1,16,-1
 650 1400 l 2,0,1
400 1250 m 1,17,-1
 400 550 l 1,18,-1
 600 550 l 2,19,20
 700 550 700 550 700 650 c 2,21,-1
 700 1150 l 2,22,23
 700 1250 700 1250 600 1250 c 2,24,-1
 400 1250 l 1,17,-1
EndSplineSet
EndChar

StartChar: uniE526
Encoding: 58662 58662 286
Width: 1370
GlyphClass: 2
Flags: W
LayerCount: 2
Fore
SplineSet
870 250 m 2,0,1
 870 150 870 150 970 150 c 2,2,-1
 1270 150 l 1,3,-1
 1270 0 l 1,4,-1
 920 0 l 2,5,6
 670 0 670 0 670 250 c 2,7,-1
 670 400 l 1,8,-1
 355 400 l 1,9,-1
 290 0 l 1,10,-1
 100 0 l 1,11,-1
 165 400 l 1,12,-1
 50 400 l 1,13,-1
 50 550 l 1,14,-1
 190 550 l 1,15,-1
 330 1400 l 1,16,-1
 1220 1400 l 1,17,-1
 1220 1250 l 1,18,-1
 870 1250 l 1,19,-1
 870 900 l 1,20,-1
 1120 900 l 1,21,-1
 1120 750 l 1,22,-1
 870 750 l 1,23,-1
 870 250 l 2,0,1
670 1250 m 1,24,-1
 495 1250 l 1,25,-1
 380 550 l 1,26,-1
 670 550 l 1,27,-1
 670 1250 l 1,24,-1
EndSplineSet
EndChar

StartChar: uniE527
Encoding: 58663 58663 287
Width: 1240
GlyphClass: 2
Flags: W
LayerCount: 2
Fore
SplineSet
490 550 m 1,0,-1
 605 1250 l 1,1,-1
 400 1250 l 2,2,3
 300 1250 300 1250 300 1150 c 256,4,5
 300 1050 300 1050 400 1050 c 2,6,-1
 450 1050 l 1,7,-1
 450 900 l 1,8,-1
 350 900 l 2,9,10
 100 900 100 900 100 1150 c 256,11,12
 100 1400 100 1400 350 1400 c 2,13,-1
 960 1400 l 1,14,-1
 1190 0 l 1,15,-1
 1000 0 l 1,16,-1
 934 400 l 1,17,-1
 655 400 l 1,18,-1
 590 0 l 1,19,-1
 400 0 l 1,20,-1
 465 400 l 1,21,-1
 350 400 l 1,22,-1
 350 550 l 1,23,-1
 490 550 l 1,0,-1
680 550 m 1,24,-1
 909 550 l 1,25,-1
 795 1247 l 1,26,-1
 680 550 l 1,24,-1
EndSplineSet
EndChar

StartChar: uniE528
Encoding: 58664 58664 288
Width: 1300
GlyphClass: 2
Flags: W
LayerCount: 2
Fore
SplineSet
500 550 m 1,0,-1
 500 1250 l 1,1,-1
 400 1250 l 2,2,3
 300 1250 300 1250 300 1150 c 256,4,5
 300 1050 300 1050 400 1050 c 1,6,-1
 400 900 l 1,7,-1
 350 900 l 2,8,9
 100 900 100 900 100 1150 c 256,10,11
 100 1400 100 1400 350 1400 c 2,12,-1
 950 1400 l 2,13,14
 1200 1400 1200 1400 1200 1150 c 2,15,-1
 1200 650 l 2,16,17
 1200 400 1200 400 949 400 c 2,18,-1
 699 400 l 1,19,-1
 700 0 l 1,20,-1
 500 0 l 1,21,-1
 500 400 l 1,22,-1
 400 400 l 1,23,-1
 400 550 l 1,24,-1
 500 550 l 1,0,-1
700 1250 m 1,25,-1
 700 550 l 1,26,-1
 900 550 l 2,27,28
 1000 550 1000 550 1000 650 c 2,29,-1
 1000 1150 l 2,30,31
 1000 1250 1000 1250 900 1250 c 2,32,-1
 700 1250 l 1,25,-1
EndSplineSet
EndChar

StartChar: uniE529
Encoding: 58665 58665 289
Width: 1300
GlyphClass: 2
Flags: W
LayerCount: 2
Fore
SplineSet
500 550 m 1,0,-1
 500 1250 l 1,1,-1
 400 1250 l 2,2,3
 300 1250 300 1250 300 1150 c 256,4,5
 300 1050 300 1050 400 1050 c 1,6,-1
 400 900 l 1,7,-1
 350 900 l 2,8,9
 100 900 100 900 100 1150 c 256,10,11
 100 1400 100 1400 350 1400 c 2,12,-1
 950 1400 l 2,13,14
 1200 1400 1200 1400 1200 1150 c 2,15,-1
 1200 650 l 2,16,17
 1200 472 1200 472 1073 421 c 1,18,-1
 1200 0 l 1,19,-1
 1000 0 l 1,20,-1
 880 400 l 1,21,-1
 699 400 l 1,22,-1
 700 0 l 1,23,-1
 500 0 l 1,24,-1
 500 400 l 1,25,-1
 400 400 l 1,26,-1
 400 550 l 1,27,-1
 500 550 l 1,0,-1
700 1250 m 1,28,-1
 700 550 l 1,29,-1
 900 550 l 2,30,31
 1000 550 1000 550 1000 650 c 2,32,-1
 1000 1150 l 2,33,34
 1000 1250 1000 1250 900 1250 c 2,35,-1
 700 1250 l 1,28,-1
EndSplineSet
EndChar

StartChar: uniE52A
Encoding: 58666 58666 290
Width: 1670
GlyphClass: 2
Flags: W
LayerCount: 2
Fore
SplineSet
440 550 m 1,0,-1
 555 1250 l 1,1,-1
 400 1250 l 2,2,3
 300 1250 300 1250 300 1150 c 256,4,5
 300 1050 300 1050 400 1050 c 1,6,-1
 400 900 l 1,7,-1
 350 900 l 2,8,9
 100 900 100 900 100 1150 c 256,10,11
 100 1400 100 1400 350 1400 c 2,12,-1
 1470 1400 l 1,13,-1
 1470 1250 l 1,14,-1
 1120 1250 l 1,15,-1
 1120 900 l 1,16,-1
 1370 900 l 1,17,-1
 1370 750 l 1,18,-1
 1120 750 l 1,19,-1
 1120 250 l 2,20,21
 1120 150 1120 150 1220 150 c 2,22,-1
 1520 150 l 1,23,-1
 1520 0 l 1,24,-1
 1170 0 l 2,25,26
 920 0 920 0 920 250 c 2,27,-1
 920 400 l 1,28,-1
 605 400 l 1,29,-1
 540 0 l 1,30,-1
 350 0 l 1,31,-1
 415 400 l 1,32,-1
 300 400 l 1,33,-1
 300 550 l 1,34,-1
 440 550 l 1,0,-1
920 1250 m 1,35,-1
 745 1250 l 1,36,-1
 630 550 l 1,37,-1
 920 550 l 1,38,-1
 920 1250 l 1,35,-1
EndSplineSet
EndChar

StartChar: uniE52B
Encoding: 58667 58667 291
Width: 900
GlyphClass: 2
Flags: W
LayerCount: 2
Fore
SplineSet
600 650 m 2,0,1
 600 750 600 750 500 750 c 2,2,-1
 350 750 l 2,3,4
 100 750 100 750 100 1000 c 2,5,-1
 100 1150 l 2,6,7
 100 1400 100 1400 350 1400 c 2,8,-1
 750 1400 l 1,9,-1
 750 1250 l 1,10,-1
 400 1250 l 2,11,12
 300 1250 300 1250 300 1150 c 2,13,-1
 300 1000 l 2,14,15
 300 900 300 900 400 900 c 2,16,-1
 550 900 l 2,17,18
 800 900 800 900 800 650 c 2,19,-1
 800 250 l 2,20,21
 800 0 800 0 550 0 c 2,22,-1
 100 0 l 1,23,-1
 100 150 l 1,24,-1
 500 150 l 2,25,26
 600 150 600 150 600 250 c 2,27,-1
 600 650 l 2,0,1
EndSplineSet
EndChar

StartChar: uniE52C
Encoding: 58668 58668 292
Width: 900
GlyphClass: 2
Flags: W
LayerCount: 2
Fore
SplineSet
500 1600 m 1,0,-1
 500 1400 l 1,1,-1
 750 1400 l 1,2,-1
 750 1250 l 1,3,-1
 500 1250 l 1,4,-1
 500 900 l 1,5,-1
 550 900 l 2,6,7
 800 900 800 900 800 650 c 2,8,-1
 800 250 l 2,9,10
 800 0 800 0 550 0 c 2,11,-1
 500 0 l 1,12,-1
 500 -200 l 1,13,-1
 400 -200 l 1,14,-1
 400 0 l 1,15,-1
 100 0 l 1,16,-1
 100 150 l 1,17,-1
 400 150 l 1,18,-1
 400 750 l 1,19,-1
 350 750 l 2,20,21
 100 750 100 750 100 1000 c 2,22,-1
 100 1150 l 2,23,24
 100 1400 100 1400 350 1400 c 2,25,-1
 400 1400 l 1,26,-1
 400 1600 l 1,27,-1
 500 1600 l 1,0,-1
600 650 m 2,28,29
 600 750 600 750 500 750 c 1,30,-1
 500 150 l 1,31,32
 600 150 600 150 600 250 c 2,33,-1
 600 650 l 2,28,29
300 1000 m 2,34,35
 300 900 300 900 400 900 c 1,36,-1
 400 1250 l 1,37,38
 300 1250 300 1250 300 1150 c 2,39,-1
 300 1000 l 2,34,35
EndSplineSet
EndChar

StartChar: uniE52D
Encoding: 58669 58669 293
Width: 850
GlyphClass: 2
Flags: W
LayerCount: 2
Fore
SplineSet
100 650 m 2,0,1
 100 900 100 900 350 900 c 2,2,-1
 500 900 l 2,3,4
 750 900 750 900 750 650 c 2,5,-1
 750 250 l 2,6,7
 750 0 750 0 500 0 c 2,8,-1
 350 0 l 2,9,10
 100 0 100 0 100 250 c 2,11,-1
 100 650 l 2,0,1
550 650 m 2,12,13
 550 750 550 750 450 750 c 2,14,-1
 400 750 l 2,15,16
 300 750 300 750 300 650 c 2,17,-1
 300 250 l 2,18,19
 300 155 300 155 390 150 c 1,20,-1
 459 150 l 1,21,22
 550 155 550 155 550 250 c 2,23,-1
 550 650 l 2,12,13
EndSplineSet
EndChar

StartChar: uniE52E
Encoding: 58670 58670 294
Width: 700
GlyphClass: 2
Flags: W
LayerCount: 2
Fore
SplineSet
450 900 m 1,0,-1
 450 150 l 1,1,-1
 600 150 l 1,2,-1
 600 0 l 1,3,-1
 100 0 l 1,4,-1
 100 150 l 1,5,-1
 250 150 l 1,6,-1
 250 725 l 1,7,-1
 100 625 l 1,8,-1
 100 800 l 1,9,-1
 250 900 l 1,10,-1
 450 900 l 1,0,-1
EndSplineSet
EndChar

StartChar: uniE52F
Encoding: 58671 58671 295
Width: 900
GlyphClass: 2
Flags: W
LayerCount: 2
Fore
SplineSet
300 150 m 1,0,-1
 800 150 l 1,1,-1
 800 0 l 1,2,-1
 100 0 l 1,3,-1
 100 300 l 2,4,5
 100 550 100 550 350 550 c 2,6,-1
 475 550 l 2,7,8
 575 550 575 550 575 650 c 256,9,10
 575 750 575 750 475 750 c 2,11,-1
 150 750 l 1,12,-1
 150 900 l 1,13,-1
 525 900 l 2,14,15
 775 900 775 900 775 650 c 256,16,17
 775 400 775 400 525 400 c 2,18,-1
 400 400 l 2,19,20
 300 400 300 400 300 300 c 2,21,-1
 300 150 l 1,0,-1
EndSplineSet
EndChar

StartChar: uniE530
Encoding: 58672 58672 296
Width: 900
GlyphClass: 2
Flags: W
LayerCount: 2
Fore
SplineSet
100 -350 m 1,0,-1
 500 -350 l 2,1,2
 600 -350 600 -350 600 -250 c 2,3,-1
 600 150 l 2,4,5
 600 250 600 250 500 250 c 2,6,-1
 250 250 l 1,7,-1
 249 350 l 1,8,-1
 250 350 l 1,9,-1
 250 400 l 1,10,-1
 480 400 l 2,11,12
 580 400 580 400 580 500 c 2,13,-1
 580 650 l 2,14,15
 580 750 580 750 480 750 c 2,16,-1
 150 750 l 1,17,-1
 150 900 l 1,18,-1
 530 900 l 2,19,20
 780 900 780 900 780 650 c 2,21,-1
 780 500 l 2,22,23
 780 376 780 376 684 329 c 1,24,25
 800 285 800 285 800 150 c 2,26,-1
 800 -250 l 2,27,28
 800 -500 800 -500 550 -500 c 2,29,-1
 100 -500 l 1,30,-1
 100 -350 l 1,0,-1
EndSplineSet
EndChar

StartChar: uniE531
Encoding: 58673 58673 297
Width: 900
GlyphClass: 2
Flags: W
LayerCount: 2
Fore
SplineSet
300 900 m 1,0,-1
 300 150 l 1,1,-1
 600 150 l 1,2,-1
 600 900 l 1,3,-1
 800 900 l 1,4,-1
 800 -500 l 1,5,-1
 600 -500 l 1,6,-1
 600 0 l 1,7,-1
 100 0 l 1,8,-1
 100 900 l 1,9,-1
 300 900 l 1,0,-1
EndSplineSet
EndChar

StartChar: uniE532
Encoding: 58674 58674 298
Width: 900
GlyphClass: 2
Flags: W
LayerCount: 2
Fore
SplineSet
600 150 m 2,0,1
 600 250 600 250 500 250 c 2,2,-1
 150 250 l 1,3,-1
 150 900 l 1,4,-1
 800 900 l 1,5,-1
 800 750 l 1,6,-1
 350 750 l 1,7,-1
 350 400 l 1,8,-1
 550 400 l 2,9,10
 800 400 800 400 800 150 c 2,11,-1
 800 -250 l 2,12,13
 800 -500 800 -500 550 -500 c 2,14,-1
 100 -500 l 1,15,-1
 100 -350 l 1,16,-1
 500 -350 l 2,17,18
 600 -350 600 -350 600 -250 c 2,19,-1
 600 150 l 2,0,1
EndSplineSet
EndChar

StartChar: uniE533
Encoding: 58675 58675 299
Width: 900
GlyphClass: 2
Flags: W
LayerCount: 2
Fore
SplineSet
300 900 m 1,0,-1
 550 900 l 2,1,2
 800 900 800 900 800 650 c 2,3,-1
 800 250 l 2,4,5
 800 0 800 0 550 0 c 2,6,-1
 350 0 l 2,7,8
 100 0 100 0 100 250 c 2,9,-1
 100 1150 l 2,10,11
 100 1400 100 1400 350 1400 c 2,12,-1
 700 1400 l 1,13,-1
 700 1250 l 1,14,-1
 400 1250 l 2,15,16
 300 1250 300 1250 300 1150 c 2,17,-1
 300 900 l 1,0,-1
300 250 m 2,18,19
 300 150 300 150 400 150 c 2,20,-1
 500 150 l 2,21,22
 600 150 600 150 600 250 c 2,23,-1
 600 650 l 2,24,25
 600 750 600 750 500 750 c 2,26,-1
 300 750 l 1,27,-1
 300 250 l 2,18,19
EndSplineSet
EndChar

StartChar: uniE534
Encoding: 58676 58676 300
Width: 800
GlyphClass: 2
Flags: W
LayerCount: 2
Fore
SplineSet
700 900 m 1,0,-1
 700 750 l 1,1,-1
 500 -500 l 1,2,-1
 300 -500 l 1,3,-1
 500 750 l 1,4,-1
 100 750 l 1,5,-1
 100 900 l 1,6,-1
 700 900 l 1,0,-1
EndSplineSet
EndChar

StartChar: uniE535
Encoding: 58677 58677 301
Width: 900
GlyphClass: 2
Flags: W
LayerCount: 2
Fore
SplineSet
780 1000 m 2,0,1
 780 876 780 876 684 829 c 1,2,3
 800 785 800 785 800 650 c 2,4,-1
 800 250 l 2,5,6
 800 0 800 0 550 0 c 2,7,-1
 350 0 l 2,8,9
 100 0 100 0 100 250 c 2,10,-1
 100 650 l 2,11,12
 100 785 100 785 215 829 c 1,13,14
 120 876 120 876 120 1000 c 2,15,-1
 120 1150 l 2,16,17
 120 1390 120 1390 350 1399 c 1,18,-1
 350 1400 l 1,19,-1
 550 1400 l 1,20,-1
 550 1399 l 1,21,22
 780 1390 780 1390 780 1150 c 2,23,-1
 780 1000 l 2,0,1
600 650 m 2,24,25
 600 750 600 750 500 750 c 2,26,-1
 400 750 l 2,27,28
 300 750 300 750 300 650 c 2,29,-1
 300 250 l 2,30,31
 300 150 300 150 400 150 c 2,32,-1
 500 150 l 2,33,34
 600 150 600 150 600 250 c 2,35,-1
 600 650 l 2,24,25
580 1150 m 2,36,37
 580 1247 580 1247 485 1250 c 2,38,-1
 415 1250 l 2,39,40
 320 1247 320 1247 320 1150 c 2,41,-1
 320 1000 l 2,42,43
 320 900 320 900 420 900 c 2,44,-1
 480 900 l 2,45,46
 580 900 580 900 580 1000 c 2,47,-1
 580 1150 l 2,36,37
EndSplineSet
EndChar

StartChar: uniE536
Encoding: 58678 58678 302
Width: 900
GlyphClass: 2
Flags: W
LayerCount: 2
Fore
SplineSet
600 0 m 1,0,-1
 350 0 l 2,1,2
 100 0 100 0 100 250 c 2,3,-1
 100 650 l 2,4,5
 100 900 100 900 350 900 c 2,6,-1
 550 900 l 2,7,8
 800 900 800 900 800 650 c 2,9,-1
 800 -250 l 2,10,11
 800 -500 800 -500 550 -500 c 2,12,-1
 200 -500 l 1,13,-1
 200 -350 l 1,14,-1
 500 -350 l 2,15,16
 600 -350 600 -350 600 -250 c 2,17,-1
 600 0 l 1,0,-1
600 650 m 2,18,19
 600 750 600 750 500 750 c 2,20,-1
 400 750 l 2,21,22
 300 750 300 750 300 650 c 2,23,-1
 300 250 l 2,24,25
 300 150 300 150 400 150 c 2,26,-1
 600 150 l 1,27,-1
 600 650 l 2,18,19
EndSplineSet
EndChar

StartChar: uniE537
Encoding: 58679 58679 303
Width: 1600
GlyphClass: 2
Flags: W
LayerCount: 2
Fore
SplineSet
300 250 m 2,0,1
 300 150 300 150 400 150 c 2,2,-1
 650 150 l 1,3,-1
 650 0 l 1,4,-1
 350 0 l 2,5,6
 100 0 100 0 100 250 c 2,7,-1
 100 650 l 2,8,9
 100 900 100 900 350 900 c 2,10,-1
 422 900 l 1,11,12
 350 985 350 985 350 1100 c 0,13,14
 350 1400 350 1400 650 1400 c 2,15,-1
 1050 1400 l 1,16,-1
 1050 900 l 1,17,-1
 1250 900 l 2,18,19
 1500 900 1500 900 1500 650 c 2,20,-1
 1500 250 l 2,21,22
 1500 0 1500 0 1250 0 c 2,23,-1
 1050 0 l 1,24,-1
 1000 100 l 1,25,-1
 950 0 l 1,26,-1
 850 0 l 1,27,-1
 850 1250 l 1,28,-1
 650 1250 l 2,29,30
 500 1250 500 1250 500 1100 c 0,31,32
 500 975 500 975 600 900 c 1,33,-1
 600 750 l 1,34,-1
 400 750 l 2,35,36
 300 750 300 750 300 650 c 2,37,-1
 300 250 l 2,0,1
1050 150 m 1,38,-1
 1200 150 l 2,39,40
 1300 150 1300 150 1300 250 c 2,41,-1
 1300 650 l 2,42,43
 1300 750 1300 750 1200 750 c 2,44,-1
 1050 750 l 1,45,-1
 1050 150 l 1,38,-1
EndSplineSet
EndChar

StartChar: uniE538
Encoding: 58680 58680 304
Width: 1600
GlyphClass: 2
Flags: W
LayerCount: 2
Fore
SplineSet
300 250 m 2,0,1
 300 150 300 150 400 150 c 2,2,-1
 650 150 l 1,3,-1
 650 0 l 1,4,-1
 350 0 l 2,5,6
 100 0 100 0 100 250 c 2,7,-1
 100 650 l 2,8,9
 100 900 100 900 350 900 c 2,10,-1
 422 900 l 1,11,12
 350 985 350 985 350 1100 c 0,13,14
 350 1400 350 1400 650 1400 c 2,15,-1
 1050 1400 l 1,16,-1
 1050 900 l 1,17,-1
 1250 900 l 2,18,19
 1500 900 1500 900 1500 650 c 2,20,-1
 1500 0 l 1,21,-1
 1300 0 l 1,22,-1
 1300 650 l 2,23,24
 1300 750 1300 750 1200 750 c 2,25,-1
 1050 750 l 1,26,-1
 1050 0 l 1,27,-1
 850 0 l 1,28,-1
 850 1250 l 1,29,-1
 650 1250 l 2,30,31
 500 1250 500 1250 500 1100 c 0,32,33
 500 975 500 975 600 900 c 1,34,-1
 600 750 l 1,35,-1
 400 750 l 2,36,37
 300 750 300 750 300 650 c 2,38,-1
 300 250 l 2,0,1
EndSplineSet
EndChar

StartChar: uniE539
Encoding: 58681 58681 305
Width: 1610
GlyphClass: 2
Flags: W
LayerCount: 2
Fore
SplineSet
300 250 m 2,0,1
 300 150 300 150 400 150 c 2,2,-1
 650 150 l 1,3,-1
 650 0 l 1,4,-1
 350 0 l 2,5,6
 100 0 100 0 100 250 c 2,7,-1
 100 650 l 2,8,9
 100 900 100 900 350 900 c 2,10,-1
 422 900 l 1,11,12
 350 985 350 985 350 1100 c 0,13,14
 350 1400 350 1400 650 1400 c 2,15,-1
 1050 1400 l 1,16,-1
 1050 600 l 1,17,-1
 1182 600 l 1,18,-1
 1310 900 l 1,19,-1
 1510 900 l 1,20,-1
 1373 579 l 1,21,22
 1500 528 1500 528 1500 350 c 2,23,-1
 1500 0 l 1,24,-1
 1300 0 l 1,25,-1
 1300 350 l 2,26,27
 1300 450 1300 450 1200 450 c 2,28,-1
 1050 450 l 1,29,-1
 1050 0 l 1,30,-1
 850 0 l 1,31,-1
 850 1250 l 1,32,-1
 650 1250 l 2,33,34
 500 1250 500 1250 500 1100 c 0,35,36
 500 975 500 975 600 900 c 1,37,-1
 600 750 l 1,38,-1
 400 750 l 2,39,40
 300 750 300 750 300 650 c 2,41,-1
 300 250 l 2,0,1
EndSplineSet
EndChar

StartChar: uniE53A
Encoding: 58682 58682 306
Width: 1550
GlyphClass: 2
Flags: W
LayerCount: 2
Fore
SplineSet
1050 1250 m 1,0,-1
 1300 1250 l 1,1,-1
 1400 1100 l 1,2,3
 1400 1000 1400 1000 1300 900 c 1,4,-1
 1450 900 l 1,5,-1
 1450 750 l 1,6,-1
 1050 750 l 1,7,-1
 1050 0 l 1,8,-1
 850 0 l 1,9,-1
 850 750 l 1,10,-1
 750 750 l 1,11,-1
 750 900 l 1,12,-1
 850 900 l 1,13,-1
 850 1250 l 1,14,-1
 650 1250 l 2,15,16
 500 1250 500 1250 500 1100 c 0,17,18
 500 975 500 975 600 900 c 1,19,-1
 600 750 l 1,20,-1
 400 750 l 2,21,22
 300 750 300 750 300 650 c 2,23,-1
 300 250 l 2,24,25
 300 150 300 150 400 150 c 2,26,-1
 650 150 l 1,27,-1
 650 0 l 1,28,-1
 350 0 l 2,29,30
 100 0 100 0 100 250 c 2,31,-1
 100 650 l 2,32,33
 100 900 100 900 350 900 c 2,34,-1
 422 900 l 1,35,36
 350 985 350 985 350 1100 c 0,37,38
 350 1400 350 1400 650 1400 c 2,39,-1
 1050 1400 l 1,40,-1
 1050 1250 l 1,0,-1
1100 900 m 1,41,42
 1200 1000 1200 1000 1200 1100 c 1,43,-1
 1050 1100 l 1,44,-1
 1050 900 l 1,45,-1
 1100 900 l 1,41,42
EndSplineSet
EndChar

StartChar: uniE53B
Encoding: 58683 58683 307
Width: 1550
GlyphClass: 2
Flags: W
LayerCount: 2
Fore
SplineSet
1050 1250 m 1,0,-1
 1300 1250 l 1,1,-1
 1400 1100 l 1,2,3
 1400 1000 1400 1000 1300 900 c 1,4,-1
 1450 900 l 1,5,-1
 1450 750 l 1,6,-1
 1050 750 l 1,7,-1
 1050 250 l 2,8,9
 1050 150 1050 150 1150 150 c 2,10,-1
 1200 150 l 1,11,-1
 1200 0 l 1,12,-1
 1100 0 l 2,13,14
 850 0 850 0 850 250 c 2,15,-1
 850 750 l 1,16,-1
 750 750 l 1,17,-1
 750 900 l 1,18,-1
 850 900 l 1,19,-1
 850 1250 l 1,20,-1
 650 1250 l 2,21,22
 500 1250 500 1250 500 1100 c 0,23,24
 500 975 500 975 600 900 c 1,25,-1
 600 750 l 1,26,-1
 400 750 l 2,27,28
 300 750 300 750 300 650 c 2,29,-1
 300 250 l 2,30,31
 300 150 300 150 400 150 c 2,32,-1
 650 150 l 1,33,-1
 650 0 l 1,34,-1
 350 0 l 2,35,36
 100 0 100 0 100 250 c 2,37,-1
 100 650 l 2,38,39
 100 900 100 900 350 900 c 2,40,-1
 422 900 l 1,41,42
 350 985 350 985 350 1100 c 0,43,44
 350 1400 350 1400 650 1400 c 2,45,-1
 1050 1400 l 1,46,-1
 1050 1250 l 1,0,-1
1100 900 m 1,47,48
 1200 1000 1200 1000 1200 1100 c 1,49,-1
 1050 1100 l 1,50,-1
 1050 900 l 1,51,-1
 1100 900 l 1,47,48
EndSplineSet
EndChar

StartChar: uniE53C
Encoding: 58684 58684 308
Width: 1600
GlyphClass: 2
Flags: W
LayerCount: 2
Fore
SplineSet
1300 650 m 2,0,1
 1300 750 1300 750 1200 750 c 2,2,-1
 1050 750 l 1,3,-1
 1050 0 l 1,4,-1
 850 0 l 1,5,-1
 850 750 l 1,6,-1
 750 750 l 1,7,-1
 750 900 l 1,8,-1
 850 900 l 1,9,-1
 850 1250 l 1,10,-1
 650 1250 l 2,11,12
 500 1250 500 1250 500 1100 c 0,13,14
 500 975 500 975 600 900 c 1,15,-1
 600 750 l 1,16,-1
 400 750 l 2,17,18
 300 750 300 750 300 650 c 2,19,-1
 300 250 l 2,20,21
 300 150 300 150 400 150 c 2,22,-1
 650 150 l 1,23,-1
 650 0 l 1,24,-1
 350 0 l 2,25,26
 100 0 100 0 100 250 c 2,27,-1
 100 650 l 2,28,29
 100 900 100 900 350 900 c 2,30,-1
 422 900 l 1,31,32
 350 985 350 985 350 1100 c 0,33,34
 350 1400 350 1400 650 1400 c 2,35,-1
 1050 1400 l 1,36,-1
 1050 1250 l 1,37,-1
 1300 1250 l 1,38,-1
 1400 1100 l 1,39,40
 1400 1000 1400 1000 1300 900 c 1,41,42
 1500 893 1500 893 1500 650 c 2,43,-1
 1500 0 l 1,44,-1
 1300 0 l 1,45,-1
 1300 650 l 2,0,1
1100 900 m 1,46,47
 1200 1000 1200 1000 1200 1100 c 1,48,-1
 1050 1100 l 1,49,-1
 1050 900 l 1,50,-1
 1100 900 l 1,46,47
EndSplineSet
EndChar

StartChar: uniE53D
Encoding: 58685 58685 309
Width: 1350
GlyphClass: 2
Flags: W
LayerCount: 2
Fore
SplineSet
1050 900 m 1,0,-1
 1250 900 l 1,1,-1
 1250 750 l 1,2,-1
 1050 750 l 1,3,-1
 1050 250 l 2,4,5
 1050 150 1050 150 1150 150 c 2,6,-1
 1225 150 l 1,7,-1
 1225 0 l 1,8,-1
 1100 0 l 2,9,10
 850 0 850 0 850 250 c 2,11,-1
 850 750 l 1,12,-1
 750 750 l 1,13,-1
 750 900 l 1,14,-1
 850 900 l 1,15,-1
 850 1250 l 1,16,-1
 650 1250 l 2,17,18
 500 1250 500 1250 500 1100 c 0,19,20
 500 975 500 975 600 900 c 1,21,-1
 600 750 l 1,22,-1
 400 750 l 2,23,24
 300 750 300 750 300 650 c 2,25,-1
 300 250 l 2,26,27
 300 150 300 150 400 150 c 2,28,-1
 650 150 l 1,29,-1
 650 0 l 1,30,-1
 350 0 l 2,31,32
 100 0 100 0 100 250 c 2,33,-1
 100 650 l 2,34,35
 100 900 100 900 350 900 c 2,36,-1
 422 900 l 1,37,38
 350 985 350 985 350 1100 c 0,39,40
 350 1400 350 1400 650 1400 c 2,41,-1
 1050 1400 l 1,42,-1
 1050 900 l 1,0,-1
EndSplineSet
EndChar

StartChar: uniE53E
Encoding: 58686 58686 310
Width: 1350
GlyphClass: 2
Flags: W
LayerCount: 2
Fore
SplineSet
1150 900 m 1,0,-1
 1250 900 l 1,1,-1
 1250 750 l 1,2,-1
 1150 750 l 1,3,-1
 1150 0 l 1,4,-1
 950 0 l 1,5,-1
 950 750 l 1,6,-1
 850 750 l 1,7,-1
 850 900 l 1,8,-1
 950 900 l 1,9,-1
 950 1250 l 1,10,-1
 650 1250 l 2,11,12
 500 1250 500 1250 500 1100 c 0,13,14
 500 975 500 975 600 900 c 1,15,-1
 600 750 l 1,16,-1
 400 750 l 2,17,18
 300 750 300 750 300 650 c 2,19,-1
 300 250 l 2,20,21
 300 150 300 150 400 150 c 2,22,-1
 650 150 l 1,23,-1
 650 0 l 1,24,-1
 350 0 l 2,25,26
 100 0 100 0 100 250 c 2,27,-1
 100 650 l 2,28,29
 100 900 100 900 350 900 c 2,30,-1
 422 900 l 1,31,32
 350 985 350 985 350 1100 c 0,33,34
 350 1400 350 1400 650 1400 c 2,35,-1
 1150 1400 l 1,36,-1
 1150 900 l 1,0,-1
EndSplineSet
EndChar

StartChar: uniE53F
Encoding: 58687 58687 311
Width: 1550
GlyphClass: 2
Flags: W
LayerCount: 2
Fore
SplineSet
300 250 m 2,0,1
 300 150 300 150 400 150 c 2,2,-1
 650 150 l 1,3,-1
 650 0 l 1,4,-1
 350 0 l 2,5,6
 100 0 100 0 100 250 c 2,7,-1
 100 650 l 2,8,9
 100 900 100 900 350 900 c 2,10,-1
 422 900 l 1,11,12
 350 985 350 985 350 1100 c 0,13,14
 350 1400 350 1400 650 1400 c 2,15,-1
 1000 1400 l 1,16,-1
 1000 900 l 1,17,-1
 1200 900 l 2,18,19
 1450 900 1450 900 1450 650 c 2,20,-1
 1450 250 l 2,21,22
 1450 0 1450 0 1200 0 c 2,23,-1
 1000 0 l 1,24,-1
 1000 -500 l 1,25,-1
 800 -500 l 1,26,-1
 800 1250 l 1,27,-1
 650 1250 l 2,28,29
 500 1250 500 1250 500 1100 c 0,30,31
 500 975 500 975 600 900 c 1,32,-1
 600 750 l 1,33,-1
 400 750 l 2,34,35
 300 750 300 750 300 650 c 2,36,-1
 300 250 l 2,0,1
1000 150 m 1,37,-1
 1150 150 l 2,38,39
 1250 150 1250 150 1250 250 c 2,40,-1
 1250 650 l 2,41,42
 1250 750 1250 750 1150 750 c 2,43,-1
 1000 750 l 1,44,-1
 1000 150 l 1,37,-1
EndSplineSet
EndChar

StartChar: uniE540
Encoding: 58688 58688 312
Width: 1700
GlyphClass: 2
Flags: W
LayerCount: 2
Fore
SplineSet
422 900 m 1,0,1
 350 985 350 985 350 1100 c 0,2,3
 350 1400 350 1400 650 1400 c 2,4,-1
 1150 1400 l 1,5,-1
 1150 900 l 1,6,-1
 1350 900 l 2,7,8
 1600 900 1600 900 1600 650 c 2,9,-1
 1600 250 l 2,10,11
 1600 0 1600 0 1350 0 c 2,12,-1
 1150 0 l 1,13,-1
 1100 100 l 1,14,-1
 1050 0 l 1,15,-1
 950 0 l 1,16,-1
 950 1250 l 1,17,-1
 650 1250 l 2,18,19
 500 1250 500 1250 500 1100 c 0,20,21
 500 975 500 975 600 900 c 1,22,23
 750 855 750 855 750 650 c 2,24,-1
 750 350 l 1,25,-1
 300 350 l 1,26,-1
 300 250 l 2,27,28
 300 150 300 150 400 150 c 2,29,-1
 700 150 l 1,30,-1
 700 0 l 1,31,-1
 350 0 l 2,32,33
 100 0 100 0 100 250 c 2,34,-1
 100 650 l 2,35,36
 100 900 100 900 350 900 c 2,37,-1
 422 900 l 1,0,1
1150 150 m 1,38,-1
 1300 150 l 2,39,40
 1400 150 1400 150 1400 250 c 2,41,-1
 1400 650 l 2,42,43
 1400 750 1400 750 1300 750 c 2,44,-1
 1150 750 l 1,45,-1
 1150 150 l 1,38,-1
300 500 m 1,46,-1
 550 500 l 1,47,-1
 550 650 l 2,48,49
 550 750 550 750 450 750 c 2,50,-1
 400 750 l 2,51,52
 300 750 300 750 300 650 c 2,53,-1
 300 500 l 1,46,-1
EndSplineSet
EndChar

StartChar: uniE541
Encoding: 58689 58689 313
Width: 1700
GlyphClass: 2
Flags: W
LayerCount: 2
Fore
SplineSet
422 900 m 1,0,1
 350 985 350 985 350 1100 c 0,2,3
 350 1400 350 1400 650 1400 c 2,4,-1
 1150 1400 l 1,5,-1
 1150 900 l 1,6,-1
 1350 900 l 2,7,8
 1600 900 1600 900 1600 650 c 2,9,-1
 1600 0 l 1,10,-1
 1400 0 l 1,11,-1
 1400 650 l 2,12,13
 1400 750 1400 750 1300 750 c 2,14,-1
 1150 750 l 1,15,-1
 1150 0 l 1,16,-1
 950 0 l 1,17,-1
 950 1250 l 1,18,-1
 650 1250 l 2,19,20
 500 1250 500 1250 500 1100 c 0,21,22
 500 975 500 975 600 900 c 1,23,24
 750 855 750 855 750 650 c 2,25,-1
 750 350 l 1,26,-1
 300 350 l 1,27,-1
 300 250 l 2,28,29
 300 150 300 150 400 150 c 2,30,-1
 700 150 l 1,31,-1
 700 0 l 1,32,-1
 350 0 l 2,33,34
 100 0 100 0 100 250 c 2,35,-1
 100 650 l 2,36,37
 100 900 100 900 350 900 c 2,38,-1
 422 900 l 1,0,1
300 500 m 1,39,-1
 550 500 l 1,40,-1
 550 650 l 2,41,42
 550 750 550 750 450 750 c 2,43,-1
 400 750 l 2,44,45
 300 750 300 750 300 650 c 2,46,-1
 300 500 l 1,39,-1
EndSplineSet
EndChar

StartChar: uniE542
Encoding: 58690 58690 314
Width: 1710
GlyphClass: 2
Flags: W
LayerCount: 2
Fore
SplineSet
422 900 m 1,0,1
 350 985 350 985 350 1100 c 0,2,3
 350 1400 350 1400 650 1400 c 2,4,-1
 1150 1400 l 1,5,-1
 1150 600 l 1,6,-1
 1282 600 l 1,7,-1
 1410 900 l 1,8,-1
 1610 900 l 1,9,-1
 1473 579 l 1,10,11
 1600 528 1600 528 1600 350 c 2,12,-1
 1600 0 l 1,13,-1
 1400 0 l 1,14,-1
 1400 350 l 2,15,16
 1400 450 1400 450 1300 450 c 2,17,-1
 1150 450 l 1,18,-1
 1150 0 l 1,19,-1
 950 0 l 1,20,-1
 950 1250 l 1,21,-1
 650 1250 l 2,22,23
 500 1250 500 1250 500 1100 c 0,24,25
 500 975 500 975 600 900 c 1,26,27
 750 855 750 855 750 650 c 2,28,-1
 750 350 l 1,29,-1
 300 350 l 1,30,-1
 300 250 l 2,31,32
 300 150 300 150 400 150 c 2,33,-1
 700 150 l 1,34,-1
 700 0 l 1,35,-1
 350 0 l 2,36,37
 100 0 100 0 100 250 c 2,38,-1
 100 650 l 2,39,40
 100 900 100 900 350 900 c 2,41,-1
 422 900 l 1,0,1
300 500 m 1,42,-1
 550 500 l 1,43,-1
 550 650 l 2,44,45
 550 750 550 750 450 750 c 2,46,-1
 400 750 l 2,47,48
 300 750 300 750 300 650 c 2,49,-1
 300 500 l 1,42,-1
EndSplineSet
EndChar

StartChar: uniE543
Encoding: 58691 58691 315
Width: 1650
GlyphClass: 2
Flags: W
LayerCount: 2
Fore
SplineSet
1150 1250 m 1,0,-1
 1400 1250 l 1,1,-1
 1500 1100 l 1,2,3
 1500 1000 1500 1000 1400 900 c 1,4,-1
 1550 900 l 1,5,-1
 1550 750 l 1,6,-1
 1150 750 l 1,7,-1
 1150 0 l 1,8,-1
 950 0 l 1,9,-1
 950 750 l 1,10,-1
 850 750 l 1,11,-1
 850 900 l 1,12,-1
 950 900 l 1,13,-1
 950 1250 l 1,14,-1
 650 1250 l 2,15,16
 500 1250 500 1250 500 1100 c 0,17,18
 500 975 500 975 600 900 c 1,19,20
 750 855 750 855 750 650 c 2,21,-1
 750 350 l 1,22,-1
 300 350 l 1,23,-1
 300 250 l 2,24,25
 300 150 300 150 400 150 c 2,26,-1
 700 150 l 1,27,-1
 700 0 l 1,28,-1
 350 0 l 2,29,30
 100 0 100 0 100 250 c 2,31,-1
 100 650 l 2,32,33
 100 900 100 900 350 900 c 2,34,-1
 422 900 l 1,35,36
 350 985 350 985 350 1100 c 0,37,38
 350 1400 350 1400 650 1400 c 2,39,-1
 1150 1400 l 1,40,-1
 1150 1250 l 1,0,-1
300 500 m 1,41,-1
 550 500 l 1,42,-1
 550 650 l 2,43,44
 550 750 550 750 450 750 c 2,45,-1
 400 750 l 2,46,47
 300 750 300 750 300 650 c 2,48,-1
 300 500 l 1,41,-1
1200 900 m 1,49,50
 1300 1000 1300 1000 1300 1100 c 1,51,-1
 1150 1100 l 1,52,-1
 1150 900 l 1,53,-1
 1200 900 l 1,49,50
EndSplineSet
EndChar

StartChar: uniE544
Encoding: 58692 58692 316
Width: 1650
GlyphClass: 2
Flags: W
LayerCount: 2
Fore
SplineSet
1150 1250 m 1,0,-1
 1400 1250 l 1,1,-1
 1500 1100 l 1,2,3
 1500 1000 1500 1000 1400 900 c 1,4,-1
 1550 900 l 1,5,-1
 1550 750 l 1,6,-1
 1150 750 l 1,7,-1
 1150 250 l 2,8,9
 1150 150 1150 150 1250 150 c 2,10,-1
 1300 150 l 1,11,-1
 1300 0 l 1,12,-1
 1200 0 l 2,13,14
 950 0 950 0 950 250 c 2,15,-1
 950 750 l 1,16,-1
 850 750 l 1,17,-1
 850 900 l 1,18,-1
 950 900 l 1,19,-1
 950 1250 l 1,20,-1
 650 1250 l 2,21,22
 500 1250 500 1250 500 1100 c 0,23,24
 500 975 500 975 600 900 c 1,25,26
 750 855 750 855 750 650 c 2,27,-1
 750 350 l 1,28,-1
 300 350 l 1,29,-1
 300 250 l 2,30,31
 300 150 300 150 400 150 c 2,32,-1
 700 150 l 1,33,-1
 700 0 l 1,34,-1
 350 0 l 2,35,36
 100 0 100 0 100 250 c 2,37,-1
 100 650 l 2,38,39
 100 900 100 900 350 900 c 2,40,-1
 422 900 l 1,41,42
 350 985 350 985 350 1100 c 0,43,44
 350 1400 350 1400 650 1400 c 2,45,-1
 1150 1400 l 1,46,-1
 1150 1250 l 1,0,-1
300 500 m 1,47,-1
 550 500 l 1,48,-1
 550 650 l 2,49,50
 550 750 550 750 450 750 c 2,51,-1
 400 750 l 2,52,53
 300 750 300 750 300 650 c 2,54,-1
 300 500 l 1,47,-1
1200 900 m 1,55,56
 1300 1000 1300 1000 1300 1100 c 1,57,-1
 1150 1100 l 1,58,-1
 1150 900 l 1,59,-1
 1200 900 l 1,55,56
EndSplineSet
EndChar

StartChar: uniE545
Encoding: 58693 58693 317
Width: 1700
GlyphClass: 2
Flags: W
LayerCount: 2
Fore
SplineSet
1400 650 m 2,0,1
 1400 750 1400 750 1300 750 c 2,2,-1
 1150 750 l 1,3,-1
 1150 0 l 1,4,-1
 950 0 l 1,5,-1
 950 750 l 1,6,-1
 850 750 l 1,7,-1
 850 900 l 1,8,-1
 950 900 l 1,9,-1
 950 1250 l 1,10,-1
 650 1250 l 2,11,12
 500 1250 500 1250 500 1100 c 0,13,14
 500 975 500 975 600 900 c 1,15,16
 750 855 750 855 750 650 c 2,17,-1
 750 350 l 1,18,-1
 300 350 l 1,19,-1
 300 250 l 2,20,21
 300 150 300 150 400 150 c 2,22,-1
 700 150 l 1,23,-1
 700 0 l 1,24,-1
 350 0 l 2,25,26
 100 0 100 0 100 250 c 2,27,-1
 100 650 l 2,28,29
 100 900 100 900 350 900 c 2,30,-1
 422 900 l 1,31,32
 350 985 350 985 350 1100 c 0,33,34
 350 1400 350 1400 650 1400 c 2,35,-1
 1150 1400 l 1,36,-1
 1150 1250 l 1,37,-1
 1400 1250 l 1,38,-1
 1500 1100 l 1,39,40
 1500 1000 1500 1000 1400 900 c 1,41,-1
 1362 900 l 1,42,43
 1600 893 1600 893 1600 650 c 2,44,-1
 1600 0 l 1,45,-1
 1400 0 l 1,46,-1
 1400 650 l 2,0,1
300 500 m 1,47,-1
 550 500 l 1,48,-1
 550 650 l 2,49,50
 550 750 550 750 450 750 c 2,51,-1
 400 750 l 2,52,53
 300 750 300 750 300 650 c 2,54,-1
 300 500 l 1,47,-1
1200 900 m 1,55,56
 1300 1000 1300 1000 1300 1100 c 1,57,-1
 1150 1100 l 1,58,-1
 1150 900 l 1,59,-1
 1200 900 l 1,55,56
EndSplineSet
EndChar

StartChar: uniE546
Encoding: 58694 58694 318
Width: 1450
GlyphClass: 2
Flags: W
LayerCount: 2
Fore
SplineSet
1150 900 m 1,0,-1
 1350 900 l 1,1,-1
 1350 750 l 1,2,-1
 1150 750 l 1,3,-1
 1150 250 l 2,4,5
 1150 150 1150 150 1250 150 c 2,6,-1
 1325 150 l 1,7,-1
 1325 0 l 1,8,-1
 1200 0 l 2,9,10
 950 0 950 0 950 250 c 2,11,-1
 950 750 l 1,12,-1
 850 750 l 1,13,-1
 850 900 l 1,14,-1
 950 900 l 1,15,-1
 950 1250 l 1,16,-1
 650 1250 l 2,17,18
 500 1250 500 1250 500 1100 c 0,19,20
 500 975 500 975 600 900 c 1,21,22
 750 855 750 855 750 650 c 2,23,-1
 750 350 l 1,24,-1
 300 350 l 1,25,-1
 300 250 l 2,26,27
 300 150 300 150 400 150 c 2,28,-1
 700 150 l 1,29,-1
 700 0 l 1,30,-1
 350 0 l 2,31,32
 100 0 100 0 100 250 c 2,33,-1
 100 650 l 2,34,35
 100 900 100 900 350 900 c 2,36,-1
 422 900 l 1,37,38
 350 985 350 985 350 1100 c 0,39,40
 350 1400 350 1400 650 1400 c 2,41,-1
 1150 1400 l 1,42,-1
 1150 900 l 1,0,-1
300 500 m 1,43,-1
 550 500 l 1,44,-1
 550 650 l 2,45,46
 550 750 550 750 450 750 c 2,47,-1
 400 750 l 2,48,49
 300 750 300 750 300 650 c 2,50,-1
 300 500 l 1,43,-1
EndSplineSet
EndChar

StartChar: uniE547
Encoding: 58695 58695 319
Width: 1450
GlyphClass: 2
Flags: W
LayerCount: 2
Fore
SplineSet
1250 900 m 1,0,-1
 1350 900 l 1,1,-1
 1350 750 l 1,2,-1
 1250 750 l 1,3,-1
 1250 0 l 1,4,-1
 1050 0 l 1,5,-1
 1050 750 l 1,6,-1
 950 750 l 1,7,-1
 950 900 l 1,8,-1
 1050 900 l 1,9,-1
 1050 1250 l 1,10,-1
 650 1250 l 2,11,12
 500 1250 500 1250 500 1100 c 0,13,14
 500 975 500 975 600 900 c 1,15,16
 750 855 750 855 750 650 c 2,17,-1
 750 350 l 1,18,-1
 300 350 l 1,19,-1
 300 250 l 2,20,21
 300 150 300 150 400 150 c 2,22,-1
 700 150 l 1,23,-1
 700 0 l 1,24,-1
 350 0 l 2,25,26
 100 0 100 0 100 250 c 2,27,-1
 100 650 l 2,28,29
 100 900 100 900 350 900 c 2,30,-1
 422 900 l 1,31,32
 350 985 350 985 350 1100 c 0,33,34
 350 1400 350 1400 650 1400 c 2,35,-1
 1250 1400 l 1,36,-1
 1250 900 l 1,0,-1
300 500 m 1,37,-1
 550 500 l 1,38,-1
 550 650 l 2,39,40
 550 750 550 750 450 750 c 2,41,-1
 400 750 l 2,42,43
 300 750 300 750 300 650 c 2,44,-1
 300 500 l 1,37,-1
EndSplineSet
EndChar

StartChar: uniE548
Encoding: 58696 58696 320
Width: 1700
GlyphClass: 2
Flags: W
LayerCount: 2
Fore
SplineSet
422 900 m 1,0,1
 350 985 350 985 350 1100 c 0,2,3
 350 1400 350 1400 650 1400 c 2,4,-1
 1150 1400 l 1,5,-1
 1150 900 l 1,6,-1
 1350 900 l 2,7,8
 1600 900 1600 900 1600 650 c 2,9,-1
 1600 250 l 2,10,11
 1600 0 1600 0 1350 0 c 2,12,-1
 1150 0 l 1,13,-1
 1150 -500 l 1,14,-1
 950 -500 l 1,15,-1
 950 1250 l 1,16,-1
 650 1250 l 2,17,18
 500 1250 500 1250 500 1100 c 0,19,20
 500 975 500 975 600 900 c 1,21,22
 750 855 750 855 750 650 c 2,23,-1
 750 350 l 1,24,-1
 300 350 l 1,25,-1
 300 250 l 2,26,27
 300 150 300 150 400 150 c 2,28,-1
 700 150 l 1,29,-1
 700 0 l 1,30,-1
 350 0 l 2,31,32
 100 0 100 0 100 250 c 2,33,-1
 100 650 l 2,34,35
 100 900 100 900 350 900 c 2,36,-1
 422 900 l 1,0,1
1150 750 m 1,37,-1
 1150 150 l 1,38,-1
 1300 150 l 2,39,40
 1400 150 1400 150 1400 250 c 2,41,-1
 1400 650 l 2,42,43
 1400 750 1400 750 1300 750 c 2,44,-1
 1150 750 l 1,37,-1
300 500 m 1,45,-1
 550 500 l 1,46,-1
 550 650 l 2,47,48
 550 750 550 750 450 750 c 2,49,-1
 400 750 l 2,50,51
 300 750 300 750 300 650 c 2,52,-1
 300 500 l 1,45,-1
EndSplineSet
EndChar

StartChar: uniE549
Encoding: 58697 58697 321
Width: 1450
GlyphClass: 2
Flags: W
LayerCount: 2
Fore
SplineSet
300 900 m 1,0,-1
 500 900 l 1,1,-1
 500 750 l 1,2,-1
 300 750 l 1,3,-1
 300 0 l 1,4,-1
 100 0 l 1,5,-1
 100 750 l 1,6,-1
 0 750 l 1,7,-1
 0 900 l 1,8,-1
 100 900 l 1,9,-1
 100 1150 l 2,10,11
 100 1400 100 1400 350 1400 c 2,12,-1
 900 1400 l 1,13,-1
 900 900 l 1,14,-1
 1100 900 l 2,15,16
 1350 900 1350 900 1350 650 c 2,17,-1
 1350 250 l 2,18,19
 1350 0 1350 0 1100 0 c 2,20,-1
 900 0 l 1,21,-1
 850 100 l 1,22,-1
 800 0 l 1,23,-1
 700 0 l 1,24,-1
 700 1250 l 1,25,-1
 400 1250 l 2,26,27
 300 1250 300 1250 300 1150 c 2,28,-1
 300 900 l 1,0,-1
900 150 m 1,29,-1
 1050 150 l 2,30,31
 1150 150 1150 150 1150 250 c 2,32,-1
 1150 650 l 2,33,34
 1150 750 1150 750 1050 750 c 2,35,-1
 900 750 l 1,36,-1
 900 150 l 1,29,-1
EndSplineSet
EndChar

StartChar: uniE54A
Encoding: 58698 58698 322
Width: 1450
GlyphClass: 2
Flags: W
LayerCount: 2
Fore
SplineSet
300 900 m 1,0,-1
 500 900 l 1,1,-1
 500 750 l 1,2,-1
 300 750 l 1,3,-1
 300 0 l 1,4,-1
 100 0 l 1,5,-1
 100 750 l 1,6,-1
 0 750 l 1,7,-1
 0 900 l 1,8,-1
 100 900 l 1,9,-1
 100 1150 l 2,10,11
 100 1400 100 1400 350 1400 c 2,12,-1
 900 1400 l 1,13,-1
 900 900 l 1,14,-1
 1100 900 l 2,15,16
 1350 900 1350 900 1350 650 c 2,17,-1
 1350 0 l 1,18,-1
 1150 0 l 1,19,-1
 1150 650 l 2,20,21
 1150 750 1150 750 1050 750 c 2,22,-1
 900 750 l 1,23,-1
 900 0 l 1,24,-1
 700 0 l 1,25,-1
 700 1250 l 1,26,-1
 400 1250 l 2,27,28
 300 1250 300 1250 300 1150 c 2,29,-1
 300 900 l 1,0,-1
EndSplineSet
EndChar

StartChar: uniE54B
Encoding: 58699 58699 323
Width: 1250
GlyphClass: 2
Flags: W
LayerCount: 2
Fore
SplineSet
300 900 m 1,0,-1
 500 900 l 1,1,-1
 500 750 l 1,2,-1
 300 750 l 1,3,-1
 300 0 l 1,4,-1
 100 0 l 1,5,-1
 100 750 l 1,6,-1
 0 750 l 1,7,-1
 0 900 l 1,8,-1
 100 900 l 1,9,-1
 100 1150 l 2,10,11
 100 1400 100 1400 350 1400 c 2,12,-1
 1000 1400 l 1,13,-1
 1000 1100 l 1,14,-1
 800 1100 l 1,15,-1
 800 1250 l 1,16,-1
 400 1250 l 2,17,18
 300 1250 300 1250 300 1150 c 2,19,-1
 300 900 l 1,0,-1
1000 900 m 1,20,-1
 1000 250 l 2,21,22
 1000 150 1000 150 1100 150 c 2,23,-1
 1150 150 l 1,24,-1
 1150 0 l 1,25,-1
 1050 0 l 2,26,27
 800 0 800 0 800 250 c 2,28,-1
 800 750 l 1,29,-1
 700 750 l 1,30,-1
 700 900 l 1,31,-1
 1000 900 l 1,20,-1
EndSplineSet
EndChar

StartChar: uniE54C
Encoding: 58700 58700 324
Width: 1460
GlyphClass: 2
Flags: W
LayerCount: 2
Fore
SplineSet
300 900 m 1,0,-1
 500 900 l 1,1,-1
 500 750 l 1,2,-1
 300 750 l 1,3,-1
 300 0 l 1,4,-1
 100 0 l 1,5,-1
 100 750 l 1,6,-1
 0 750 l 1,7,-1
 0 900 l 1,8,-1
 100 900 l 1,9,-1
 100 1150 l 2,10,11
 100 1400 100 1400 350 1400 c 2,12,-1
 900 1400 l 1,13,-1
 900 600 l 1,14,-1
 1032 600 l 1,15,-1
 1160 900 l 1,16,-1
 1360 900 l 1,17,-1
 1223 579 l 1,18,19
 1350 528 1350 528 1350 350 c 2,20,-1
 1350 0 l 1,21,-1
 1150 0 l 1,22,-1
 1150 350 l 2,23,24
 1150 450 1150 450 1050 450 c 2,25,-1
 900 450 l 1,26,-1
 900 0 l 1,27,-1
 700 0 l 1,28,-1
 700 1250 l 1,29,-1
 400 1250 l 2,30,31
 300 1250 300 1250 300 1150 c 2,32,-1
 300 900 l 1,0,-1
EndSplineSet
EndChar

StartChar: uniE54D
Encoding: 58701 58701 325
Width: 1400
GlyphClass: 2
Flags: W
LayerCount: 2
Fore
SplineSet
900 1250 m 1,0,-1
 1150 1250 l 1,1,-1
 1250 1100 l 1,2,3
 1250 1000 1250 1000 1150 900 c 1,4,-1
 1300 900 l 1,5,-1
 1300 750 l 1,6,-1
 900 750 l 1,7,-1
 900 0 l 1,8,-1
 700 0 l 1,9,-1
 700 750 l 1,10,-1
 600 750 l 1,11,-1
 600 900 l 1,12,-1
 700 900 l 1,13,-1
 700 1250 l 1,14,-1
 400 1250 l 2,15,16
 300 1250 300 1250 300 1150 c 2,17,-1
 300 900 l 1,18,-1
 500 900 l 1,19,-1
 500 750 l 1,20,-1
 300 750 l 1,21,-1
 300 0 l 1,22,-1
 100 0 l 1,23,-1
 100 750 l 1,24,-1
 0 750 l 1,25,-1
 0 900 l 1,26,-1
 100 900 l 1,27,-1
 100 1150 l 2,28,29
 100 1400 100 1400 350 1400 c 2,30,-1
 900 1400 l 1,31,-1
 900 1250 l 1,0,-1
950 900 m 1,32,33
 1050 1000 1050 1000 1050 1100 c 1,34,-1
 900 1100 l 1,35,-1
 900 900 l 1,36,-1
 950 900 l 1,32,33
EndSplineSet
EndChar

StartChar: uniE54E
Encoding: 58702 58702 326
Width: 1400
GlyphClass: 2
Flags: W
LayerCount: 2
Fore
SplineSet
900 1250 m 1,0,-1
 1150 1250 l 1,1,-1
 1250 1100 l 1,2,3
 1250 1000 1250 1000 1150 900 c 1,4,-1
 1300 900 l 1,5,-1
 1300 750 l 1,6,-1
 900 750 l 1,7,-1
 900 250 l 2,8,9
 900 150 900 150 1000 150 c 2,10,-1
 1050 150 l 1,11,-1
 1050 0 l 1,12,-1
 950 0 l 2,13,14
 700 0 700 0 700 250 c 2,15,-1
 700 750 l 1,16,-1
 600 750 l 1,17,-1
 600 900 l 1,18,-1
 700 900 l 1,19,-1
 700 1250 l 1,20,-1
 400 1250 l 2,21,22
 300 1250 300 1250 300 1150 c 2,23,-1
 300 900 l 1,24,-1
 500 900 l 1,25,-1
 500 750 l 1,26,-1
 300 750 l 1,27,-1
 300 0 l 1,28,-1
 100 0 l 1,29,-1
 100 750 l 1,30,-1
 0 750 l 1,31,-1
 0 900 l 1,32,-1
 100 900 l 1,33,-1
 100 1150 l 2,34,35
 100 1400 100 1400 350 1400 c 2,36,-1
 900 1400 l 1,37,-1
 900 1250 l 1,0,-1
950 900 m 1,38,39
 1050 1000 1050 1000 1050 1100 c 1,40,-1
 900 1100 l 1,41,-1
 900 900 l 1,42,-1
 950 900 l 1,38,39
EndSplineSet
EndChar

StartChar: uniE54F
Encoding: 58703 58703 327
Width: 1150
GlyphClass: 2
Flags: W
LayerCount: 2
Fore
SplineSet
300 900 m 1,0,-1
 500 900 l 1,1,-1
 500 750 l 1,2,-1
 300 750 l 1,3,-1
 300 0 l 1,4,-1
 100 0 l 1,5,-1
 100 750 l 1,6,-1
 0 750 l 1,7,-1
 0 900 l 1,8,-1
 100 900 l 1,9,-1
 100 1150 l 2,10,11
 100 1400 100 1400 350 1400 c 2,12,-1
 900 1400 l 1,13,-1
 900 250 l 2,14,15
 900 150 900 150 1000 150 c 2,16,-1
 1050 150 l 1,17,-1
 1050 0 l 1,18,-1
 950 0 l 2,19,20
 700 0 700 0 700 250 c 2,21,-1
 700 1250 l 1,22,-1
 400 1250 l 2,23,24
 300 1250 300 1250 300 1150 c 2,25,-1
 300 900 l 1,0,-1
EndSplineSet
EndChar

StartChar: uniE550
Encoding: 58704 58704 328
Width: 1900
GlyphClass: 2
Flags: W
LayerCount: 2
Fore
SplineSet
300 900 m 1,0,-1
 800 900 l 1,1,-1
 850 800 l 1,2,-1
 900 900 l 1,3,-1
 1100 900 l 2,4,5
 1246 900 1246 900 1307 814 c 1,6,-1
 1350 900 l 1,7,-1
 1550 900 l 2,8,9
 1800 900 1800 900 1800 650 c 2,10,-1
 1800 0 l 1,11,-1
 1600 0 l 1,12,-1
 1600 650 l 2,13,14
 1600 750 1600 750 1500 750 c 2,15,-1
 1337 750 l 1,16,17
 1350 706 1350 706 1350 650 c 2,18,-1
 1350 0 l 1,19,-1
 1150 0 l 1,20,-1
 1150 650 l 2,21,22
 1150 750 1150 750 1050 750 c 2,23,-1
 900 750 l 1,24,-1
 900 0 l 1,25,-1
 700 0 l 1,26,-1
 700 750 l 1,27,-1
 300 750 l 1,28,-1
 300 0 l 1,29,-1
 100 0 l 1,30,-1
 100 750 l 1,31,-1
 0 750 l 1,32,-1
 0 900 l 1,33,-1
 100 900 l 1,34,-1
 100 1150 l 2,35,36
 100 1400 100 1400 350 1400 c 2,37,-1
 475 1400 l 1,38,-1
 475 1250 l 1,39,-1
 400 1250 l 2,40,41
 300 1250 300 1250 300 1150 c 2,42,-1
 300 900 l 1,0,-1
EndSplineSet
EndChar

StartChar: uniE551
Encoding: 58705 58705 329
Width: 1450
GlyphClass: 2
Flags: W
LayerCount: 2
Fore
SplineSet
300 900 m 1,0,-1
 800 900 l 1,1,-1
 850 800 l 1,2,-1
 900 900 l 1,3,-1
 1100 900 l 2,4,5
 1350 900 1350 900 1350 650 c 2,6,-1
 1350 0 l 1,7,-1
 1150 0 l 1,8,-1
 1150 650 l 2,9,10
 1150 750 1150 750 1050 750 c 2,11,-1
 900 750 l 1,12,-1
 900 0 l 1,13,-1
 700 0 l 1,14,-1
 700 750 l 1,15,-1
 300 750 l 1,16,-1
 300 0 l 1,17,-1
 100 0 l 1,18,-1
 100 750 l 1,19,-1
 0 750 l 1,20,-1
 0 900 l 1,21,-1
 100 900 l 1,22,-1
 100 1150 l 2,23,24
 100 1400 100 1400 350 1400 c 2,25,-1
 475 1400 l 1,26,-1
 475 1250 l 1,27,-1
 400 1250 l 2,28,29
 300 1250 300 1250 300 1150 c 2,30,-1
 300 900 l 1,0,-1
EndSplineSet
EndChar

StartChar: uniE552
Encoding: 58706 58706 330
Width: 1450
GlyphClass: 2
Flags: W
LayerCount: 2
Fore
SplineSet
300 900 m 1,0,-1
 800 900 l 1,1,-1
 850 800 l 1,2,-1
 900 900 l 1,3,-1
 1100 900 l 2,4,5
 1350 900 1350 900 1350 650 c 2,6,-1
 1350 250 l 2,7,8
 1350 0 1350 0 1100 0 c 2,9,-1
 900 0 l 1,10,-1
 900 -500 l 1,11,-1
 700 -500 l 1,12,-1
 700 750 l 1,13,-1
 300 750 l 1,14,-1
 300 0 l 1,15,-1
 100 0 l 1,16,-1
 100 750 l 1,17,-1
 0 750 l 1,18,-1
 0 900 l 1,19,-1
 100 900 l 1,20,-1
 100 1150 l 2,21,22
 100 1400 100 1400 350 1400 c 2,23,-1
 475 1400 l 1,24,-1
 475 1250 l 1,25,-1
 400 1250 l 2,26,27
 300 1250 300 1250 300 1150 c 2,28,-1
 300 900 l 1,0,-1
900 750 m 1,29,-1
 900 150 l 1,30,-1
 1050 150 l 2,31,32
 1150 150 1150 150 1150 250 c 2,33,-1
 1150 650 l 2,34,35
 1150 750 1150 750 1050 750 c 2,36,-1
 900 750 l 1,29,-1
EndSplineSet
EndChar

StartChar: uniE553
Encoding: 58707 58707 331
Width: 1200
GlyphClass: 2
Flags: W
LayerCount: 2
Fore
SplineSet
300 900 m 1,0,-1
 500 900 l 1,1,-1
 500 750 l 1,2,-1
 300 750 l 1,3,-1
 300 0 l 1,4,-1
 100 0 l 1,5,-1
 100 750 l 1,6,-1
 0 750 l 1,7,-1
 0 900 l 1,8,-1
 100 900 l 1,9,-1
 100 1150 l 2,10,11
 100 1400 100 1400 350 1400 c 2,12,-1
 900 1400 l 1,13,-1
 900 900 l 1,14,-1
 1100 900 l 1,15,-1
 1100 750 l 1,16,-1
 900 750 l 1,17,-1
 900 250 l 2,18,19
 900 150 900 150 1000 150 c 2,20,-1
 1075 150 l 1,21,-1
 1075 0 l 1,22,-1
 950 0 l 2,23,24
 700 0 700 0 700 250 c 2,25,-1
 700 750 l 1,26,-1
 600 750 l 1,27,-1
 600 900 l 1,28,-1
 700 900 l 1,29,-1
 700 1250 l 1,30,-1
 400 1250 l 2,31,32
 300 1250 300 1250 300 1150 c 2,33,-1
 300 900 l 1,0,-1
EndSplineSet
EndChar

StartChar: uniE554
Encoding: 58708 58708 332
Width: 1200
GlyphClass: 2
Flags: W
LayerCount: 2
Fore
SplineSet
300 900 m 1,0,-1
 500 900 l 1,1,-1
 500 750 l 1,2,-1
 300 750 l 1,3,-1
 300 0 l 1,4,-1
 100 0 l 1,5,-1
 100 750 l 1,6,-1
 0 750 l 1,7,-1
 0 900 l 1,8,-1
 100 900 l 1,9,-1
 100 1150 l 2,10,11
 100 1400 100 1400 350 1400 c 2,12,-1
 1000 1400 l 1,13,-1
 1000 900 l 1,14,-1
 1100 900 l 1,15,-1
 1100 750 l 1,16,-1
 1000 750 l 1,17,-1
 1000 0 l 1,18,-1
 800 0 l 1,19,-1
 800 750 l 1,20,-1
 700 750 l 1,21,-1
 700 900 l 1,22,-1
 800 900 l 1,23,-1
 800 1250 l 1,24,-1
 400 1250 l 2,25,26
 300 1250 300 1250 300 1150 c 2,27,-1
 300 900 l 1,0,-1
EndSplineSet
EndChar

StartChar: uniE555
Encoding: 58709 58709 333
Width: 1200
GlyphClass: 2
Flags: W
LayerCount: 2
Fore
SplineSet
300 900 m 1,0,-1
 500 900 l 1,1,-1
 500 750 l 1,2,-1
 300 750 l 1,3,-1
 300 0 l 1,4,-1
 100 0 l 1,5,-1
 100 750 l 1,6,-1
 0 750 l 1,7,-1
 0 900 l 1,8,-1
 100 900 l 1,9,-1
 100 1150 l 2,10,11
 100 1400 100 1400 350 1400 c 2,12,-1
 1000 1400 l 1,13,-1
 1000 900 l 1,14,-1
 1100 900 l 1,15,-1
 1100 750 l 1,16,-1
 1000 750 l 1,17,-1
 1000 0 l 1,18,-1
 800 0 l 1,19,-1
 800 750 l 1,20,-1
 700 750 l 1,21,-1
 700 900 l 1,22,-1
 800 900 l 1,23,-1
 800 1250 l 1,24,-1
 400 1250 l 2,25,26
 300 1250 300 1250 300 1150 c 2,27,-1
 300 900 l 1,0,-1
EndSplineSet
EndChar

StartChar: uniE556
Encoding: 58710 58710 334
Width: 1450
GlyphClass: 2
Flags: W
LayerCount: 2
Fore
SplineSet
300 900 m 1,0,-1
 500 900 l 1,1,-1
 500 750 l 1,2,-1
 300 750 l 1,3,-1
 300 0 l 1,4,-1
 100 0 l 1,5,-1
 100 750 l 1,6,-1
 0 750 l 1,7,-1
 0 900 l 1,8,-1
 100 900 l 1,9,-1
 100 1150 l 2,10,11
 100 1400 100 1400 350 1400 c 2,12,-1
 900 1400 l 1,13,-1
 900 900 l 1,14,-1
 1100 900 l 2,15,16
 1350 900 1350 900 1350 650 c 2,17,-1
 1350 250 l 2,18,19
 1350 0 1350 0 1100 0 c 2,20,-1
 900 0 l 1,21,-1
 900 -500 l 1,22,-1
 700 -500 l 1,23,-1
 700 1250 l 1,24,-1
 400 1250 l 2,25,26
 300 1250 300 1250 300 1150 c 2,27,-1
 300 900 l 1,0,-1
900 750 m 1,28,-1
 900 150 l 1,29,-1
 1050 150 l 2,30,31
 1150 150 1150 150 1150 250 c 2,32,-1
 1150 650 l 2,33,34
 1150 750 1150 750 1050 750 c 2,35,-1
 900 750 l 1,28,-1
EndSplineSet
EndChar

StartChar: uniE557
Encoding: 58711 58711 335
Width: 1450
GlyphClass: 2
Flags: W
LayerCount: 2
Fore
SplineSet
300 0 m 1,0,-1
 100 0 l 1,1,-1
 100 650 l 2,2,3
 100 886 100 886 323 899 c 1,4,5
 250 985 250 985 250 1100 c 0,6,7
 250 1400 250 1400 550 1400 c 2,8,-1
 900 1400 l 1,9,-1
 900 900 l 1,10,-1
 1100 900 l 2,11,12
 1350 900 1350 900 1350 650 c 2,13,-1
 1350 250 l 2,14,15
 1350 0 1350 0 1100 0 c 2,16,-1
 900 0 l 1,17,-1
 850 100 l 1,18,-1
 800 0 l 1,19,-1
 700 0 l 1,20,-1
 700 1250 l 1,21,-1
 550 1250 l 2,22,23
 400 1250 400 1250 400 1100 c 0,24,25
 400 975 400 975 500 900 c 1,26,-1
 500 750 l 1,27,-1
 400 750 l 2,28,29
 300 750 300 750 300 650 c 2,30,-1
 300 0 l 1,0,-1
900 150 m 1,31,-1
 1050 150 l 2,32,33
 1150 150 1150 150 1150 250 c 2,34,-1
 1150 650 l 2,35,36
 1150 750 1150 750 1050 750 c 2,37,-1
 900 750 l 1,38,-1
 900 150 l 1,31,-1
EndSplineSet
EndChar

StartChar: uniE558
Encoding: 58712 58712 336
Width: 1200
GlyphClass: 2
Flags: W
LayerCount: 2
Fore
SplineSet
300 0 m 1,0,-1
 100 0 l 1,1,-1
 100 650 l 2,2,3
 100 900 100 900 350 900 c 2,4,-1
 700 900 l 1,5,-1
 700 1150 l 2,6,7
 700 1400 700 1400 950 1400 c 2,8,-1
 1075 1400 l 1,9,-1
 1075 1250 l 1,10,-1
 1000 1250 l 2,11,12
 900 1250 900 1250 900 1150 c 2,13,-1
 900 900 l 1,14,-1
 1100 900 l 1,15,-1
 1100 750 l 1,16,-1
 900 750 l 1,17,-1
 900 0 l 1,18,-1
 700 0 l 1,19,-1
 700 750 l 1,20,-1
 400 750 l 2,21,22
 300 750 300 750 300 650 c 2,23,-1
 300 0 l 1,0,-1
EndSplineSet
EndChar

StartChar: uniE559
Encoding: 58713 58713 337
Width: 1450
GlyphClass: 2
Flags: W
LayerCount: 2
Fore
SplineSet
300 0 m 1,0,-1
 100 0 l 1,1,-1
 100 650 l 2,2,3
 100 886 100 886 323 899 c 1,4,5
 250 985 250 985 250 1100 c 0,6,7
 250 1400 250 1400 550 1400 c 2,8,-1
 900 1400 l 1,9,-1
 900 900 l 1,10,-1
 1100 900 l 2,11,12
 1350 900 1350 900 1350 650 c 2,13,-1
 1350 0 l 1,14,-1
 1150 0 l 1,15,-1
 1150 650 l 2,16,17
 1150 750 1150 750 1050 750 c 2,18,-1
 900 750 l 1,19,-1
 900 0 l 1,20,-1
 700 0 l 1,21,-1
 700 1250 l 1,22,-1
 550 1250 l 2,23,24
 400 1250 400 1250 400 1100 c 0,25,26
 400 975 400 975 500 900 c 1,27,-1
 500 750 l 1,28,-1
 400 750 l 2,29,30
 300 750 300 750 300 650 c 2,31,-1
 300 0 l 1,0,-1
EndSplineSet
EndChar

StartChar: uniE55A
Encoding: 58714 58714 338
Width: 1460
GlyphClass: 2
Flags: W
LayerCount: 2
Fore
SplineSet
300 0 m 1,0,-1
 100 0 l 1,1,-1
 100 650 l 2,2,3
 100 886 100 886 323 899 c 1,4,5
 250 985 250 985 250 1100 c 0,6,7
 250 1400 250 1400 550 1400 c 2,8,-1
 900 1400 l 1,9,-1
 900 600 l 1,10,-1
 1032 600 l 1,11,-1
 1160 900 l 1,12,-1
 1360 900 l 1,13,-1
 1223 579 l 1,14,15
 1350 528 1350 528 1350 350 c 2,16,-1
 1350 0 l 1,17,-1
 1150 0 l 1,18,-1
 1150 350 l 2,19,20
 1150 450 1150 450 1050 450 c 2,21,-1
 900 450 l 1,22,-1
 900 0 l 1,23,-1
 700 0 l 1,24,-1
 700 1250 l 1,25,-1
 550 1250 l 2,26,27
 400 1250 400 1250 400 1100 c 0,28,29
 400 975 400 975 500 900 c 1,30,-1
 500 750 l 1,31,-1
 400 750 l 2,32,33
 300 750 300 750 300 650 c 2,34,-1
 300 0 l 1,0,-1
EndSplineSet
EndChar

StartChar: uniE55B
Encoding: 58715 58715 339
Width: 1400
GlyphClass: 2
Flags: W
LayerCount: 2
Fore
SplineSet
900 1250 m 1,0,-1
 1150 1250 l 1,1,-1
 1250 1100 l 1,2,3
 1250 1000 1250 1000 1150 900 c 1,4,-1
 1300 900 l 1,5,-1
 1300 750 l 1,6,-1
 900 750 l 1,7,-1
 900 0 l 1,8,-1
 700 0 l 1,9,-1
 700 750 l 1,10,-1
 600 750 l 1,11,-1
 600 900 l 1,12,-1
 700 900 l 1,13,-1
 700 1250 l 1,14,-1
 550 1250 l 2,15,16
 400 1250 400 1250 400 1100 c 0,17,18
 400 975 400 975 500 900 c 1,19,-1
 500 750 l 1,20,-1
 400 750 l 2,21,22
 300 750 300 750 300 650 c 2,23,-1
 300 0 l 1,24,-1
 100 0 l 1,25,-1
 100 650 l 2,26,27
 100 886 100 886 323 899 c 1,28,29
 250 985 250 985 250 1100 c 0,30,31
 250 1400 250 1400 550 1400 c 2,32,-1
 900 1400 l 1,33,-1
 900 1250 l 1,0,-1
950 900 m 1,34,35
 1050 1000 1050 1000 1050 1100 c 1,36,-1
 900 1100 l 1,37,-1
 900 900 l 1,38,-1
 950 900 l 1,34,35
EndSplineSet
EndChar

StartChar: uniE55C
Encoding: 58716 58716 340
Width: 1400
GlyphClass: 2
Flags: W
LayerCount: 2
Fore
SplineSet
900 1250 m 1,0,-1
 1150 1250 l 1,1,-1
 1250 1100 l 1,2,3
 1250 1000 1250 1000 1150 900 c 1,4,-1
 1300 900 l 1,5,-1
 1300 750 l 1,6,-1
 900 750 l 1,7,-1
 900 250 l 2,8,9
 900 150 900 150 1000 150 c 2,10,-1
 1050 150 l 1,11,-1
 1050 0 l 1,12,-1
 950 0 l 2,13,14
 700 0 700 0 700 250 c 2,15,-1
 700 750 l 1,16,-1
 600 750 l 1,17,-1
 600 900 l 1,18,-1
 700 900 l 1,19,-1
 700 1250 l 1,20,-1
 550 1250 l 2,21,22
 400 1250 400 1250 400 1100 c 0,23,24
 400 975 400 975 500 900 c 1,25,-1
 500 750 l 1,26,-1
 400 750 l 2,27,28
 300 750 300 750 300 650 c 2,29,-1
 300 0 l 1,30,-1
 100 0 l 1,31,-1
 100 650 l 2,32,33
 100 886 100 886 323 899 c 1,34,35
 250 985 250 985 250 1100 c 0,36,37
 250 1400 250 1400 550 1400 c 2,38,-1
 900 1400 l 1,39,-1
 900 1250 l 1,0,-1
950 900 m 1,40,41
 1050 1000 1050 1000 1050 1100 c 1,42,-1
 900 1100 l 1,43,-1
 900 900 l 1,44,-1
 950 900 l 1,40,41
EndSplineSet
EndChar

StartChar: uniE55D
Encoding: 58717 58717 341
Width: 1450
GlyphClass: 2
Flags: W
LayerCount: 2
Fore
SplineSet
1150 650 m 2,0,1
 1150 750 1150 750 1050 750 c 2,2,-1
 900 750 l 1,3,-1
 900 0 l 1,4,-1
 700 0 l 1,5,-1
 700 750 l 1,6,-1
 600 750 l 1,7,-1
 600 900 l 1,8,-1
 700 900 l 1,9,-1
 700 1250 l 1,10,-1
 550 1250 l 2,11,12
 400 1250 400 1250 400 1100 c 0,13,14
 400 975 400 975 500 900 c 1,15,-1
 500 750 l 1,16,-1
 400 750 l 2,17,18
 300 750 300 750 300 650 c 2,19,-1
 300 0 l 1,20,-1
 100 0 l 1,21,-1
 100 650 l 2,22,23
 100 886 100 886 323 899 c 1,24,25
 250 985 250 985 250 1100 c 0,26,27
 250 1400 250 1400 550 1400 c 2,28,-1
 900 1400 l 1,29,-1
 900 1250 l 1,30,-1
 1150 1250 l 1,31,-1
 1250 1100 l 1,32,33
 1250 1000 1250 1000 1150 900 c 1,34,35
 1350 893 1350 893 1350 650 c 2,36,-1
 1350 0 l 1,37,-1
 1150 0 l 1,38,-1
 1150 650 l 2,0,1
950 900 m 1,39,40
 1050 1000 1050 1000 1050 1100 c 1,41,-1
 900 1100 l 1,42,-1
 900 900 l 1,43,-1
 950 900 l 1,39,40
EndSplineSet
EndChar

StartChar: uniE55E
Encoding: 58718 58718 342
Width: 1200
GlyphClass: 2
Flags: W
LayerCount: 2
Fore
SplineSet
900 900 m 1,0,-1
 1100 900 l 1,1,-1
 1100 750 l 1,2,-1
 900 750 l 1,3,-1
 900 250 l 2,4,5
 900 150 900 150 1000 150 c 2,6,-1
 1075 150 l 1,7,-1
 1075 0 l 1,8,-1
 950 0 l 2,9,10
 700 0 700 0 700 250 c 2,11,-1
 700 750 l 1,12,-1
 600 750 l 1,13,-1
 600 900 l 1,14,-1
 700 900 l 1,15,-1
 700 1250 l 1,16,-1
 550 1250 l 2,17,18
 400 1250 400 1250 400 1100 c 0,19,20
 400 975 400 975 500 900 c 1,21,-1
 500 750 l 1,22,-1
 400 750 l 2,23,24
 300 750 300 750 300 650 c 2,25,-1
 300 0 l 1,26,-1
 100 0 l 1,27,-1
 100 650 l 2,28,29
 100 886 100 886 323 899 c 1,30,31
 250 985 250 985 250 1100 c 0,32,33
 250 1400 250 1400 550 1400 c 2,34,-1
 900 1400 l 1,35,-1
 900 900 l 1,0,-1
EndSplineSet
EndChar

StartChar: uniE55F
Encoding: 58719 58719 343
Width: 1200
GlyphClass: 2
Flags: W
LayerCount: 2
Fore
SplineSet
1000 900 m 1,0,-1
 1100 900 l 1,1,-1
 1100 750 l 1,2,-1
 1000 750 l 1,3,-1
 1000 0 l 1,4,-1
 800 0 l 1,5,-1
 800 750 l 1,6,-1
 700 750 l 1,7,-1
 700 900 l 1,8,-1
 800 900 l 1,9,-1
 800 1250 l 1,10,-1
 550 1250 l 2,11,12
 400 1250 400 1250 400 1100 c 0,13,14
 400 975 400 975 500 900 c 1,15,-1
 500 750 l 1,16,-1
 400 750 l 2,17,18
 300 750 300 750 300 650 c 2,19,-1
 300 0 l 1,20,-1
 100 0 l 1,21,-1
 100 650 l 2,22,23
 100 886 100 886 323 899 c 1,24,25
 250 985 250 985 250 1100 c 0,26,27
 250 1400 250 1400 550 1400 c 2,28,-1
 1000 1400 l 1,29,-1
 1000 900 l 1,0,-1
EndSplineSet
EndChar

StartChar: uniE560
Encoding: 58720 58720 344
Width: 1450
GlyphClass: 2
Flags: W
LayerCount: 2
Fore
SplineSet
700 -500 m 1,0,-1
 700 1250 l 1,1,-1
 550 1250 l 2,2,3
 400 1250 400 1250 400 1100 c 0,4,5
 400 975 400 975 500 900 c 1,6,-1
 500 750 l 1,7,-1
 400 750 l 2,8,9
 300 750 300 750 300 650 c 2,10,-1
 300 0 l 1,11,-1
 100 0 l 1,12,-1
 100 650 l 2,13,14
 100 886 100 886 323 899 c 1,15,16
 250 985 250 985 250 1100 c 0,17,18
 250 1400 250 1400 550 1400 c 2,19,-1
 900 1400 l 1,20,-1
 900 900 l 1,21,-1
 1100 900 l 2,22,23
 1350 900 1350 900 1350 650 c 2,24,-1
 1350 250 l 2,25,26
 1350 0 1350 0 1100 0 c 2,27,-1
 900 0 l 1,28,-1
 900 -500 l 1,29,-1
 700 -500 l 1,0,-1
900 750 m 1,30,-1
 900 150 l 1,31,-1
 1050 150 l 2,32,33
 1150 150 1150 150 1150 250 c 2,34,-1
 1150 650 l 2,35,36
 1150 750 1150 750 1050 750 c 2,37,-1
 900 750 l 1,30,-1
EndSplineSet
EndChar

StartChar: uniE561
Encoding: 58721 58721 345
Width: 1450
GlyphClass: 2
Flags: W
LayerCount: 2
Fore
SplineSet
100 0 m 1,0,-1
 100 900 l 1,1,-1
 200 900 l 1,2,-1
 250 800 l 1,3,-1
 300 900 l 1,4,-1
 322 900 l 1,5,6
 250 985 250 985 250 1100 c 0,7,8
 250 1400 250 1400 550 1400 c 2,9,-1
 900 1400 l 1,10,-1
 900 900 l 1,11,-1
 1100 900 l 2,12,13
 1350 900 1350 900 1350 650 c 2,14,-1
 1350 250 l 2,15,16
 1350 0 1350 0 1100 0 c 2,17,-1
 900 0 l 1,18,-1
 850 100 l 1,19,-1
 800 0 l 1,20,-1
 700 0 l 1,21,-1
 700 1250 l 1,22,-1
 550 1250 l 2,23,24
 400 1250 400 1250 400 1100 c 0,25,26
 400 975 400 975 500 900 c 1,27,-1
 500 750 l 1,28,-1
 300 750 l 1,29,-1
 300 0 l 1,30,-1
 100 0 l 1,0,-1
900 150 m 1,31,-1
 1050 150 l 2,32,33
 1150 150 1150 150 1150 250 c 2,34,-1
 1150 650 l 2,35,36
 1150 750 1150 750 1050 750 c 2,37,-1
 900 750 l 1,38,-1
 900 150 l 1,31,-1
EndSplineSet
EndChar

StartChar: uniE562
Encoding: 58722 58722 346
Width: 1100
GlyphClass: 2
Flags: W
LayerCount: 2
Fore
SplineSet
100 0 m 1,0,-1
 100 900 l 1,1,-1
 200 900 l 1,2,-1
 250 800 l 1,3,-1
 300 900 l 1,4,-1
 600 900 l 1,5,-1
 600 1150 l 2,6,7
 600 1400 600 1400 850 1400 c 2,8,-1
 975 1400 l 1,9,-1
 975 1250 l 1,10,-1
 900 1250 l 2,11,12
 800 1250 800 1250 800 1150 c 2,13,-1
 800 900 l 1,14,-1
 1000 900 l 1,15,-1
 1000 750 l 1,16,-1
 800 750 l 1,17,-1
 800 0 l 1,18,-1
 600 0 l 1,19,-1
 600 750 l 1,20,-1
 300 750 l 1,21,-1
 300 0 l 1,22,-1
 100 0 l 1,0,-1
EndSplineSet
EndChar

StartChar: uniE563
Encoding: 58723 58723 347
Width: 1450
GlyphClass: 2
Flags: W
LayerCount: 2
Fore
SplineSet
100 0 m 1,0,-1
 100 900 l 1,1,-1
 200 900 l 1,2,-1
 250 800 l 1,3,-1
 300 900 l 1,4,-1
 322 900 l 1,5,6
 250 985 250 985 250 1100 c 0,7,8
 250 1400 250 1400 550 1400 c 2,9,-1
 900 1400 l 1,10,-1
 900 900 l 1,11,-1
 1100 900 l 2,12,13
 1350 900 1350 900 1350 650 c 2,14,-1
 1350 0 l 1,15,-1
 1150 0 l 1,16,-1
 1150 650 l 2,17,18
 1150 750 1150 750 1050 750 c 2,19,-1
 900 750 l 1,20,-1
 900 0 l 1,21,-1
 700 0 l 1,22,-1
 700 1250 l 1,23,-1
 550 1250 l 2,24,25
 400 1250 400 1250 400 1100 c 0,26,27
 400 975 400 975 500 900 c 1,28,-1
 500 750 l 1,29,-1
 300 750 l 1,30,-1
 300 0 l 1,31,-1
 100 0 l 1,0,-1
EndSplineSet
EndChar

StartChar: uniE564
Encoding: 58724 58724 348
Width: 1460
GlyphClass: 2
Flags: W
LayerCount: 2
Fore
SplineSet
100 0 m 1,0,-1
 100 900 l 1,1,-1
 200 900 l 1,2,-1
 250 800 l 1,3,-1
 300 900 l 1,4,-1
 322 900 l 1,5,6
 250 985 250 985 250 1100 c 0,7,8
 250 1400 250 1400 550 1400 c 2,9,-1
 900 1400 l 1,10,-1
 900 600 l 1,11,-1
 1032 600 l 1,12,-1
 1160 900 l 1,13,-1
 1360 900 l 1,14,-1
 1223 579 l 1,15,16
 1350 528 1350 528 1350 350 c 2,17,-1
 1350 0 l 1,18,-1
 1150 0 l 1,19,-1
 1150 350 l 2,20,21
 1150 450 1150 450 1050 450 c 2,22,-1
 900 450 l 1,23,-1
 900 0 l 1,24,-1
 700 0 l 1,25,-1
 700 1250 l 1,26,-1
 550 1250 l 2,27,28
 400 1250 400 1250 400 1100 c 0,29,30
 400 975 400 975 500 900 c 1,31,-1
 500 750 l 1,32,-1
 300 750 l 1,33,-1
 300 0 l 1,34,-1
 100 0 l 1,0,-1
EndSplineSet
EndChar

StartChar: uniE565
Encoding: 58725 58725 349
Width: 1400
GlyphClass: 2
Flags: W
LayerCount: 2
Fore
SplineSet
900 1250 m 1,0,-1
 1150 1250 l 1,1,-1
 1250 1100 l 1,2,3
 1250 1000 1250 1000 1150 900 c 1,4,-1
 1300 900 l 1,5,-1
 1300 750 l 1,6,-1
 900 750 l 1,7,-1
 900 0 l 1,8,-1
 700 0 l 1,9,-1
 700 750 l 1,10,-1
 600 750 l 1,11,-1
 600 900 l 1,12,-1
 700 900 l 1,13,-1
 700 1250 l 1,14,-1
 550 1250 l 2,15,16
 400 1250 400 1250 400 1100 c 0,17,18
 400 975 400 975 500 900 c 1,19,-1
 500 750 l 1,20,-1
 300 750 l 1,21,-1
 300 0 l 1,22,-1
 100 0 l 1,23,-1
 100 900 l 1,24,-1
 200 900 l 1,25,-1
 250 800 l 1,26,-1
 300 900 l 1,27,-1
 322 900 l 1,28,29
 250 985 250 985 250 1100 c 0,30,31
 250 1400 250 1400 550 1400 c 2,32,-1
 900 1400 l 1,33,-1
 900 1250 l 1,0,-1
950 900 m 1,34,35
 1050 1000 1050 1000 1050 1100 c 1,36,-1
 900 1100 l 1,37,-1
 900 900 l 1,38,-1
 950 900 l 1,34,35
EndSplineSet
EndChar

StartChar: uniE566
Encoding: 58726 58726 350
Width: 1400
GlyphClass: 2
Flags: W
LayerCount: 2
Fore
SplineSet
900 1250 m 1,0,-1
 1150 1250 l 1,1,-1
 1250 1100 l 1,2,3
 1250 1000 1250 1000 1150 900 c 1,4,-1
 1300 900 l 1,5,-1
 1300 750 l 1,6,-1
 900 750 l 1,7,-1
 900 250 l 2,8,9
 900 150 900 150 1000 150 c 2,10,-1
 1050 150 l 1,11,-1
 1050 0 l 1,12,-1
 950 0 l 2,13,14
 700 0 700 0 700 250 c 2,15,-1
 700 750 l 1,16,-1
 600 750 l 1,17,-1
 600 900 l 1,18,-1
 700 900 l 1,19,-1
 700 1250 l 1,20,-1
 550 1250 l 2,21,22
 400 1250 400 1250 400 1100 c 0,23,24
 400 975 400 975 500 900 c 1,25,-1
 500 750 l 1,26,-1
 300 750 l 1,27,-1
 300 0 l 1,28,-1
 100 0 l 1,29,-1
 100 900 l 1,30,-1
 200 900 l 1,31,-1
 250 800 l 1,32,-1
 300 900 l 1,33,-1
 322 900 l 1,34,35
 250 985 250 985 250 1100 c 0,36,37
 250 1400 250 1400 550 1400 c 2,38,-1
 900 1400 l 1,39,-1
 900 1250 l 1,0,-1
950 900 m 1,40,41
 1050 1000 1050 1000 1050 1100 c 1,42,-1
 900 1100 l 1,43,-1
 900 900 l 1,44,-1
 950 900 l 1,40,41
EndSplineSet
EndChar

StartChar: uniE567
Encoding: 58727 58727 351
Width: 1450
GlyphClass: 2
Flags: W
LayerCount: 2
Fore
SplineSet
1150 650 m 2,0,1
 1150 750 1150 750 1050 750 c 2,2,-1
 900 750 l 1,3,-1
 900 0 l 1,4,-1
 700 0 l 1,5,-1
 700 750 l 1,6,-1
 600 750 l 1,7,-1
 600 900 l 1,8,-1
 700 900 l 1,9,-1
 700 1250 l 1,10,-1
 550 1250 l 2,11,12
 400 1250 400 1250 400 1100 c 0,13,14
 400 975 400 975 500 900 c 1,15,-1
 500 750 l 1,16,-1
 300 750 l 1,17,-1
 300 0 l 1,18,-1
 100 0 l 1,19,-1
 100 900 l 1,20,-1
 200 900 l 1,21,-1
 250 800 l 1,22,-1
 300 900 l 1,23,-1
 322 900 l 1,24,25
 250 985 250 985 250 1100 c 0,26,27
 250 1400 250 1400 550 1400 c 2,28,-1
 900 1400 l 1,29,-1
 900 1250 l 1,30,-1
 1150 1250 l 1,31,-1
 1250 1100 l 1,32,33
 1250 1000 1250 1000 1150 900 c 1,34,35
 1350 893 1350 893 1350 650 c 2,36,-1
 1350 0 l 1,37,-1
 1150 0 l 1,38,-1
 1150 650 l 2,0,1
950 900 m 1,39,40
 1050 1000 1050 1000 1050 1100 c 1,41,-1
 900 1100 l 1,42,-1
 900 900 l 1,43,-1
 950 900 l 1,39,40
EndSplineSet
EndChar

StartChar: uniE568
Encoding: 58728 58728 352
Width: 1200
GlyphClass: 2
Flags: W
LayerCount: 2
Fore
SplineSet
900 900 m 1,0,-1
 1100 900 l 1,1,-1
 1100 750 l 1,2,-1
 900 750 l 1,3,-1
 900 250 l 2,4,5
 900 150 900 150 1000 150 c 2,6,-1
 1075 150 l 1,7,-1
 1075 0 l 1,8,-1
 950 0 l 2,9,10
 700 0 700 0 700 250 c 2,11,-1
 700 750 l 1,12,-1
 600 750 l 1,13,-1
 600 900 l 1,14,-1
 700 900 l 1,15,-1
 700 1250 l 1,16,-1
 550 1250 l 2,17,18
 400 1250 400 1250 400 1100 c 0,19,20
 400 975 400 975 500 900 c 1,21,-1
 500 750 l 1,22,-1
 300 750 l 1,23,-1
 300 0 l 1,24,-1
 100 0 l 1,25,-1
 100 900 l 1,26,-1
 200 900 l 1,27,-1
 250 800 l 1,28,-1
 300 900 l 1,29,-1
 322 900 l 1,30,31
 250 985 250 985 250 1100 c 0,32,33
 250 1400 250 1400 550 1400 c 2,34,-1
 900 1400 l 1,35,-1
 900 900 l 1,0,-1
EndSplineSet
EndChar

StartChar: uniE569
Encoding: 58729 58729 353
Width: 1200
GlyphClass: 2
Flags: W
LayerCount: 2
Fore
SplineSet
1000 900 m 1,0,-1
 1100 900 l 1,1,-1
 1100 750 l 1,2,-1
 1000 750 l 1,3,-1
 1000 0 l 1,4,-1
 800 0 l 1,5,-1
 800 750 l 1,6,-1
 700 750 l 1,7,-1
 700 900 l 1,8,-1
 800 900 l 1,9,-1
 800 1250 l 1,10,-1
 550 1250 l 2,11,12
 400 1250 400 1250 400 1100 c 0,13,14
 400 975 400 975 500 900 c 1,15,-1
 500 750 l 1,16,-1
 300 750 l 1,17,-1
 300 0 l 1,18,-1
 100 0 l 1,19,-1
 100 900 l 1,20,-1
 200 900 l 1,21,-1
 250 800 l 1,22,-1
 300 900 l 1,23,-1
 322 900 l 1,24,25
 250 985 250 985 250 1100 c 0,26,27
 250 1400 250 1400 550 1400 c 2,28,-1
 1000 1400 l 1,29,-1
 1000 900 l 1,0,-1
EndSplineSet
EndChar

StartChar: uniE56A
Encoding: 58730 58730 354
Width: 1450
GlyphClass: 2
Flags: W
LayerCount: 2
Fore
SplineSet
700 -500 m 1,0,-1
 700 1250 l 1,1,-1
 550 1250 l 2,2,3
 400 1250 400 1250 400 1100 c 0,4,5
 400 975 400 975 500 900 c 1,6,-1
 500 750 l 1,7,-1
 300 750 l 1,8,-1
 300 0 l 1,9,-1
 100 0 l 1,10,-1
 100 900 l 1,11,-1
 200 900 l 1,12,-1
 250 800 l 1,13,-1
 300 900 l 1,14,-1
 322 900 l 1,15,16
 250 985 250 985 250 1100 c 0,17,18
 250 1400 250 1400 550 1400 c 2,19,-1
 900 1400 l 1,20,-1
 900 900 l 1,21,-1
 1100 900 l 2,22,23
 1350 900 1350 900 1350 650 c 2,24,-1
 1350 250 l 2,25,26
 1350 0 1350 0 1100 0 c 2,27,-1
 900 0 l 1,28,-1
 900 -500 l 1,29,-1
 700 -500 l 1,0,-1
900 750 m 1,30,-1
 900 150 l 1,31,-1
 1050 150 l 2,32,33
 1150 150 1150 150 1150 250 c 2,34,-1
 1150 650 l 2,35,36
 1150 750 1150 750 1050 750 c 2,37,-1
 900 750 l 1,30,-1
EndSplineSet
EndChar

StartChar: uniE56B
Encoding: 58731 58731 355
Width: 1600
GlyphClass: 2
Flags: W
LayerCount: 2
Fore
SplineSet
475 250 m 2,0,1
 475 0 475 0 225 0 c 2,2,-1
 100 0 l 1,3,-1
 100 150 l 1,4,-1
 175 150 l 2,5,6
 275 150 275 150 275 250 c 2,7,-1
 275 650 l 2,8,9
 275 874 275 874 475 897 c 1,10,11
 400 983 400 983 400 1100 c 0,12,13
 400 1400 400 1400 700 1400 c 2,14,-1
 1050 1400 l 1,15,-1
 1050 900 l 1,16,-1
 1250 900 l 2,17,18
 1500 900 1500 900 1500 650 c 2,19,-1
 1500 250 l 2,20,21
 1500 0 1500 0 1250 0 c 2,22,-1
 1050 0 l 1,23,-1
 1000 100 l 1,24,-1
 950 0 l 1,25,-1
 850 0 l 1,26,-1
 850 1250 l 1,27,-1
 700 1250 l 2,28,29
 550 1250 550 1250 550 1100 c 0,30,31
 550 975 550 975 650 900 c 1,32,-1
 650 750 l 1,33,-1
 575 750 l 2,34,35
 475 750 475 750 475 650 c 2,36,-1
 475 250 l 2,0,1
1050 150 m 1,37,-1
 1200 150 l 2,38,39
 1300 150 1300 150 1300 250 c 2,40,-1
 1300 650 l 2,41,42
 1300 750 1300 750 1200 750 c 2,43,-1
 1050 750 l 1,44,-1
 1050 150 l 1,37,-1
EndSplineSet
EndChar

StartChar: uniE56C
Encoding: 58732 58732 356
Width: 1350
GlyphClass: 2
Flags: W
LayerCount: 2
Fore
SplineSet
475 250 m 2,0,1
 475 0 475 0 225 0 c 2,2,-1
 100 0 l 1,3,-1
 100 150 l 1,4,-1
 175 150 l 2,5,6
 275 150 275 150 275 250 c 2,7,-1
 275 650 l 2,8,9
 275 900 275 900 525 900 c 2,10,-1
 850 900 l 1,11,-1
 850 1150 l 2,12,13
 850 1400 850 1400 1100 1400 c 2,14,-1
 1225 1400 l 1,15,-1
 1225 1250 l 1,16,-1
 1150 1250 l 2,17,18
 1050 1250 1050 1250 1050 1150 c 2,19,-1
 1050 900 l 1,20,-1
 1250 900 l 1,21,-1
 1250 750 l 1,22,-1
 1050 750 l 1,23,-1
 1050 0 l 1,24,-1
 850 0 l 1,25,-1
 850 750 l 1,26,-1
 575 750 l 2,27,28
 475 750 475 750 475 650 c 2,29,-1
 475 250 l 2,0,1
EndSplineSet
EndChar

StartChar: uniE56D
Encoding: 58733 58733 357
Width: 1600
GlyphClass: 2
Flags: W
LayerCount: 2
Fore
SplineSet
475 250 m 2,0,1
 475 0 475 0 225 0 c 2,2,-1
 100 0 l 1,3,-1
 100 150 l 1,4,-1
 175 150 l 2,5,6
 275 150 275 150 275 250 c 2,7,-1
 275 650 l 2,8,9
 275 874 275 874 475 897 c 1,10,11
 400 983 400 983 400 1100 c 0,12,13
 400 1400 400 1400 700 1400 c 2,14,-1
 1050 1400 l 1,15,-1
 1050 900 l 1,16,-1
 1250 900 l 2,17,18
 1500 900 1500 900 1500 650 c 2,19,-1
 1500 0 l 1,20,-1
 1300 0 l 1,21,-1
 1300 650 l 2,22,23
 1300 750 1300 750 1200 750 c 2,24,-1
 1050 750 l 1,25,-1
 1050 0 l 1,26,-1
 850 0 l 1,27,-1
 850 1250 l 1,28,-1
 700 1250 l 2,29,30
 550 1250 550 1250 550 1100 c 0,31,32
 550 975 550 975 650 900 c 1,33,-1
 650 750 l 1,34,-1
 575 750 l 2,35,36
 475 750 475 750 475 650 c 2,37,-1
 475 250 l 2,0,1
EndSplineSet
EndChar

StartChar: uniE56E
Encoding: 58734 58734 358
Width: 1610
GlyphClass: 2
Flags: W
LayerCount: 2
Fore
SplineSet
475 250 m 2,0,1
 475 0 475 0 225 0 c 2,2,-1
 100 0 l 1,3,-1
 100 150 l 1,4,-1
 175 150 l 2,5,6
 275 150 275 150 275 250 c 2,7,-1
 275 650 l 2,8,9
 275 874 275 874 475 897 c 1,10,11
 400 983 400 983 400 1100 c 0,12,13
 400 1400 400 1400 700 1400 c 2,14,-1
 1050 1400 l 1,15,-1
 1050 600 l 1,16,-1
 1182 600 l 1,17,-1
 1310 900 l 1,18,-1
 1510 900 l 1,19,-1
 1373 579 l 1,20,21
 1500 528 1500 528 1500 350 c 2,22,-1
 1500 0 l 1,23,-1
 1300 0 l 1,24,-1
 1300 350 l 2,25,26
 1300 450 1300 450 1200 450 c 2,27,-1
 1050 450 l 1,28,-1
 1050 0 l 1,29,-1
 850 0 l 1,30,-1
 850 1250 l 1,31,-1
 700 1250 l 2,32,33
 550 1250 550 1250 550 1100 c 0,34,35
 550 975 550 975 650 900 c 1,36,-1
 650 750 l 1,37,-1
 575 750 l 2,38,39
 475 750 475 750 475 650 c 2,40,-1
 475 250 l 2,0,1
EndSplineSet
EndChar

StartChar: uniE56F
Encoding: 58735 58735 359
Width: 1550
GlyphClass: 2
Flags: W
LayerCount: 2
Fore
SplineSet
1050 1250 m 1,0,-1
 1300 1250 l 1,1,-1
 1400 1100 l 1,2,3
 1400 1000 1400 1000 1300 900 c 1,4,-1
 1450 900 l 1,5,-1
 1450 750 l 1,6,-1
 1050 750 l 1,7,-1
 1050 0 l 1,8,-1
 850 0 l 1,9,-1
 850 750 l 1,10,-1
 750 750 l 1,11,-1
 750 900 l 1,12,-1
 850 900 l 1,13,-1
 850 1250 l 1,14,-1
 700 1250 l 2,15,16
 550 1250 550 1250 550 1100 c 0,17,18
 550 975 550 975 650 900 c 1,19,-1
 650 750 l 1,20,-1
 575 750 l 2,21,22
 475 750 475 750 475 650 c 2,23,-1
 475 250 l 2,24,25
 475 0 475 0 225 0 c 2,26,-1
 100 0 l 1,27,-1
 100 150 l 1,28,-1
 175 150 l 2,29,30
 275 150 275 150 275 250 c 2,31,-1
 275 650 l 2,32,33
 275 874 275 874 475 897 c 1,34,35
 400 983 400 983 400 1100 c 0,36,37
 400 1400 400 1400 700 1400 c 2,38,-1
 1050 1400 l 1,39,-1
 1050 1250 l 1,0,-1
1100 900 m 1,40,41
 1200 1000 1200 1000 1200 1100 c 1,42,-1
 1050 1100 l 1,43,-1
 1050 900 l 1,44,-1
 1100 900 l 1,40,41
EndSplineSet
EndChar

StartChar: uniE570
Encoding: 58736 58736 360
Width: 1550
GlyphClass: 2
Flags: W
LayerCount: 2
Fore
SplineSet
1050 1250 m 1,0,-1
 1300 1250 l 1,1,-1
 1400 1100 l 1,2,3
 1400 1000 1400 1000 1300 900 c 1,4,-1
 1450 900 l 1,5,-1
 1450 750 l 1,6,-1
 1050 750 l 1,7,-1
 1050 250 l 2,8,9
 1050 150 1050 150 1150 150 c 2,10,-1
 1200 150 l 1,11,-1
 1200 0 l 1,12,-1
 1100 0 l 2,13,14
 850 0 850 0 850 250 c 2,15,-1
 850 750 l 1,16,-1
 750 750 l 1,17,-1
 750 900 l 1,18,-1
 850 900 l 1,19,-1
 850 1250 l 1,20,-1
 700 1250 l 2,21,22
 550 1250 550 1250 550 1100 c 0,23,24
 550 975 550 975 650 900 c 1,25,-1
 650 750 l 1,26,-1
 575 750 l 2,27,28
 475 750 475 750 475 650 c 2,29,-1
 475 250 l 2,30,31
 475 0 475 0 225 0 c 2,32,-1
 100 0 l 1,33,-1
 100 150 l 1,34,-1
 175 150 l 2,35,36
 275 150 275 150 275 250 c 2,37,-1
 275 650 l 2,38,39
 275 874 275 874 475 897 c 1,40,41
 400 983 400 983 400 1100 c 0,42,43
 400 1400 400 1400 700 1400 c 2,44,-1
 1050 1400 l 1,45,-1
 1050 1250 l 1,0,-1
1100 900 m 1,46,47
 1200 1000 1200 1000 1200 1100 c 1,48,-1
 1050 1100 l 1,49,-1
 1050 900 l 1,50,-1
 1100 900 l 1,46,47
EndSplineSet
EndChar

StartChar: uniE571
Encoding: 58737 58737 361
Width: 1600
GlyphClass: 2
Flags: W
LayerCount: 2
Fore
SplineSet
1300 650 m 2,0,1
 1300 750 1300 750 1200 750 c 2,2,-1
 1050 750 l 1,3,-1
 1050 0 l 1,4,-1
 850 0 l 1,5,-1
 850 750 l 1,6,-1
 750 750 l 1,7,-1
 750 900 l 1,8,-1
 850 900 l 1,9,-1
 850 1250 l 1,10,-1
 700 1250 l 2,11,12
 550 1250 550 1250 550 1100 c 0,13,14
 550 975 550 975 650 900 c 1,15,-1
 650 750 l 1,16,-1
 575 750 l 2,17,18
 475 750 475 750 475 650 c 2,19,-1
 475 250 l 2,20,21
 475 0 475 0 225 0 c 2,22,-1
 100 0 l 1,23,-1
 100 150 l 1,24,-1
 175 150 l 2,25,26
 275 150 275 150 275 250 c 2,27,-1
 275 650 l 2,28,29
 275 874 275 874 475 897 c 1,30,31
 400 983 400 983 400 1100 c 0,32,33
 400 1400 400 1400 700 1400 c 2,34,-1
 1050 1400 l 1,35,-1
 1050 1250 l 1,36,-1
 1300 1250 l 1,37,-1
 1400 1100 l 1,38,39
 1400 1000 1400 1000 1300 900 c 1,40,41
 1500 893 1500 893 1500 650 c 2,42,-1
 1500 0 l 1,43,-1
 1300 0 l 1,44,-1
 1300 650 l 2,0,1
1100 900 m 1,45,46
 1200 1000 1200 1000 1200 1100 c 1,47,-1
 1050 1100 l 1,48,-1
 1050 900 l 1,49,-1
 1100 900 l 1,45,46
EndSplineSet
EndChar

StartChar: uniE572
Encoding: 58738 58738 362
Width: 1350
GlyphClass: 2
Flags: W
LayerCount: 2
Fore
SplineSet
1150 900 m 1,0,-1
 1250 900 l 1,1,-1
 1250 750 l 1,2,-1
 1150 750 l 1,3,-1
 1150 0 l 1,4,-1
 950 0 l 1,5,-1
 950 750 l 1,6,-1
 850 750 l 1,7,-1
 850 900 l 1,8,-1
 950 900 l 1,9,-1
 950 1250 l 1,10,-1
 700 1250 l 2,11,12
 550 1250 550 1250 550 1100 c 0,13,14
 550 975 550 975 650 900 c 1,15,-1
 650 750 l 1,16,-1
 575 750 l 2,17,18
 475 750 475 750 475 650 c 2,19,-1
 475 250 l 2,20,21
 475 0 475 0 225 0 c 2,22,-1
 100 0 l 1,23,-1
 100 150 l 1,24,-1
 175 150 l 2,25,26
 275 150 275 150 275 250 c 2,27,-1
 275 650 l 2,28,29
 275 874 275 874 475 897 c 1,30,31
 400 983 400 983 400 1100 c 0,32,33
 400 1400 400 1400 700 1400 c 2,34,-1
 1150 1400 l 1,35,-1
 1150 900 l 1,0,-1
EndSplineSet
EndChar

StartChar: uniE573
Encoding: 58739 58739 363
Width: 1600
GlyphClass: 2
Flags: W
LayerCount: 2
Fore
SplineSet
650 750 m 1,0,-1
 575 750 l 2,1,2
 475 750 475 750 475 650 c 2,3,-1
 475 250 l 2,4,5
 475 0 475 0 225 0 c 2,6,-1
 100 0 l 1,7,-1
 100 150 l 1,8,-1
 175 150 l 2,9,10
 275 150 275 150 275 250 c 2,11,-1
 275 650 l 2,12,13
 275 874 275 874 475 897 c 1,14,15
 400 983 400 983 400 1100 c 0,16,17
 400 1400 400 1400 700 1400 c 2,18,-1
 1050 1400 l 1,19,-1
 1050 900 l 1,20,-1
 1250 900 l 2,21,22
 1500 900 1500 900 1500 650 c 2,23,-1
 1500 250 l 2,24,25
 1500 0 1500 0 1250 0 c 2,26,-1
 1050 0 l 1,27,-1
 1050 -500 l 1,28,-1
 850 -500 l 1,29,-1
 850 1250 l 1,30,-1
 700 1250 l 2,31,32
 550 1250 550 1250 550 1100 c 0,33,34
 550 975 550 975 650 900 c 1,35,-1
 650 750 l 1,0,-1
1050 750 m 1,36,-1
 1050 150 l 1,37,-1
 1200 150 l 2,38,39
 1300 150 1300 150 1300 250 c 2,40,-1
 1300 650 l 2,41,42
 1300 750 1300 750 1200 750 c 2,43,-1
 1050 750 l 1,36,-1
EndSplineSet
EndChar

StartChar: uniE574
Encoding: 58740 58740 364
Width: 1750
GlyphClass: 2
Flags: W
LayerCount: 2
Fore
SplineSet
750 750 m 1,0,-1
 425 750 l 2,1,2
 325 750 325 750 325 650 c 0,3,4
 325 555 325 555 415 550 c 1,5,-1
 550 550 l 2,6,7
 800 550 800 550 800 300 c 2,8,-1
 800 250 l 2,9,10
 800 0 800 0 550 0 c 2,11,-1
 100 0 l 1,12,-1
 100 150 l 1,13,-1
 500 150 l 2,14,15
 600 150 600 150 600 250 c 2,16,-1
 600 300 l 2,17,18
 600 400 600 400 500 400 c 2,19,-1
 375 400 l 2,20,21
 125 400 125 400 125 650 c 256,22,23
 125 900 125 900 375 900 c 2,24,-1
 572 900 l 1,25,26
 500 985 500 985 500 1100 c 0,27,28
 500 1400 500 1400 800 1400 c 2,29,-1
 1200 1400 l 1,30,-1
 1200 900 l 1,31,-1
 1400 900 l 2,32,33
 1650 900 1650 900 1650 650 c 2,34,-1
 1650 250 l 2,35,36
 1650 0 1650 0 1400 0 c 2,37,-1
 1200 0 l 1,38,-1
 1150 100 l 1,39,-1
 1100 0 l 1,40,-1
 1000 0 l 1,41,-1
 1000 1250 l 1,42,-1
 800 1250 l 2,43,44
 650 1250 650 1250 650 1100 c 0,45,46
 650 975 650 975 750 900 c 1,47,-1
 750 750 l 1,0,-1
1200 150 m 1,48,-1
 1350 150 l 2,49,50
 1450 150 1450 150 1450 250 c 2,51,-1
 1450 650 l 2,52,53
 1450 750 1450 750 1350 750 c 2,54,-1
 1200 750 l 1,55,-1
 1200 150 l 1,48,-1
EndSplineSet
EndChar

StartChar: uniE575
Encoding: 58741 58741 365
Width: 1500
GlyphClass: 2
Flags: W
LayerCount: 2
Fore
SplineSet
1200 900 m 1,0,-1
 1400 900 l 1,1,-1
 1400 750 l 1,2,-1
 1200 750 l 1,3,-1
 1200 0 l 1,4,-1
 1000 0 l 1,5,-1
 1000 750 l 1,6,-1
 425 750 l 2,7,8
 325 750 325 750 325 650 c 256,9,10
 325 550 325 550 425 550 c 2,11,-1
 550 550 l 2,12,13
 800 550 800 550 800 300 c 2,14,-1
 800 250 l 2,15,16
 800 0 800 0 550 0 c 2,17,-1
 100 0 l 1,18,-1
 100 150 l 1,19,-1
 500 150 l 2,20,21
 600 150 600 150 600 250 c 2,22,-1
 600 300 l 2,23,24
 600 400 600 400 500 400 c 2,25,-1
 375 400 l 2,26,27
 125 400 125 400 125 650 c 256,28,29
 125 900 125 900 375 900 c 2,30,-1
 1000 900 l 1,31,-1
 1000 1150 l 2,32,33
 1000 1400 1000 1400 1250 1400 c 2,34,-1
 1375 1400 l 1,35,-1
 1375 1250 l 1,36,-1
 1300 1250 l 2,37,38
 1200 1250 1200 1250 1200 1150 c 2,39,-1
 1200 900 l 1,0,-1
EndSplineSet
EndChar

StartChar: uniE576
Encoding: 58742 58742 366
Width: 1750
GlyphClass: 2
Flags: W
LayerCount: 2
Fore
SplineSet
750 750 m 1,0,-1
 425 750 l 2,1,2
 325 750 325 750 325 650 c 0,3,4
 325 555 325 555 415 550 c 1,5,-1
 550 550 l 2,6,7
 800 550 800 550 800 300 c 2,8,-1
 800 250 l 2,9,10
 800 0 800 0 550 0 c 2,11,-1
 100 0 l 1,12,-1
 100 150 l 1,13,-1
 500 150 l 2,14,15
 600 150 600 150 600 250 c 2,16,-1
 600 300 l 2,17,18
 600 400 600 400 500 400 c 2,19,-1
 375 400 l 2,20,21
 125 400 125 400 125 650 c 256,22,23
 125 900 125 900 375 900 c 2,24,-1
 572 900 l 1,25,26
 500 985 500 985 500 1100 c 0,27,28
 500 1400 500 1400 800 1400 c 2,29,-1
 1200 1400 l 1,30,-1
 1200 900 l 1,31,-1
 1400 900 l 2,32,33
 1650 900 1650 900 1650 650 c 2,34,-1
 1650 0 l 1,35,-1
 1450 0 l 1,36,-1
 1450 650 l 2,37,38
 1450 750 1450 750 1350 750 c 2,39,-1
 1200 750 l 1,40,-1
 1200 0 l 1,41,-1
 1000 0 l 1,42,-1
 1000 1250 l 1,43,-1
 800 1250 l 2,44,45
 650 1250 650 1250 650 1100 c 0,46,47
 650 975 650 975 750 900 c 1,48,-1
 750 750 l 1,0,-1
EndSplineSet
EndChar

StartChar: uniE577
Encoding: 58743 58743 367
Width: 1760
GlyphClass: 2
Flags: W
LayerCount: 2
Fore
SplineSet
750 750 m 1,0,-1
 425 750 l 2,1,2
 325 750 325 750 325 650 c 0,3,4
 325 555 325 555 415 550 c 1,5,-1
 550 550 l 2,6,7
 800 550 800 550 800 300 c 2,8,-1
 800 250 l 2,9,10
 800 0 800 0 550 0 c 2,11,-1
 100 0 l 1,12,-1
 100 150 l 1,13,-1
 500 150 l 2,14,15
 600 150 600 150 600 250 c 2,16,-1
 600 300 l 2,17,18
 600 400 600 400 500 400 c 2,19,-1
 375 400 l 2,20,21
 125 400 125 400 125 650 c 256,22,23
 125 900 125 900 375 900 c 2,24,-1
 572 900 l 1,25,26
 500 985 500 985 500 1100 c 0,27,28
 500 1400 500 1400 800 1400 c 2,29,-1
 1200 1400 l 1,30,-1
 1200 600 l 1,31,-1
 1332 600 l 1,32,-1
 1460 900 l 1,33,-1
 1660 900 l 1,34,-1
 1523 579 l 1,35,36
 1650 528 1650 528 1650 350 c 2,37,-1
 1650 0 l 1,38,-1
 1450 0 l 1,39,-1
 1450 350 l 2,40,41
 1450 450 1450 450 1350 450 c 2,42,-1
 1200 450 l 1,43,-1
 1200 0 l 1,44,-1
 1000 0 l 1,45,-1
 1000 1250 l 1,46,-1
 800 1250 l 2,47,48
 650 1250 650 1250 650 1100 c 0,49,50
 650 975 650 975 750 900 c 1,51,-1
 750 750 l 1,0,-1
EndSplineSet
EndChar

StartChar: uniE578
Encoding: 58744 58744 368
Width: 1700
GlyphClass: 2
Flags: W
LayerCount: 2
Fore
SplineSet
750 750 m 1,0,-1
 425 750 l 2,1,2
 325 750 325 750 325 650 c 0,3,4
 325 555 325 555 415 550 c 1,5,-1
 550 550 l 2,6,7
 800 550 800 550 800 300 c 2,8,-1
 800 250 l 2,9,10
 800 0 800 0 550 0 c 2,11,-1
 100 0 l 1,12,-1
 100 150 l 1,13,-1
 500 150 l 2,14,15
 600 150 600 150 600 250 c 2,16,-1
 600 300 l 2,17,18
 600 400 600 400 500 400 c 2,19,-1
 375 400 l 2,20,21
 125 400 125 400 125 650 c 256,22,23
 125 900 125 900 375 900 c 2,24,-1
 572 900 l 1,25,26
 500 985 500 985 500 1100 c 0,27,28
 500 1400 500 1400 800 1400 c 2,29,-1
 1200 1400 l 1,30,-1
 1200 1250 l 1,31,-1
 1450 1250 l 1,32,-1
 1550 1100 l 1,33,34
 1550 1000 1550 1000 1450 900 c 1,35,-1
 1600 900 l 1,36,-1
 1600 750 l 1,37,-1
 1200 750 l 1,38,-1
 1200 0 l 1,39,-1
 1000 0 l 1,40,-1
 1000 750 l 1,41,-1
 900 750 l 1,42,-1
 900 900 l 1,43,-1
 1000 900 l 1,44,-1
 1000 1250 l 1,45,-1
 800 1250 l 2,46,47
 650 1250 650 1250 650 1100 c 0,48,49
 650 975 650 975 750 900 c 1,50,-1
 750 750 l 1,0,-1
1250 900 m 1,51,52
 1350 1000 1350 1000 1350 1100 c 1,53,-1
 1200 1100 l 1,54,-1
 1200 900 l 1,55,-1
 1250 900 l 1,51,52
EndSplineSet
EndChar

StartChar: uniE579
Encoding: 58745 58745 369
Width: 1700
GlyphClass: 2
Flags: W
LayerCount: 2
Fore
SplineSet
750 750 m 1,0,-1
 425 750 l 2,1,2
 325 750 325 750 325 650 c 0,3,4
 325 555 325 555 415 550 c 1,5,-1
 550 550 l 2,6,7
 800 550 800 550 800 300 c 2,8,-1
 800 250 l 2,9,10
 800 0 800 0 550 0 c 2,11,-1
 100 0 l 1,12,-1
 100 150 l 1,13,-1
 500 150 l 2,14,15
 600 150 600 150 600 250 c 2,16,-1
 600 300 l 2,17,18
 600 400 600 400 500 400 c 2,19,-1
 375 400 l 2,20,21
 125 400 125 400 125 650 c 256,22,23
 125 900 125 900 375 900 c 2,24,-1
 572 900 l 1,25,26
 500 985 500 985 500 1100 c 0,27,28
 500 1400 500 1400 800 1400 c 2,29,-1
 1200 1400 l 1,30,-1
 1200 1250 l 1,31,-1
 1450 1250 l 1,32,-1
 1550 1100 l 1,33,34
 1550 1000 1550 1000 1450 900 c 1,35,-1
 1600 900 l 1,36,-1
 1600 750 l 1,37,-1
 1200 750 l 1,38,-1
 1200 250 l 2,39,40
 1200 150 1200 150 1300 150 c 2,41,-1
 1350 150 l 1,42,-1
 1350 0 l 1,43,-1
 1250 0 l 2,44,45
 1000 0 1000 0 1000 250 c 2,46,-1
 1000 750 l 1,47,-1
 900 750 l 1,48,-1
 900 900 l 1,49,-1
 1000 900 l 1,50,-1
 1000 1250 l 1,51,-1
 800 1250 l 2,52,53
 650 1250 650 1250 650 1100 c 0,54,55
 650 975 650 975 750 900 c 1,56,-1
 750 750 l 1,0,-1
1250 900 m 1,57,58
 1350 1000 1350 1000 1350 1100 c 1,59,-1
 1200 1100 l 1,60,-1
 1200 900 l 1,61,-1
 1250 900 l 1,57,58
EndSplineSet
EndChar

StartChar: uniE57A
Encoding: 58746 58746 370
Width: 1750
GlyphClass: 2
Flags: W
LayerCount: 2
Fore
SplineSet
750 750 m 1,0,-1
 425 750 l 2,1,2
 325 750 325 750 325 650 c 0,3,4
 325 555 325 555 415 550 c 1,5,-1
 550 550 l 2,6,7
 800 550 800 550 800 300 c 2,8,-1
 800 250 l 2,9,10
 800 0 800 0 550 0 c 2,11,-1
 100 0 l 1,12,-1
 100 150 l 1,13,-1
 500 150 l 2,14,15
 600 150 600 150 600 250 c 2,16,-1
 600 300 l 2,17,18
 600 397 600 397 505 400 c 2,19,-1
 375 400 l 2,20,21
 125 400 125 400 125 650 c 256,22,23
 125 900 125 900 375 900 c 2,24,-1
 572 900 l 1,25,26
 500 985 500 985 500 1100 c 0,27,28
 500 1400 500 1400 800 1400 c 2,29,-1
 1200 1400 l 1,30,-1
 1200 1250 l 1,31,-1
 1450 1250 l 1,32,-1
 1550 1100 l 1,33,34
 1550 1000 1550 1000 1450 900 c 1,35,36
 1650 893 1650 893 1650 650 c 2,37,-1
 1650 0 l 1,38,-1
 1450 0 l 1,39,-1
 1450 650 l 2,40,41
 1450 750 1450 750 1350 750 c 2,42,-1
 1200 750 l 1,43,-1
 1200 0 l 1,44,-1
 1000 0 l 1,45,-1
 1000 750 l 1,46,-1
 900 750 l 1,47,-1
 900 900 l 1,48,-1
 1000 900 l 1,49,-1
 1000 1250 l 1,50,-1
 800 1250 l 2,51,52
 650 1250 650 1250 650 1100 c 0,53,54
 650 975 650 975 750 900 c 1,55,-1
 750 750 l 1,0,-1
1250 900 m 1,56,57
 1350 1000 1350 1000 1350 1100 c 1,58,-1
 1200 1100 l 1,59,-1
 1200 900 l 1,60,-1
 1250 900 l 1,56,57
EndSplineSet
EndChar

StartChar: uniE57B
Encoding: 58747 58747 371
Width: 1500
GlyphClass: 2
Flags: W
LayerCount: 2
Fore
SplineSet
600 300 m 2,0,1
 600 400 600 400 500 400 c 2,2,-1
 375 400 l 2,3,4
 125 400 125 400 125 650 c 256,5,6
 125 900 125 900 375 900 c 2,7,-1
 572 900 l 1,8,9
 500 985 500 985 500 1100 c 0,10,11
 500 1400 500 1400 800 1400 c 2,12,-1
 1200 1400 l 1,13,-1
 1200 900 l 1,14,-1
 1400 900 l 1,15,-1
 1400 750 l 1,16,-1
 1200 750 l 1,17,-1
 1200 250 l 2,18,19
 1200 150 1200 150 1300 150 c 2,20,-1
 1375 150 l 1,21,-1
 1375 0 l 1,22,-1
 1250 0 l 2,23,24
 1000 0 1000 0 1000 250 c 2,25,-1
 1000 750 l 1,26,-1
 900 750 l 1,27,-1
 900 900 l 1,28,-1
 1000 900 l 1,29,-1
 1000 1250 l 1,30,-1
 800 1250 l 2,31,32
 650 1250 650 1250 650 1100 c 0,33,34
 650 975 650 975 750 900 c 1,35,-1
 750 750 l 1,36,-1
 425 750 l 2,37,38
 325 750 325 750 325 650 c 256,39,40
 325 550 325 550 425 550 c 2,41,-1
 550 550 l 2,42,43
 800 550 800 550 800 300 c 2,44,-1
 800 250 l 2,45,46
 800 0 800 0 550 0 c 2,47,-1
 100 0 l 1,48,-1
 100 150 l 1,49,-1
 500 150 l 2,50,51
 600 150 600 150 600 250 c 2,52,-1
 600 300 l 2,0,1
EndSplineSet
EndChar

StartChar: uniE57C
Encoding: 58748 58748 372
Width: 1500
GlyphClass: 2
Flags: W
LayerCount: 2
Fore
SplineSet
750 750 m 1,0,-1
 425 750 l 2,1,2
 325 750 325 750 325 650 c 256,3,4
 325 550 325 550 425 550 c 2,5,-1
 550 550 l 2,6,7
 800 550 800 550 800 300 c 2,8,-1
 800 250 l 2,9,10
 800 0 800 0 550 0 c 2,11,-1
 100 0 l 1,12,-1
 100 150 l 1,13,-1
 500 150 l 2,14,15
 600 150 600 150 600 250 c 2,16,-1
 600 300 l 2,17,18
 600 397 600 397 505 400 c 2,19,-1
 375 400 l 2,20,21
 125 400 125 400 125 650 c 256,22,23
 125 900 125 900 375 900 c 2,24,-1
 572 900 l 1,25,26
 500 985 500 985 500 1100 c 0,27,28
 500 1400 500 1400 800 1400 c 2,29,-1
 1300 1400 l 1,30,-1
 1300 900 l 1,31,-1
 1400 900 l 1,32,-1
 1400 750 l 1,33,-1
 1300 750 l 1,34,-1
 1300 0 l 1,35,-1
 1100 0 l 1,36,-1
 1100 750 l 1,37,-1
 1000 750 l 1,38,-1
 1000 900 l 1,39,-1
 1100 900 l 1,40,-1
 1100 1250 l 1,41,-1
 800 1250 l 2,42,43
 650 1250 650 1250 650 1100 c 0,44,45
 650 975 650 975 750 900 c 1,46,-1
 750 750 l 1,0,-1
EndSplineSet
EndChar

StartChar: uniE57D
Encoding: 58749 58749 373
Width: 1700
GlyphClass: 2
Flags: W
LayerCount: 2
Fore
SplineSet
750 750 m 1,0,-1
 425 750 l 2,1,2
 325 750 325 750 325 650 c 0,3,4
 325 555 325 555 415 550 c 1,5,-1
 550 550 l 2,6,7
 800 550 800 550 800 300 c 2,8,-1
 800 250 l 2,9,10
 800 0 800 0 550 0 c 2,11,-1
 100 0 l 1,12,-1
 100 150 l 1,13,-1
 500 150 l 2,14,15
 600 150 600 150 600 250 c 2,16,-1
 600 300 l 2,17,18
 600 400 600 400 500 400 c 2,19,-1
 375 400 l 2,20,21
 125 400 125 400 125 650 c 256,22,23
 125 900 125 900 375 900 c 2,24,-1
 572 900 l 1,25,26
 500 985 500 985 500 1100 c 0,27,28
 500 1400 500 1400 800 1400 c 2,29,-1
 1150 1400 l 1,30,-1
 1150 900 l 1,31,-1
 1350 900 l 2,32,33
 1600 900 1600 900 1600 650 c 2,34,-1
 1600 250 l 2,35,36
 1600 0 1600 0 1350 0 c 2,37,-1
 1150 0 l 1,38,-1
 1150 -500 l 1,39,-1
 950 -500 l 1,40,-1
 950 1250 l 1,41,-1
 800 1250 l 2,42,43
 650 1250 650 1250 650 1100 c 0,44,45
 650 975 650 975 750 900 c 1,46,-1
 750 750 l 1,0,-1
1150 750 m 1,47,-1
 1150 150 l 1,48,-1
 1300 150 l 2,49,50
 1400 150 1400 150 1400 250 c 2,51,-1
 1400 650 l 2,52,53
 1400 750 1400 750 1300 750 c 2,54,-1
 1150 750 l 1,47,-1
EndSplineSet
EndChar

StartChar: uniF000
Encoding: 61440 61440 374
Width: 1752
GlyphClass: 2
Flags: W
LayerCount: 2
Fore
SplineSet
809 1700 m 1,0,1
 826 1600 826 1600 865 1452 c 1,2,-1
 871 1452 l 1,3,-1
 904 1566 l 1,4,-1
 914 1566 l 1,5,6
 935 1497 935 1497 935 1447 c 1,7,-1
 925 1388 l 1,8,-1
 956 1388 l 1,9,-1
 979 1393 l 1,10,-1
 1000 1388 l 1,11,-1
 1022 1388 l 1,12,-1
 1016 1414 l 1,13,-1
 1016 1473 l 2,14,15
 1016 1533 1016 1533 1049 1701 c 1,16,-1
 1068 1701 l 1,17,18
 1033 1526 1033 1526 1033 1447 c 0,19,20
 1033 1371 1033 1371 1064 1371 c 1,21,22
 1113 1341 1113 1341 1146 1296 c 1,23,-1
 1146 1290 l 1,24,-1
 1134 1290 l 1,25,-1
 1049 1312 l 1,26,27
 1162 1164 1162 1164 1162 1064 c 1,28,-1
 1151 1064 l 1,29,-1
 1070 1177 l 1,30,-1
 1064 1177 l 1,31,-1
 1064 1172 l 1,32,-1
 1157 891 l 1,33,34
 1191 921 1191 921 1232 1020 c 1,35,-1
 1242 1020 l 1,36,-1
 1253 973 l 1,37,-1
 1226 875 l 1,38,39
 1266 890 1266 890 1366 897 c 1,40,41
 1495 897 1495 897 1556 827 c 1,42,-1
 1556 811 l 1,43,-1
 1464 821 l 1,44,-1
 1458 821 l 1,45,-1
 1458 816 l 1,46,47
 1598 734 1598 734 1598 590 c 2,48,-1
 1598 584 l 1,49,-1
 1582 568 l 1,50,-1
 1507 675 l 1,51,-1
 1512 612 l 1,52,-1
 1512 590 l 2,53,54
 1512 496 1512 496 1442 445 c 1,55,-1
 1425 445 l 1,56,-1
 1442 541 l 1,57,58
 1380 484 1380 484 1324 482 c 2,59,-1
 1302 482 l 1,60,61
 1302 403 1302 403 1258 352 c 1,62,-1
 1258 347 l 1,63,64
 1291 347 1291 347 1291 385 c 1,65,66
 1319 412 1319 412 1340 412 c 2,67,-1
 1361 412 l 2,68,69
 1415 412 1415 412 1431 277 c 1,70,71
 1528 154 1528 154 1528 94 c 0,72,73
 1528 24 1528 24 1636 -251 c 1,74,75
 1652 -279 1652 -279 1652 -305 c 1,76,-1
 1647 -305 l 2,77,78
 1627 -305 1627 -305 1533 -14 c 1,79,-1
 1495 159 l 1,80,81
 1409 250 1409 250 1388 375 c 1,82,-1
 1366 396 l 1,83,-1
 1350 396 l 2,84,85
 1302 396 1302 396 1302 337 c 0,86,87
 1302 253 1302 253 1383 169 c 1,88,-1
 1383 159 l 1,89,-1
 1334 153 l 1,90,-1
 1258 164 l 1,91,92
 1226 153 1226 153 1226 143 c 2,93,-1
 1226 110 l 2,94,95
 1226 61 1226 61 1312 61 c 2,96,-1
 1378 61 l 1,97,-1
 1378 51 l 1,98,-1
 1275 51 l 1,99,-1
 1221 61 l 1,100,-1
 1211 45 l 1,101,-1
 1211 19 l 2,102,103
 1211 -40 1211 -40 1350 -40 c 1,104,-1
 1350 -52 l 1,105,-1
 1275 -52 l 1,106,-1
 1253 -47 l 1,107,-1
 1232 -63 l 1,108,-1
 1232 -106 l 2,109,110
 1232 -129 1232 -129 1312 -138 c 1,111,112
 1383 -132 1383 -132 1425 -117 c 1,113,114
 1435 -126 1435 -126 1458 -294 c 1,115,-1
 1464 -300 l 1,116,-1
 1458 -305 l 1,117,-1
 1453 -305 l 2,118,119
 1436 -305 1436 -305 1415 -138 c 1,120,121
 1375 -154 1375 -154 1302 -154 c 1,122,123
 1350 -277 1350 -277 1350 -305 c 1,124,-1
 1345 -305 l 1,125,126
 1330 -300 1330 -300 1280 -148 c 1,127,-1
 1253 -148 l 1,128,-1
 1242 -284 l 1,129,-1
 1248 -300 l 1,130,-1
 1242 -305 l 1,131,-1
 1237 -305 l 1,132,-1
 1226 -294 l 1,133,-1
 1237 -138 l 1,134,135
 1218 -138 1218 -138 1211 -78 c 1,136,-1
 1226 -35 l 1,137,138
 1201 -35 1201 -35 1195 7 c 1,139,-1
 1195 40 l 2,140,141
 1195 72 1195 72 1216 72 c 1,142,-1
 1216 77 l 1,143,-1
 1188 126 l 1,144,-1
 1178 126 l 1,145,-1
 1178 121 l 1,146,-1
 1157 -300 l 1,147,-1
 1151 -305 l 1,148,-1
 1146 -305 l 1,149,-1
 1134 -294 l 1,150,-1
 1167 185 l 1,151,-1
 1178 185 l 1,152,153
 1193 138 1193 138 1205 138 c 1,154,-1
 1205 143 l 1,155,156
 1188 238 1188 238 1157 277 c 1,157,-1
 1157 283 l 1,158,-1
 1211 272 l 1,159,-1
 1211 277 l 1,160,161
 1163 326 1163 326 1080 326 c 1,162,-1
 1080 331 l 1,163,-1
 1118 380 l 1,164,-1
 1113 380 l 1,165,166
 1067 347 1067 347 1033 347 c 1,167,-1
 989 466 l 1,168,-1
 925 450 l 1,169,-1
 951 358 l 1,170,-1
 941 347 l 1,171,-1
 876 375 l 1,172,-1
 909 342 l 1,173,174
 909 331 909 331 811 309 c 1,175,-1
 773 277 l 1,176,-1
 780 277 l 1,177,-1
 843 304 l 1,178,-1
 843 298 l 1,179,180
 773 192 773 192 773 131 c 2,181,-1
 773 126 l 1,182,-1
 780 126 l 1,183,-1
 806 185 l 1,184,-1
 817 185 l 1,185,-1
 850 -300 l 1,186,-1
 843 -305 l 1,187,-1
 838 -305 l 2,188,189
 827 -305 827 -305 827 -289 c 2,190,-1
 827 -277 l 1,191,-1
 833 -277 l 1,192,-1
 822 -127 l 1,193,194
 788 -177 788 -177 747 -305 c 1,195,-1
 736 -305 l 1,196,-1
 736 -300 l 1,197,198
 753 -211 753 -211 817 -84 c 1,199,-1
 806 131 l 1,200,-1
 796 131 l 1,201,-1
 768 72 l 1,202,-1
 752 72 l 1,203,204
 752 159 752 159 796 260 c 1,205,-1
 790 260 l 1,206,-1
 736 244 l 1,207,-1
 736 250 l 1,208,-1
 768 304 l 1,209,-1
 731 298 l 1,210,-1
 660 304 l 1,211,212
 668 286 668 286 719 272 c 1,213,-1
 719 260 l 1,214,-1
 607 234 l 1,215,-1
 607 229 l 1,216,-1
 634 229 l 1,217,-1
 688 234 l 1,218,-1
 693 229 l 1,219,220
 624 -146 624 -146 553 -256 c 1,221,-1
 515 -305 l 1,222,-1
 504 -305 l 1,223,-1
 504 -294 l 1,224,225
 612 -147 612 -147 672 213 c 1,226,-1
 665 213 l 1,227,-1
 520 207 l 1,228,229
 417 262 417 262 412 293 c 1,230,231
 370 351 370 351 370 385 c 1,232,-1
 365 385 l 1,233,-1
 348 250 l 1,234,-1
 342 250 l 1,235,236
 299 289 299 289 299 363 c 2,237,-1
 299 412 l 2,238,239
 299 457 299 457 332 530 c 1,240,-1
 250 476 l 1,241,-1
 245 482 l 1,242,243
 245 594 245 594 482 687 c 1,244,-1
 510 692 l 1,245,246
 423 770 423 770 423 806 c 1,247,-1
 543 752 l 1,248,-1
 482 1015 l 1,249,-1
 477 1015 l 1,250,-1
 456 881 l 1,251,-1
 450 881 l 2,252,253
 426 881 426 881 418 1037 c 1,254,-1
 418 1059 l 2,255,256
 418 1122 418 1122 428 1144 c 1,257,-1
 418 1144 l 1,258,259
 418 1129 418 1129 358 1080 c 1,260,-1
 353 1085 l 1,261,-1
 353 1090 l 2,262,263
 353 1151 353 1151 412 1231 c 1,264,265
 412 1266 412 1266 154 1512 c 1,266,-1
 121 1554 l 1,267,-1
 128 1559 l 1,268,-1
 128 1566 l 1,269,-1
 159 1554 l 1,270,-1
 159 1559 l 1,271,272
 135 1589 135 1589 100 1673 c 1,273,-1
 105 1678 l 1,274,-1
 143 1662 l 1,275,276
 134 1681 134 1681 125 1699 c 1,277,-1
 142 1699 l 1,278,279
 163 1656 163 1656 187 1613 c 1,280,-1
 181 1613 l 1,281,-1
 138 1641 l 1,282,-1
 138 1635 l 1,283,284
 160 1573 160 1573 224 1522 c 1,285,-1
 219 1522 l 1,286,-1
 154 1538 l 1,287,288
 381 1321 381 1321 435 1242 c 1,289,290
 499 1271 499 1271 499 1280 c 1,291,292
 461 1280 461 1280 418 1442 c 1,293,-1
 423 1442 l 1,294,-1
 531 1344 l 1,295,-1
 531 1350 l 1,296,297
 466 1556 466 1556 384 1699 c 1,298,-1
 400 1699 l 1,299,300
 448 1623 448 1623 466 1559 c 1,301,302
 529 1423 529 1423 553 1327 c 1,303,-1
 596 1306 l 1,304,-1
 596 1312 l 1,305,306
 569 1473 569 1473 569 1581 c 2,307,-1
 569 1700 l 1,308,-1
 589 1700 l 1,309,-1
 585 1592 l 1,310,-1
 607 1350 l 1,311,312
 684 1478 684 1478 757 1517 c 1,313,314
 726 1585 726 1585 636 1700 c 1,315,-1
 659 1700 l 1,316,317
 789 1530 789 1530 833 1388 c 1,318,319
 845 1388 845 1388 860 1435 c 1,320,321
 814 1584 814 1584 794 1700 c 1,322,-1
 809 1700 l 1,0,1
904 1517 m 1,323,324
 904 1403 904 1403 736 1236 c 1,325,326
 602 1252 602 1252 450 1393 c 1,327,-1
 450 1381 l 1,328,329
 469 1331 469 1331 526 1274 c 1,330,-1
 526 1258 l 1,331,332
 428 1258 428 1258 375 1128 c 1,333,-1
 375 1123 l 1,334,-1
 450 1193 l 1,335,-1
 456 1193 l 1,336,337
 435 1098 435 1098 435 1053 c 2,338,-1
 445 935 l 1,339,-1
 450 935 l 1,340,341
 459 1069 459 1069 472 1069 c 2,342,-1
 477 1069 l 1,343,344
 495 986 495 986 590 886 c 1,345,-1
 590 891 l 1,346,-1
 548 1113 l 1,347,348
 566 1128 566 1128 742 1193 c 1,349,-1
 763 1151 l 1,350,-1
 768 1151 l 1,351,352
 768 1205 768 1205 785 1205 c 2,353,-1
 979 1215 l 1,354,-1
 1033 999 l 1,355,-1
 1038 999 l 1,356,-1
 1054 1113 l 1,357,358
 1049 1191 1049 1191 1038 1215 c 1,359,-1
 1043 1220 l 1,360,-1
 1049 1220 l 1,361,-1
 1134 1118 l 1,362,-1
 1134 1123 l 1,363,364
 1109 1218 1109 1218 1000 1334 c 1,365,-1
 1000 1339 l 1,366,-1
 1103 1317 l 1,367,368
 1103 1344 1103 1344 1000 1371 c 1,369,-1
 968 1371 l 2,370,371
 930 1371 930 1371 909 1360 c 1,372,-1
 904 1366 l 1,373,-1
 914 1463 l 1,374,-1
 914 1479 l 1,375,-1
 909 1517 l 1,376,-1
 904 1517 l 1,323,324
763 1495 m 1,377,378
 714 1414 714 1414 714 1393 c 1,379,-1
 790 1447 l 1,380,381
 772 1495 772 1495 763 1495 c 1,377,378
612 1296 m 1,382,383
 704 1258 704 1258 731 1258 c 1,384,385
 766 1286 766 1286 801 1334 c 1,386,-1
 801 1339 l 1,387,-1
 736 1327 l 1,388,-1
 736 1334 l 2,389,390
 736 1360 736 1360 773 1414 c 1,391,-1
 768 1414 l 1,392,393
 728 1383 728 1383 677 1312 c 1,394,-1
 672 1312 l 1,395,-1
 672 1317 l 2,396,397
 672 1351 672 1351 726 1468 c 1,398,399
 647 1406 647 1406 612 1296 c 1,382,383
757 1350 m 1,400,-1
 763 1350 l 1,401,-1
 822 1360 l 1,402,-1
 806 1414 l 1,403,-1
 801 1414 l 2,404,405
 788 1414 788 1414 757 1350 c 1,400,-1
946 1193 m 1,406,407
 785 1191 785 1191 785 1182 c 0,408,409
 785 1089 785 1089 822 973 c 1,410,-1
 827 973 l 1,411,-1
 1016 989 l 1,412,-1
 963 1198 l 1,413,-1
 946 1193 l 1,406,407
564 1102 m 1,414,-1
 607 891 l 1,415,-1
 612 891 l 2,416,417
 633 891 633 891 801 966 c 1,418,419
 801 1028 801 1028 736 1172 c 1,420,-1
 564 1102 l 1,414,-1
1070 1090 m 1,421,422
 1070 1047 1070 1047 1043 956 c 1,423,-1
 1049 940 l 1,424,-1
 1087 973 l 1,425,-1
 1092 973 l 1,426,-1
 1054 912 l 1,427,-1
 1059 897 l 1,428,-1
 1129 919 l 1,429,-1
 1075 1090 l 1,430,-1
 1070 1090 l 1,421,422
827 956 m 1,431,-1
 827 951 l 1,432,-1
 838 886 l 1,433,-1
 827 886 l 1,434,-1
 806 951 l 1,435,436
 623 881 623 881 618 870 c 1,437,438
 650 703 650 703 672 703 c 2,439,-1
 780 687 l 1,440,-1
 780 713 l 1,441,-1
 796 762 l 1,442,-1
 785 773 l 1,443,-1
 785 795 l 1,444,-1
 796 806 l 1,445,446
 811 800 811 800 811 773 c 1,447,-1
 892 795 l 1,448,-1
 904 795 l 1,449,-1
 897 832 l 1,450,-1
 904 837 l 1,451,-1
 914 837 l 2,452,453
 925 837 925 837 935 790 c 1,454,455
 966 790 966 790 995 741 c 1,456,457
 1022 752 1022 752 1064 790 c 1,458,-1
 1022 973 l 1,459,-1
 827 956 l 1,431,-1
1226 973 m 1,460,461
 1190 854 1190 854 1005 719 c 1,462,-1
 1033 713 l 1,463,-1
 1302 757 l 1,464,465
 1302 744 1302 744 1275 741 c 1,466,467
 1286 716 1286 716 1291 638 c 0,468,469
 1291 584 1291 584 1059 584 c 1,470,471
 1059 568 1059 568 1033 551 c 1,472,-1
 1038 525 l 1,473,-1
 1059 525 l 1,474,-1
 1280 497 l 1,475,-1
 1291 497 l 2,476,477
 1390 497 1390 497 1464 590 c 1,478,-1
 1469 590 l 1,479,-1
 1448 476 l 1,480,481
 1495 515 1495 515 1495 600 c 0,482,483
 1495 645 1495 645 1474 729 c 1,484,-1
 1479 729 l 1,485,486
 1557 655 1557 655 1572 612 c 1,487,-1
 1577 612 l 1,488,-1
 1577 628 l 2,489,490
 1577 731 1577 731 1410 827 c 1,491,-1
 1378 832 l 1,492,-1
 1378 843 l 1,493,-1
 1415 843 l 1,494,-1
 1523 832 l 1,495,496
 1479 875 1479 875 1371 875 c 2,497,-1
 1345 875 l 2,498,499
 1284 875 1284 875 1211 854 c 1,500,-1
 1205 859 l 1,501,-1
 1232 966 l 1,502,-1
 1232 973 l 1,503,-1
 1226 973 l 1,460,461
520 935 m 1,504,-1
 553 773 l 1,505,506
 618 776 618 776 618 790 c 2,507,-1
 618 795 l 2,508,509
 618 810 618 810 553 827 c 1,510,-1
 553 837 l 1,511,-1
 558 837 l 1,512,-1
 607 821 l 1,513,-1
 607 837 l 1,514,-1
 520 935 l 1,504,-1
1064 886 m 1,515,-1
 1064 881 l 2,516,517
 1064 849 1064 849 1118 849 c 2,518,-1
 1124 849 l 1,519,-1
 1146 870 l 1,520,-1
 1134 907 l 1,521,-1
 1064 886 l 1,515,-1
1075 837 m 1,522,-1
 1075 832 l 1,523,-1
 1080 806 l 1,524,525
 1103 812 1103 812 1113 832 c 1,526,-1
 1108 837 l 1,527,-1
 1075 837 l 1,522,-1
796 708 m 1,528,529
 796 632 796 632 909 612 c 1,530,531
 984 647 984 647 984 713 c 0,532,533
 984 766 984 766 904 778 c 1,534,535
 815 778 815 778 796 708 c 1,528,529
461 773 m 1,536,-1
 461 767 l 1,537,-1
 543 687 l 1,538,539
 462 675 462 675 327 584 c 1,540,541
 273 528 273 528 273 509 c 1,542,543
 357 579 357 579 391 579 c 1,544,545
 316 485 316 485 316 391 c 2,546,-1
 316 385 l 1,547,-1
 332 288 l 1,548,-1
 337 288 l 1,549,550
 337 361 337 361 358 450 c 1,551,-1
 370 450 l 1,552,553
 370 367 370 367 461 260 c 1,554,-1
 515 234 l 1,555,-1
 445 337 l 1,556,-1
 450 342 l 1,557,-1
 456 342 l 1,558,559
 494 304 494 304 543 304 c 0,560,561
 637 304 637 304 833 476 c 1,562,-1
 843 476 l 1,563,-1
 843 492 l 2,564,565
 843 504 843 504 811 514 c 1,566,567
 652 428 652 428 612 428 c 0,568,569
 585 428 585 428 548 541 c 1,570,-1
 543 541 l 1,571,-1
 499 530 l 1,572,573
 545 561 545 561 757 628 c 1,574,-1
 773 665 l 1,575,-1
 773 670 l 1,576,-1
 768 670 l 2,577,578
 698 670 698 670 602 703 c 1,579,-1
 585 698 l 1,580,581
 585 712 585 712 504 746 c 1,582,-1
 461 773 l 1,536,-1
558 752 m 0,583,584
 568 724 568 724 602 724 c 2,585,-1
 607 724 l 1,586,587
 628 736 628 736 628 752 c 1,588,-1
 623 767 l 1,589,590
 558 762 558 762 558 752 c 0,583,584
1049 703 m 1,591,592
 1075 670 1075 670 1075 654 c 1,593,-1
 1275 682 l 1,594,-1
 1263 736 l 1,595,-1
 1049 703 l 1,591,592
628 724 m 1,596,-1
 623 719 l 1,597,-1
 623 713 l 1,598,-1
 639 708 l 1,599,-1
 639 713 l 1,600,-1
 628 724 l 1,596,-1
1000 703 m 1,601,602
 970 595 970 595 909 595 c 2,603,-1
 904 595 l 1,604,605
 796 618 796 618 796 654 c 1,606,-1
 785 654 l 1,607,-1
 773 612 l 1,608,609
 773 520 773 520 876 520 c 0,610,611
 1024 520 1024 520 1059 628 c 1,612,-1
 1059 633 l 1,613,614
 1050 703 1050 703 1000 703 c 1,601,602
1075 644 m 1,615,-1
 1075 612 l 1,616,-1
 1070 605 l 1,617,-1
 1070 600 l 1,618,-1
 1080 600 l 1,619,620
 1275 608 1275 608 1275 633 c 2,621,-1
 1275 665 l 1,622,-1
 1270 665 l 1,623,-1
 1075 644 l 1,615,-1
564 541 m 2,624,-1
 580 492 l 1,625,-1
 763 568 l 1,626,-1
 757 595 l 1,627,-1
 757 612 l 1,628,-1
 752 612 l 1,629,630
 564 551 564 551 564 541 c 2,624,-1
585 482 m 1,631,632
 599 447 599 447 612 445 c 2,633,-1
 623 445 l 1,634,635
 726 475 726 475 796 525 c 1,636,-1
 763 558 l 1,637,-1
 585 482 l 1,631,632
887 504 m 2,638,-1
 860 504 l 1,639,-1
 871 466 l 1,640,-1
 897 466 l 2,641,642
 939 466 939 466 1022 497 c 1,643,-1
 1022 525 l 1,644,-1
 1010 536 l 1,645,646
 953 504 953 504 887 504 c 2,638,-1
1075 509 m 1,647,-1
 1070 504 l 1,648,-1
 1075 497 l 1,649,-1
 1075 492 l 1,650,-1
 1080 385 l 1,651,-1
 1092 385 l 1,652,-1
 1162 422 l 1,653,-1
 1162 417 l 2,654,655
 1162 398 1162 398 1108 342 c 1,656,-1
 1129 337 l 1,657,658
 1207 366 1207 366 1286 471 c 1,659,-1
 1286 476 l 1,660,661
 1197 482 1197 482 1075 509 c 1,647,-1
1038 504 m 1,662,663
 1038 485 1038 485 1010 476 c 1,664,665
 1035 368 1035 368 1049 368 c 2,666,-1
 1054 368 l 1,667,-1
 1064 380 l 1,668,-1
 1054 504 l 1,669,-1
 1038 504 l 1,662,663
665 321 m 1,670,-1
 731 321 l 2,671,672
 781 321 781 321 871 342 c 1,673,-1
 871 347 l 1,674,675
 822 405 822 405 822 417 c 1,676,-1
 827 422 l 1,677,-1
 833 422 l 1,678,679
 833 410 833 410 930 375 c 1,680,681
 917 445 917 445 887 445 c 1,682,-1
 850 460 l 1,683,684
 803 435 803 435 665 321 c 1,670,-1
1162 326 m 1,685,686
 1237 303 1237 303 1237 255 c 2,687,-1
 1237 244 l 1,688,-1
 1195 255 l 1,689,-1
 1195 250 l 1,690,691
 1216 199 1216 199 1216 169 c 1,692,-1
 1253 180 l 1,693,-1
 1350 175 l 1,694,-1
 1356 175 l 1,695,-1
 1356 185 l 1,696,697
 1286 234 1286 234 1286 321 c 2,698,-1
 1286 331 l 1,699,-1
 1232 321 l 1,700,-1
 1226 326 l 1,701,-1
 1226 331 l 1,702,703
 1275 405 1275 405 1275 428 c 1,704,705
 1222 367 1222 367 1162 326 c 1,685,686
536 288 m 1,706,-1
 494 293 l 1,707,-1
 543 229 l 1,708,-1
 672 267 l 1,709,-1
 634 309 l 1,710,711
 595 288 595 288 536 288 c 1,706,-1
989 190 m 1,712,-1
 1000 190 l 1,713,-1
 1000 180 l 1,714,-1
 989 180 l 1,715,-1
 989 190 l 1,712,-1
995 169 m 1,716,-1
 1005 169 l 1,717,-1
 1027 61 l 1,718,-1
 1022 61 l 1,719,-1
 1005 72 l 1,720,-1
 1000 72 l 1,721,-1
 1000 67 l 1,722,-1
 1005 61 l 1,723,-1
 1000 35 l 1,724,-1
 1000 -9 l 1,725,-1
 989 -9 l 1,726,-1
 989 84 l 1,727,-1
 1000 94 l 1,728,-1
 1005 89 l 1,729,-1
 1010 89 l 1,730,-1
 1010 94 l 1,731,732
 1000 113 1000 113 995 169 c 1,716,-1
1366 -35 m 1,733,-1
 1371 -35 l 1,734,-1
 1371 -47 l 1,735,-1
 1366 -47 l 1,736,-1
 1366 -35 l 1,733,-1
574 -284 m 1,737,-1
 574 -289 l 1,738,-1
 558 -305 l 1,739,-1
 558 -300 l 1,740,-1
 574 -284 l 1,737,-1
EndSplineSet
EndChar

StartChar: uniFB00
Encoding: 64256 64256 375
Width: 1200
GlyphClass: 2
Flags: W
LayerCount: 2
Fore
SplineSet
300 900 m 1,0,-1
 700 900 l 1,1,-1
 700 1150 l 2,2,3
 700 1400 700 1400 950 1400 c 2,4,-1
 1075 1400 l 1,5,-1
 1075 1250 l 1,6,-1
 1000 1250 l 2,7,8
 900 1250 900 1250 900 1150 c 2,9,-1
 900 900 l 1,10,-1
 1100 900 l 1,11,-1
 1100 750 l 1,12,-1
 900 750 l 1,13,-1
 900 0 l 1,14,-1
 700 0 l 1,15,-1
 700 750 l 1,16,-1
 300 750 l 1,17,-1
 300 0 l 1,18,-1
 100 0 l 1,19,-1
 100 750 l 1,20,-1
 0 750 l 1,21,-1
 0 900 l 1,22,-1
 100 900 l 1,23,-1
 100 1150 l 2,24,25
 100 1400 100 1400 350 1400 c 2,26,-1
 475 1400 l 1,27,-1
 475 1250 l 1,28,-1
 400 1250 l 2,29,30
 300 1250 300 1250 300 1150 c 2,31,-1
 300 900 l 1,0,-1
EndSplineSet
EndChar

StartChar: uniFB01
Encoding: 64257 64257 376
Width: 1200
GlyphClass: 2
Flags: W
LayerCount: 2
Fore
SplineSet
300 900 m 1,0,-1
 500 900 l 1,1,-1
 500 750 l 1,2,-1
 300 750 l 1,3,-1
 300 0 l 1,4,-1
 100 0 l 1,5,-1
 100 750 l 1,6,-1
 0 750 l 1,7,-1
 0 900 l 1,8,-1
 100 900 l 1,9,-1
 100 1150 l 2,10,11
 100 1400 100 1400 350 1400 c 2,12,-1
 1000 1400 l 1,13,-1
 1000 1100 l 1,14,-1
 800 1100 l 1,15,-1
 800 1250 l 1,16,-1
 400 1250 l 2,17,18
 300 1250 300 1250 300 1150 c 2,19,-1
 300 900 l 1,0,-1
1000 900 m 1,20,-1
 1000 0 l 1,21,-1
 800 0 l 1,22,-1
 800 750 l 1,23,-1
 700 750 l 1,24,-1
 700 900 l 1,25,-1
 1000 900 l 1,20,-1
EndSplineSet
EndChar

StartChar: uniFB02
Encoding: 64258 64258 377
Width: 1200
GlyphClass: 2
Flags: W
LayerCount: 2
Fore
SplineSet
300 900 m 1,0,-1
 500 900 l 1,1,-1
 500 750 l 1,2,-1
 300 750 l 1,3,-1
 300 0 l 1,4,-1
 100 0 l 1,5,-1
 100 750 l 1,6,-1
 0 750 l 1,7,-1
 0 900 l 1,8,-1
 100 900 l 1,9,-1
 100 1150 l 2,10,11
 100 1400 100 1400 350 1400 c 2,12,-1
 1000 1400 l 1,13,-1
 1000 0 l 1,14,-1
 800 0 l 1,15,-1
 800 1250 l 1,16,-1
 400 1250 l 2,17,18
 300 1250 300 1250 300 1150 c 2,19,-1
 300 900 l 1,0,-1
EndSplineSet
EndChar

StartChar: uniFB03
Encoding: 64259 64259 378
Width: 1800
GlyphClass: 2
Flags: W
LayerCount: 2
Fore
SplineSet
900 900 m 1,0,-1
 1100 900 l 1,1,-1
 1100 750 l 1,2,-1
 900 750 l 1,3,-1
 900 0 l 1,4,-1
 700 0 l 1,5,-1
 700 750 l 1,6,-1
 300 750 l 1,7,-1
 300 0 l 1,8,-1
 100 0 l 1,9,-1
 100 750 l 1,10,-1
 0 750 l 1,11,-1
 0 900 l 1,12,-1
 100 900 l 1,13,-1
 100 1150 l 2,14,15
 100 1400 100 1400 350 1400 c 2,16,-1
 475 1400 l 1,17,-1
 475 1250 l 1,18,-1
 400 1250 l 2,19,20
 300 1250 300 1250 300 1150 c 2,21,-1
 300 900 l 1,22,-1
 700 900 l 1,23,-1
 700 1150 l 2,24,25
 700 1400 700 1400 950 1400 c 2,26,-1
 1600 1400 l 1,27,-1
 1600 1100 l 1,28,-1
 1400 1100 l 1,29,-1
 1400 1250 l 1,30,-1
 1000 1250 l 2,31,32
 900 1250 900 1250 900 1150 c 2,33,-1
 900 900 l 1,0,-1
1600 900 m 1,34,-1
 1600 0 l 1,35,-1
 1400 0 l 1,36,-1
 1400 750 l 1,37,-1
 1300 750 l 1,38,-1
 1300 900 l 1,39,-1
 1600 900 l 1,34,-1
EndSplineSet
EndChar

StartChar: uniFB04
Encoding: 64260 64260 379
Width: 1800
GlyphClass: 2
Flags: W
LayerCount: 2
Fore
SplineSet
900 900 m 1,0,-1
 1100 900 l 1,1,-1
 1100 750 l 1,2,-1
 900 750 l 1,3,-1
 900 0 l 1,4,-1
 700 0 l 1,5,-1
 700 750 l 1,6,-1
 300 750 l 1,7,-1
 300 0 l 1,8,-1
 100 0 l 1,9,-1
 100 750 l 1,10,-1
 0 750 l 1,11,-1
 0 900 l 1,12,-1
 100 900 l 1,13,-1
 100 1150 l 2,14,15
 100 1400 100 1400 350 1400 c 2,16,-1
 475 1400 l 1,17,-1
 475 1250 l 1,18,-1
 400 1250 l 2,19,20
 300 1250 300 1250 300 1150 c 2,21,-1
 300 900 l 1,22,-1
 700 900 l 1,23,-1
 700 1150 l 2,24,25
 700 1400 700 1400 950 1400 c 2,26,-1
 1600 1400 l 1,27,-1
 1600 0 l 1,28,-1
 1400 0 l 1,29,-1
 1400 1250 l 1,30,-1
 1000 1250 l 2,31,32
 900 1250 900 1250 900 1150 c 2,33,-1
 900 900 l 1,0,-1
EndSplineSet
EndChar

StartChar: uniFB05
Encoding: 64261 64261 380
Width: 1100
GlyphClass: 2
Flags: W
LayerCount: 2
Fore
SplineSet
300 0 m 1,0,-1
 100 0 l 1,1,-1
 100 1150 l 2,2,3
 100 1400 100 1400 350 1400 c 2,4,-1
 800 1400 l 1,5,-1
 800 900 l 1,6,-1
 1000 900 l 1,7,-1
 1000 750 l 1,8,-1
 800 750 l 1,9,-1
 800 250 l 2,10,11
 800 150 800 150 900 150 c 2,12,-1
 975 150 l 1,13,-1
 975 0 l 1,14,-1
 850 0 l 2,15,16
 600 0 600 0 600 250 c 2,17,-1
 600 750 l 1,18,-1
 500 750 l 1,19,-1
 500 900 l 1,20,-1
 600 900 l 1,21,-1
 600 1250 l 1,22,-1
 400 1250 l 2,23,24
 300 1250 300 1250 300 1150 c 2,25,-1
 300 0 l 1,0,-1
EndSplineSet
EndChar

StartChar: uniFB06
Encoding: 64262 64262 381
Width: 1350
GlyphClass: 2
Flags: W
LayerCount: 2
Fore
SplineSet
475 250 m 2,0,1
 475 0 475 0 225 0 c 2,2,-1
 100 0 l 1,3,-1
 100 150 l 1,4,-1
 175 150 l 2,5,6
 275 150 275 150 275 250 c 2,7,-1
 275 650 l 2,8,9
 275 874 275 874 475 897 c 1,10,11
 400 983 400 983 400 1100 c 0,12,13
 400 1400 400 1400 700 1400 c 2,14,-1
 1050 1400 l 1,15,-1
 1050 900 l 1,16,-1
 1250 900 l 1,17,-1
 1250 750 l 1,18,-1
 1050 750 l 1,19,-1
 1050 250 l 2,20,21
 1050 150 1050 150 1150 150 c 2,22,-1
 1225 150 l 1,23,-1
 1225 0 l 1,24,-1
 1100 0 l 2,25,26
 850 0 850 0 850 250 c 2,27,-1
 850 750 l 1,28,-1
 750 750 l 1,29,-1
 750 900 l 1,30,-1
 850 900 l 1,31,-1
 850 1250 l 1,32,-1
 700 1250 l 2,33,34
 550 1250 550 1250 550 1100 c 0,35,36
 550 975 550 975 650 900 c 1,37,-1
 650 750 l 1,38,-1
 575 750 l 2,39,40
 475 750 475 750 475 650 c 2,41,-1
 475 250 l 2,0,1
EndSplineSet
EndChar

StartChar: uni0414
Encoding: 1044 1044 386
Width: 990
Flags: W
LayerCount: 2
Fore
SplineSet
791 1400 m 1,0,-1
 791 418 l 1,1,-1
 894 418 l 1,2,-1
 894 0 l 1,3,-1
 705 0 l 1,4,-1
 705 265 l 1,5,-1
 296 265 l 1,6,-1
 296 0 l 1,7,-1
 108 0 l 1,8,-1
 108 418 l 1,9,10
 179 418 l 17,11,12
 287 647 287 647 306 1400 c 0,13,-1
 791 1400 l 1,0,-1
369 418 m 0,14,-1
 608 418 l 1,15,-1
 608 1249 l 1,16,-1
 465 1249 l 0,17,18
 439 604 439 604 369 418 c 0,14,-1
EndSplineSet
EndChar

StartChar: uni0417
Encoding: 1047 1047 387
Width: 900
Flags: W
LayerCount: 2
Fore
SplineSet
100 150 m 1,0,-1
 500 150 l 2,1,2
 600 150 600 150 600 250 c 2,3,-1
 600 541 l 2,4,5
 600 641 600 641 500 641 c 2,6,-1
 250 641 l 1,7,-1
 249 741 l 1,8,-1
 250 741 l 1,9,-1
 250 791 l 5,10,-1
 496 791 l 2,11,12
 596 791 596 791 596 891 c 2,13,-1
 596 1150 l 2,14,15
 596 1250 596 1250 496 1250 c 2,16,-1
 101 1250 l 1,17,-1
 101 1400 l 1,18,-1
 546 1400 l 2,19,20
 796 1400 796 1400 796 1150 c 2,21,-1
 796 891 l 2,22,23
 796 767 796 767 684 720 c 1,24,25
 800 676 800 676 800 541 c 2,26,-1
 800 250 l 2,27,28
 800 0 800 0 550 0 c 2,29,-1
 100 0 l 1,30,-1
 100 150 l 1,0,-1
EndSplineSet
EndChar

StartChar: uni0432
Encoding: 1074 1074 388
Width: 900
Flags: W
LayerCount: 2
Fore
SplineSet
100 0 m 1,0,-1
 100 902 l 1,1,-1
 530 902 l 2,2,3
 780 902 780 902 780 599 c 2,4,-1
 780 692 l 2,5,6
 780 511 780 511 684 464 c 5,7,8
 800 420 800 420 800 289 c 2,9,-1
 800 250 l 2,10,11
 800 0 800 0 550 0 c 2,12,-1
 100 0 l 1,0,-1
500 150 m 2,13,14
 600 150 600 150 600 250 c 2,15,-1
 600 289 l 2,16,17
 600 385 600 385 500 385 c 6,18,-1
 300 385 l 5,19,-1
 300 150 l 1,20,-1
 500 150 l 2,13,14
300 752 m 1,21,-1
 300 535 l 5,22,-1
 480 535 l 6,23,24
 580 535 580 535 580 692 c 2,25,-1
 580 599 l 2,26,27
 580 752 580 752 480 752 c 2,28,-1
 300 752 l 1,21,-1
EndSplineSet
EndChar

StartChar: uni0443
Encoding: 1091 1091 389
Width: 850
Flags: W
LayerCount: 2
Fore
SplineSet
200 -500 m 1,0,-1
 200 -350 l 1,1,-1
 450 -350 l 2,2,3
 550 -350 550 -350 550 -250 c 2,4,-1
 550 0 l 1,5,-1
 350 0 l 2,6,7
 100 0 100 0 100 250 c 2,8,-1
 100 900 l 1,9,-1
 300 900 l 1,10,-1
 300 250 l 2,11,12
 300 150 300 150 400 150 c 2,13,-1
 550 150 l 1,14,-1
 550 900 l 1,15,-1
 750 900 l 1,16,-1
 750 -250 l 2,17,18
 750 -500 750 -500 500 -500 c 2,19,-1
 200 -500 l 1,0,-1
EndSplineSet
EndChar

StartChar: uni043A
Encoding: 1082 1082 390
Width: 900
Flags: W
LayerCount: 2
Fore
SplineSet
300 902 m 1,0,-1
 300 512 l 1,1,-1
 400 512 l 1,2,-1
 600 902 l 1,3,-1
 799 902 l 1,4,-1
 574 447 l 1,5,-1
 800 0 l 1,6,-1
 600 0 l 1,7,-1
 400 363 l 1,8,-1
 300 363 l 1,9,-1
 300 0 l 1,10,-1
 100 0 l 1,11,-1
 100 902 l 1,12,-1
 300 902 l 1,0,-1
EndSplineSet
EndChar

StartChar: uni0412
Encoding: 1042 1042 391
Width: 900
Flags: W
LayerCount: 2
Fore
SplineSet
100 0 m 1,0,-1
 100 1400 l 1,1,-1
 530 1400 l 2,2,3
 780 1400 780 1400 780 1150 c 2,4,-1
 780 1000 l 2,5,6
 780 876 780 876 684 829 c 1,7,8
 800 785 800 785 800 650 c 2,9,-1
 800 250 l 2,10,11
 800 0 800 0 550 0 c 2,12,-1
 100 0 l 1,0,-1
500 150 m 2,13,14
 600 150 600 150 600 250 c 2,15,-1
 600 650 l 2,16,17
 600 750 600 750 500 750 c 2,18,-1
 300 750 l 1,19,-1
 300 150 l 1,20,-1
 500 150 l 2,13,14
300 1250 m 1,21,-1
 300 900 l 1,22,-1
 480 900 l 2,23,24
 580 900 580 900 580 1000 c 2,25,-1
 580 1150 l 2,26,27
 580 1250 580 1250 480 1250 c 2,28,-1
 300 1250 l 1,21,-1
EndSplineSet
EndChar

StartChar: uni041A
Encoding: 1050 1050 392
Width: 900
Flags: W
LayerCount: 2
Fore
SplineSet
300 1400 m 1,0,-1
 300 785 l 1,1,-1
 400 785 l 1,2,-1
 600 1400 l 1,3,-1
 799 1400 l 1,4,-1
 574 720 l 1,5,-1
 800 0 l 1,6,-1
 600 0 l 1,7,-1
 400 636 l 1,8,-1
 300 636 l 1,9,-1
 300 0 l 1,10,-1
 100 0 l 1,11,-1
 100 1400 l 1,12,-1
 300 1400 l 1,0,-1
EndSplineSet
EndChar

